{
.formatVersion = 3;
DisplayStrings = (
"§"
);
axes = (
{
name = Weight;
tag = wght;
}
);
classes = (
{
code = "a.5 d.5 l.5 m.5 n.5 s.4 u.5 z.baja";
name = bajan;
},
{
code = "a d l m n s u z";
name = debajan;
},
{
code = "a.4 c.4 d.4 e.4 f.7 h.4 j.4 l.4 m.4 n.4 r.4 t.7.4 u.4 v.4 y.4 z.4";
name = encierran;
},
{
code = "a c d e f h j l m n r t u v y z";
name = deencierran;
},
{
code = "a.9 d.9 e.9 h.9 i.9 k.9 l.9 m.9 n.9 r.sube t.9 u.9 v.sube w.sube y.1.sube";
name = gota;
},
{
code = "a d e h i k l m n r t u v w y";
name = degota;
},
{
code = "b.6 h.6 k.6 q.2 u.005 y.44";
name = encierranup;
},
{
code = "b h k q u y";
name = deencierranup;
},
{
code = "g.7 t.7 u.4.2 x.002332";
name = more;
},
{
code = "g t u x";
name = demore;
},
{
code = "e.55 g.alt v.alt w.alt x.alt y.alt";
name = other2;
},
{
code = "e g v w x y";
name = deother2;
},
{
code = "A.77 B.7 D.7 E.7 F.7 H.7 K.71 M.7 N.7.77 P.7 R.7.001 T.7";
name = capsinit;
},
{
code = "A B D E F H K M N P R T";
name = decapsinit;
},
{
code = "E.77 G.7 J.7 K.7 L.7 N.7.001 Q.7 R.7.2 S.2 T.7.7 V.7 W.7 Y.7 Z.7";
name = capsrulote;
},
{
code = "E G J K L N Q R S T V W Y Z";
name = decapsrulote;
},
{
code = "B.77 C.antes N.7 O.2";
name = extra2;
},
{
code = "B C N O";
name = deextra2;
}
);
familyName = "Reina Neue";
customParameters = (
{
name = glyphOrder;
value = (
.notdef,
NULL,
CR,
space,
a,
a.5,
a.4,
a.9,
b,
b.6,
c,
c.4,
d,
d.5,
d.4,
d.9,
e,
e.55,
e.4,
e.9,
f,
f.7,
g,
g.alt,
g.7,
h,
h.4,
h.6,
h.9,
i,
i.9,
j,
j.4,
k,
k.6,
k.9,
l,
l.5,
l.4,
l.9,
m,
m.5,
m.4,
m.9,
n,
n.5,
n.4,
n.9,
o,
p,
q,
q.2,
r,
r.4,
r.sube,
s,
s.4,
t,
t.7,
t.7.4,
t.9,
u,
u.5,
u.4,
u.4.2,
u.005,
u.9,
v,
v.alt,
v.4,
v.sube,
w,
w.alt,
w.sube,
x,
x.alt,
x.002332,
y,
y.alt,
y.4,
y.44,
y.1.sube,
z,
z.baja,
z.4,
zero,
one,
two,
three,
four,
five,
six,
seven,
eight,
nine,
colon,
semicolon,
less,
equal,
greater,
question,
at,
A,
A.77,
B,
B.7,
B.77,
C,
C.antes,
D,
D.7,
E,
E.7,
E.77,
F,
F.7,
G,
G.7,
H,
H.7,
I,
J,
J.7,
K,
K.71,
K.7,
L,
L.7,
M,
M.7,
N,
N.7.77,

glyphs = (
{
color = (255, 153, 153, 255);
glyphname = a;
layers = (
{
anchors = (
{
name = top;
position = "{306, 576}";
},
{
name = bottom;
position = "{203, -77}";
}
);
background = {
shapes = (
{
closed = 1;
nodes = (
(380,340,l),
(403,441,o),
(361,500,o),
(283,500,cs),
(129,500,o),
(29,326,o),
(29,170,cs),
(29,62,o),
(76,-9,o),
(164,-9,cs),
(256,-9,o),
(337,84,o),
(364,231,c),
(358,231,l),
(331,80,o),
(251,15,o),
(193,15,cs),
(124,15,o),
(103,87,o),
(103,160,cs),
(103,295,o),
(162,488,o),
(296,488,cs),
(369,488,o),
(392,413,o),
(376,331,c)
);
}
);
};
guides = (
{
position = "{0, -77}";
}
);
hints = (
{
horizontal = 1;
place = (-6,43);
type = Stem;
},
{
horizontal = 1;
place = (250,217);
type = Stem;
},
{
place = (-157,192);
type = Stem;
},
{
place = (-124,208);
type = Stem;
},
{
place = (159,195);
type = Stem;
},
{
place = (159,248);
type = Stem;
}
);
layerId = "A01EDA77-E91F-4F54-AC7E-74E4C922CA36";
shapes = (
{
closed = 1;
nodes = (
(407,487,l),
(380,353,l),
(334,101,ls),
(321,32,o),
(341,-9,o),
(388,-9,cs),
(452,-9,o),
(494,51,o),
(519,102,c),
(515,109,l),
(483,43,o),
(450,18,o),
(432,18,cs),
(401,18,o),
(401,54,o),
(410,106,cs),
(477,487,l)
);
},
{
closed = 1;
nodes = (
(380,340,l),
(403,441,o),
(361,500,o),
(283,500,cs),
(127,500,o),
(27,326,o),
(27,172,cs),
(27,62,o),
(78,-9,o),
(163,-9,cs),
(262,-9,o),
(339,84,o),
(364,231,c),
(358,231,l),
(333,80,o),
(259,15,o),
(195,15,cs),
(127,15,o),
(103,87,o),
(103,168,cs),
(103,295,o),
(162,488,o),
(296,488,cs),
(369,488,o),
(392,413,o),
(376,331,c)
);
}
);
width = 519;
},
{
anchors = (
{
name = top;
position = "{408, 577}";
},
{
name = bottom;
position = "{295, -77}";
}
);
guides = (
{
position = "{0, -77}";
}
);
hints = (
{
horizontal = 1;
place = (-6,43);
type = Stem;
},
{
horizontal = 1;
place = (250,217);
type = Stem;
},
{
place = (-27,192);
type = Stem;
},
{
place = (6,208);
type = Stem;
},
{
place = (289,195);
type = Stem;
},
{
place = (289,248);
type = Stem;
}
);
layerId = "F3B99A47-B03A-4C9D-AB53-5F3A31A2DF8F";
shapes = (
{
closed = 1;
nodes = (
(428.322,487,l),
(405.058,417,l),
(353.199,121,ls),
(338.482,37,o),
(369.423,-9,o),
(461.423,-9,cs),
(549.423,-9,o),
(604.191,81,o),
(624.725,124,c),
(620.951,131,l),
(603.994,97,o),
(569.183,41,o),
(547.709,44,cs),
(534.059,46,o),
(532.512,60,o),
(540.571,106,cs),
(607.322,487,l)
);
},
{
closed = 1;
nodes = (
(408.73,398,l),
(421.797,484,o),
(393.6,500,o),
(333.6,500,cs),
(189.6,500,o),
(64.226,378,o),
(43.544,220,cs),
(24.841,79,o),
(78.423,-9,o),
(189.423,-9,cs),
(277.423,-9,o),
(347.935,51,o),
(376.318,213,c),
(369.318,213,l),
(348.469,94,o),
(309.439,71,o),
(284.439,71,cs),
(231.439,71,o),
(244.536,180,o),
(258.727,261,cs),
(274.145,349,o),
(304.446,482,o),
(369.446,482,cs),
(411.446,482,o),
(407.635,426,o),
(400.452,385,c)
);
}
);
width = 605;
}
);
leftKerningGroup = _kern1;
unicode = 97;
},
{
color = (154, 153, 255, 255);
glyphname = a.5;
leftMetricsKey = a;
layers = (
{
layerId = "A01EDA77-E91F-4F54-AC7E-74E4C922CA36";
shapes = (
{
closed = 1;
nodes = (
(621,-230,o),
(707,-202,o),
(744,-139,c),
(740,-134,l),
(707,-191,o),
(626,-221,o),
(562,-221,cs),
(453,-221,o),
(377,-144,o),
(408,31,cs),
(488,487,l),
(418,487,l),
(393,367,l),
(339,67,ls),
(307,-110,o),
(385,-230,o),
(545,-230,cs)
);
},
{
closed = 1;
nodes = (
(395,364,l),
(411,439,o),
(380,500,o),
(291,500,cs),
(127,500,o),
(27,319,o),
(27,154,cs),
(27,57,o),
(75,-9,o),
(166,-9,cs),
(263,-9,o),
(345,70,o),
(373,219,c),
(366,219,l),
(338,66,o),
(258,15,o),
(197,15,cs),
(125,15,o),
(103,87,o),
(103,160,cs),
(103,295,o),
(162,488,o),
(305,488,cs),
(388,488,o),
(401,407,o),
(391,355,c)
);
}
);
width = 519;
},
{
layerId = "F3B99A47-B03A-4C9D-AB53-5F3A31A2DF8F";
shapes = (
{
closed = 1;
nodes = (
(740,-239,o),
(840,-208,o),
(882,-139,c),
(878,-134,l),
(844,-192,o),
(763,-222,o),
(698,-222,cs),
(592,-222,o),
(494,-149,o),
(526,31,cs),
(606,487,l),
(427,487,l),
(404,417,l),
(352,121,ls),
(329,-8,o),
(349,-239,o),
(652,-239,cs)
);
},
{
closed = 1;
nodes = (
(407,398,l),
(420,484,o),
(380,500,o),
(333,500,cs),
(189,500,o),
(64,378,o),
(43,220,cs),
(25,79,o),
(78,-9,o),
(189,-9,cs),
(277,-9,o),
(347,51,o),
(375,213,c),
(368,213,l),
(348,94,o),
(309,71,o),
(284,71,cs),
(231,71,o),
(244,180,o),
(258,261,cs),
(273,349,o),
(304,482,o),
(369,482,cs),
(400,482,o),
(406,426,o),
(399,385,c)
);
}
);
width = 587;
}
);
leftKerningGroup = _kern1;
},
{
color = (154, 153, 255, 255);
glyphname = a.4;
leftMetricsKey = a;
layers = (
{
layerId = "A01EDA77-E91F-4F54-AC7E-74E4C922CA36";
shapes = (
{
closed = 1;
nodes = (
(395,364,l),
(411,439,o),
(380,500,o),
(291,500,cs),
(127,500,o),
(27,319,o),
(27,154,cs),
(27,57,o),
(75,-9,o),
(166,-9,cs),
(263,-9,o),
(345,70,o),
(373,219,c),
(366,219,l),
(338,66,o),
(258,15,o),
(197,15,cs),
(125,15,o),
(103,87,o),
(103,160,cs),
(103,295,o),
(162,488,o),
(305,488,cs),
(388,488,o),
(401,407,o),
(391,355,c)
);
},
{
closed = 1;
nodes = (
(488,487,l),
(418,487,l),
(393,367,l),
(357,172,ls),
(289,-195,o),
(598,-414,o),
(924,-414,cs),
(1303,-414,o),
(1647,-125,o),
(1647,266,cs),
(1647,575,o),
(1409,817,o),
(1092,817,cs),
(934,817,o),
(785,757,o),
(668,659,c),
(672,655,l),
(788,752,o),
(938,811,o),
(1093,811,cs),
(1406,811,o),
(1641,572,o),
(1641,266,cs),
(1641,-112,o),
(1307,-405,o),
(935,-405,cs),
(655,-405,o),
(365,-222,o),
(428,142,cs)
);
}
);
width = 509;
},
{
layerId = "F3B99A47-B03A-4C9D-AB53-5F3A31A2DF8F";
shapes = (
{
closed = 1;
nodes = (
(407,398,l),
(420,484,o),
(380,500,o),
(333,500,cs),
(189,500,o),
(64,378,o),
(43,220,cs),
(25,79,o),
(78,-9,o),
(189,-9,cs),
(277,-9,o),
(347,51,o),
(375,213,c),
(368,213,l),
(348,94,o),
(309,71,o),
(284,71,cs),
(231,71,o),
(244,180,o),
(258,261,cs),
(273,349,o),
(304,482,o),
(369,482,cs),
(400,482,o),
(406,426,o),
(399,385,c)
);
},
{
closed = 1;
nodes = (
(606,487,l),
(427,487,l),
(404,417,l),
(357,149,ls),
(293,-215,o),
(608,-389,o),
(951,-389,cs),
(1299,-389,o),
(1598,-88,o),
(1598,255,cs),
(1598,554,o),
(1367,789,o),
(1060,789,cs),
(907,789,o),
(783,742,o),
(665,636,c),
(670,631,l),
(787,737,o),
(910,783,o),
(1060,783,cs),
(1363,783,o),
(1592,551,o),
(1592,255,cs),
(1592,-85,o),
(1294,-383,o),
(951,-383,cs),
(716,-383,o),
(473,-269,o),
(536,88,cs)
);
}
);
width = 593;
}
);
leftKerningGroup = _kern1;
},
{
color = (154, 153, 255, 255);
glyphname = a.9;
leftMetricsKey = a;
layers = (
{
layerId = "A01EDA77-E91F-4F54-AC7E-74E4C922CA36";
shapes = (
{
closed = 1;
nodes = (
(395,364,l),
(411,439,o),
(380,500,o),
(291,500,cs),
(127,500,o),
(27,319,o),
(27,154,cs),
(27,57,o),
(75,-9,o),
(166,-9,cs),
(263,-9,o),
(346,72,o),
(374,221,c),
(367,221,l),
(339,68,o),
(258,15,o),
(197,15,cs),
(125,15,o),
(103,87,o),
(103,160,cs),
(103,295,o),
(162,488,o),
(305,488,cs),
(388,488,o),
(401,407,o),
(391,355,c)
);
},
{
closed = 1;
nodes = (
(488,487,l),
(418,487,l),
(393,367,l),
(367,221,l),
(361,188,ls),
(330,12,o),
(410,-93,o),
(566,-93,cs),
(714,-93,o),
(807,26,o),
(807,120,cs),
(807,164,o),
(786,198,o),
(745,198,cs),
(710,198,o),
(682,172,o),
(682,143,cs),
(682,119,o),
(700,98,o),
(730,98,cs),
(755,98,o),
(778,112,o),
(788,131,c),
(790,123,o),
(791,115,o),
(791,105,cs),
(791,6,o),
(695,-75,o),
(599,-75,cs),
(496,-75,o),
(395,-31,o),
(434,185,cs)
);
}
);
width = 827;
},
{
layerId = "F3B99A47-B03A-4C9D-AB53-5F3A31A2DF8F";
shapes = (
{
closed = 1;
nodes = (
(407,398,l),
(420,484,o),
(393,500,o),
(333,500,cs),
(189,500,o),
(63,378,o),
(43,220,cs),
(24,79,o),
(78,-9,o),
(189,-9,cs),
(277,-9,o),
(348,54,o),
(376,216,c),
(369,216,l),
(349,97,o),
(309,71,o),
(284,71,cs),
(231,71,o),
(244,180,o),
(258,261,cs),
(273,349,o),
(304,482,o),
(369,482,cs),
(411,482,o),
(406,426,o),
(399,385,c)
);
},
{
closed = 1;
nodes = (
(606,487,l),
(427,487,l),
(404,417,l),
(369,216,l),
(369,216,l),
(310,-28,o),
(470,-111,o),
(620,-111,cs),
(774,-111,o),
(895,-10,o),
(904,137,cs),
(908,205,o),
(869,263,o),
(800,263,cs),
(745,263,o),
(702,225,o),
(698,179,cs),
(694,135,o),
(725,95,o),
(779,94,cs),
(822,93,o),
(852,118,o),
(873,151,c),
(877,127,o),
(876,107,o),
(871,84,cs),
(851,-7,o),
(796,-84,o),
(670,-84,cs),
(577,-84,o),
(525,13,o),
(548,160,cs)
);
}
);
width = 916;
}
);
leftKerningGroup = _kern1;
},
{
color = (255, 153, 153, 255);
glyphname = b;
layers = (
{
background = {
shapes = (
{
closed = 1;
nodes = (
(124,151,l),
(101,50,o),
(143,-9,o),
(221,-9,cs),
(375,-9,o),
(475,165,o),
(475,321,cs),
(475,429,o),
(428,500,o),
(340,500,cs),
(248,500,o),
(167,407,o),
(140,260,c),
(146,260,l),
(173,411,o),
(253,476,o),
(311,476,cs),
(380,476,o),
(401,404,o),
(401,331,cs),
(401,196,o),
(342,3,o),
(208,3,cs),
(135,3,o),
(112,78,o),
(128,160,c)
);
}
);
};
hints = (
{
horizontal = 1;
place = (-6,21);
target = up;
type = BottomGhost;
},
{
horizontal = 1;
place = (736,-20);
target = down;
type = TopGhost;
},
{
place = (129,207);
type = Stem;
},
{
place = (455,201);
type = Stem;
}
);
layerId = "A01EDA77-E91F-4F54-AC7E-74E4C922CA36";
rightMetricsKey = o;
shapes = (
{
closed = 1;
nodes = (
(35,-14,o),
(41,52,o),
(79,52,cs),
(113,52,o),
(121,-9,o),
(208,-9,cs),
(383,-9,o),
(477,158,o),
(477,314,cs),
(477,410,o),
(435,500,o),
(327,500,cs),
(238,500,o),
(182,416,o),
(160,354,cs),
(155,341,o),
(156,349,o),
(158,359,cs),
(232,766,l),
(82,734,l),
(81,729,l),
(134,729,o),
(156,721,o),
(149,679,cs),
(28,-9,ls),
(27,-13,o),
(28,-14,o),
(30,-14,c)
);
},
{
closed = 1;
nodes = (
(150,284,ls),
(165,368,o),
(220,486,o),
(319,486,cs),
(389,486,o),
(405,415,o),
(405,344,cs),
(405,230,o),
(363,-1,o),
(214,-1,cs),
(140,-1,o),
(107,42,o),
(125,144,cs)
);
}
);
width = 497;
},
{
hints = (
{
horizontal = 1;
place = (-6,21);
target = up;
type = BottomGhost;
},
{
horizontal = 1;
place = (736,-20);
target = down;
type = TopGhost;
},
{
place = (45,207);
type = Stem;
},
{
place = (371,201);
type = Stem;
}
);
layerId = "F3B99A47-B03A-4C9D-AB53-5F3A31A2DF8F";
shapes = (
{
closed = 1;
nodes = (
(45,-14,o),
(51,50,o),
(110,50,cs),
(176,50,o),
(211,-8,o),
(301,-8,cs),
(417,-8,o),
(575,44,o),
(611,253,cs),
(635,389,o),
(563,500,o),
(448,500,cs),
(371,500,o),
(324,447,o),
(300,368,cs),
(299,364,o),
(296,361,o),
(294,361,c),
(358,721,l),
(82,689,l),
(81,682,l),
(137,682,o),
(158,686,o),
(149,634,cs),
(37,-9,l),
(35,-13,o),
(37,-14,o),
(39,-14,c)
);
},
{
closed = 1;
nodes = (
(286,285,ls),
(297,344,o),
(340,468,o),
(390,468,cs),
(434,468,o),
(435,415,o),
(407,246,cs),
(370,32,o),
(346,1,o),
(297,1,cs),
(255,1,o),
(244,47,o),
(256,111,cs)
);
}
);
width = 600;
}
);
rightKerningGroup = o;
unicode = 98;
},
{
color = (154, 153, 255, 255);
glyphname = b.6;
leftMetricsKey = b;
layers = (
{
layerId = "A01EDA77-E91F-4F54-AC7E-74E4C922CA36";
shapes = (
{
closed = 1;
nodes = (
(87,331,l),
(28,-9,ls),
(27,-13,o),
(28,-14,o),
(30,-14,c),
(35,-14,o),
(41,52,o),
(79,52,cs),
(113,52,o),
(125,-8,o),
(223,-8,cs),
(397,-8,o),
(496,155,o),
(496,308,cs),
(496,420,o),
(447,500,o),
(333,500,cs),
(244,500,o),
(184,415,o),
(161,353,cs),
(159,348,o),
(157,347,o),
(157,347,cs),
(156,347,o),
(157,353,o),
(158,359,c)
);
},
{
closed = 1;
nodes = (
(150,284,ls),
(165,368,o),
(223,486,o),
(318,486,cs),
(403,486,o),
(424,421,o),
(424,352,cs),
(424,228,o),
(380,0,o),
(229,0,cs),
(142,0,o),
(107,43,o),
(125,144,cs)
);
},
{
closed = 1;
nodes = (
(152,324,l),
(176,457,ls),
(241,815,o),
(523,948,o),
(747,948,cs),
(1117,948,o),
(1319,695,o),
(1319,391,cs),
(1319,37,o),
(1070,-382,o),
(585,-382,cs),
(415,-382,o),
(241,-332,o),
(155,-227,c),
(149,-231,l),
(238,-339,o),
(414,-388,o),
(586,-388,cs),
(1072,-388,o),
(1325,35,o),
(1325,391,cs),
(1325,700,o),
(1120,957,o),
(735,957,cs),
(478,957,o),
(166,788,o),
(96,383,cs),
(87,331,l)
);
}
);
width = 518;
},
{
layerId = "F3B99A47-B03A-4C9D-AB53-5F3A31A2DF8F";
shapes = (
{
closed = 1;
nodes = (
(86,263,l),
(37,-9,ls),
(36,-13,o),
(37,-14,o),
(39,-14,c),
(45,-14,o),
(51,50,o),
(110,50,cs),
(166,50,o),
(178,-8,o),
(299,-8,cs),
(417,-8,o),
(575,44,o),
(611,253,cs),
(635,389,o),
(563,500,o),
(448,500,cs),
(371,500,o),
(324,447,o),
(300,368,cs),
(299,364,o),
(296,361,o),
(295,361,c),
(294,361,o),
(293,364,o),
(293,368,c)
);
},
{
closed = 1;
nodes = (
(286,285,ls),
(296,344,o),
(340,468,o),
(390,468,cs),
(434,468,o),
(436,415,o),
(407,246,cs),
(371,32,o),
(346,1,o),
(297,1,cs),
(255,1,o),
(245,47,o),
(256,111,cs)
);
},
{
closed = 1;
nodes = (
(286,324,l),
(310,457,ls),
(375,815,o),
(630,948,o),
(854,948,cs),
(1253,948,o),
(1452,656,o),
(1452,348,cs),
(1452,-6,o),
(1204,-382,o),
(719,-382,cs),
(549,-382,o),
(375,-332,o),
(289,-227,c),
(283,-231,l),
(372,-339,o),
(548,-388,o),
(720,-388,cs),
(1206,-388,o),
(1458,-8,o),
(1458,348,cs),
(1458,661,o),
(1257,957,o),
(842,957,cs),
(533,957,o),
(174,790,o),
(106,383,cs),
(86,263,l)
);
}
);
width = 600;
}
);
rightKerningGroup = o;
},
{
color = (255, 153, 153, 255);
glyphname = c;
layers = (
{
anchors = (
{
name = top;
position = "{298, 577}";
},
{
name = bottom;
position = "{221, -84}";
}
);
background = {
shapes = (
{
closed = 1;
nodes = (
(410,487,l),
(383,353,l),
(337,101,ls),
(324,32,o),
(344,-9,o),
(391,-9,cs),
(455,-9,o),
(497,51,o),
(522,102,c),
(518,109,l),
(486,43,o),
(453,18,o),
(435,18,cs),
(404,18,o),
(404,54,o),
(413,106,cs),
(480,487,l)
);
},
{
closed = 1;
nodes = (
(383,340,l),
(404,435,o),
(371,500,o),
(287,500,cs),
(128,500,o),
(30,319,o),
(30,154,cs),
(30,57,o),
(78,-9,o),
(167,-9,cs),
(259,-9,o),
(340,84,o),
(367,231,c),
(361,231,l),
(334,80,o),
(254,15,o),
(196,15,cs),
(127,15,o),
(106,87,o),
(106,160,cs),
(106,295,o),
(163,488,o),
(301,488,cs),
(379,488,o),
(394,401,o),
(379,331,c)
);
}
);
};
hints = (
{
horizontal = 1;
place = (-5,36);
type = Stem;
},
{
horizontal = 1;
place = (255,213);
type = Stem;
},
{
place = (-63,197);
type = Stem;
},
{
place = (226,200);
type = Stem;
},
{
place = (275,151);
type = Stem;
}
);
layerId = "A01EDA77-E91F-4F54-AC7E-74E4C922CA36";
leftMetricsKey = a;
rightMetricsKey = e;
shapes = (
{
closed = 1;
nodes = (
(126,500,o),
(27,343,o),
(27,184,cs),
(27,60,o),
(88,-9,o),
(186,-9,cs),
(265,-9,o),
(335,35,o),
(387,121,c),
(379,124,l),
(342,65,o),
(291,32,o),
(231,32,cs),
(138,32,o),
(103,95,o),
(103,185,cs),
(103,302,o),
(157,490,o),
(292,490,cs),
(333,490,o),
(354,471,o),
(358,449,c),
(341,432,o),
(330,407,o),
(326,386,cs),
(320,356,o),
(332,331,o),
(359,331,cs),
(395,331,o),
(414,373,o),
(414,405,cs),
(414,464,o),
(358,500,o),
(289,500,cs)
);
}
);
width = 421;
},
{
anchors = (
{
name = top;
position = "{379, 577}";
},
{
name = bottom;
position = "{279, -84}";
}
);
hints = (
{
horizontal = 1;
place = (-5,36);
type = Stem;
},
{
horizontal = 1;
place = (255,213);
type = Stem;
},
{
place = (38,197);
type = Stem;
},
{
place = (327,200);
type = Stem;
},
{
place = (376,151);
type = Stem;
}
);
layerId = "F3B99A47-B03A-4C9D-AB53-5F3A31A2DF8F";
leftMetricsKey = e;
shapes = (
{
closed = 1;
nodes = (
(167,500,o),
(39,381,o),
(39,193,cs),
(39,60,o),
(126,-9,o),
(255,-9,cs),
(357,-9,o),
(447,45,o),
(510,142,c),
(504,144,l),
(462,86,o),
(390,51,o),
(340,51,cs),
(269,51,o),
(244,97,o),
(244,172,cs),
(244,254,o),
(278,490,o),
(366,490,cs),
(396,490,o),
(408,470,o),
(408,449,c),
(380,423,o),
(361,386,o),
(356,354,cs),
(347,304,o),
(366,263,o),
(418,263,cs),
(480,263,o),
(519,322,o),
(519,379,cs),
(519,452,o),
(449,500,o),
(354,500,cs)
);
}
);
width = 490;
}
);
leftKerningGroup = _kern2;
rightKerningGroup = _kern2;
unicode = 99;
},
{
color = (154, 153, 255, 255);
glyphname = c.4;
leftMetricsKey = c;
layers = (
{
layerId = "A01EDA77-E91F-4F54-AC7E-74E4C922CA36";
shapes = (
{
closed = 1;
nodes = (
(148,500,o),
(44,304,o),
(44,132,cs),
(44,-193,o),
(372,-331,o),
(614,-331,cs),
(1011,-331,o),
(1297,-15,o),
(1297,328,cs),
(1297,592,o),
(1092,803,o),
(806,803,cs),
(661,803,o),
(528,749,o),
(422,661,c),
(426,657,l),
(531,744,o),
(662,797,o),
(804,797,cs),
(1084,797,o),
(1291,593,o),
(1291,328,cs),
(1291,-17,o),
(998,-313,o),
(651,-313,cs),
(408,-313,o),
(124,-193,o),
(124,148,cs),
(124,288,o),
(183,490,o),
(333,490,cs),
(375,490,o),
(399,471,o),
(403,449,c),
(386,432,o),
(373,407,o),
(370,386,cs),
(365,356,o),
(376,331,o),
(404,331,cs),
(434,331,o),
(454,358,o),
(459,389,cs),
(471,457,o),
(407,500,o),
(329,500,cs)
);
}
);
width = 466;
},
{
layerId = "F3B99A47-B03A-4C9D-AB53-5F3A31A2DF8F";
shapes = (
{
closed = 1;
nodes = (
(150,500,o),
(39,340,o),
(39,141,cs),
(39,-161,o),
(345,-306,o),
(614,-306,cs),
(1008,-306,o),
(1332,-20,o),
(1332,363,cs),
(1332,618,o),
(1101,834,o),
(828,834,cs),
(683,834,o),
(551,780,o),
(446,692,c),
(451,688,l),
(555,775,o),
(685,828,o),
(827,828,cs),
(1098,828,o),
(1326,616,o),
(1326,363,cs),
(1326,-8,o),
(1020,-282,o),
(642,-282,cs),
(434,-282,o),
(244,-170,o),
(244,157,cs),
(244,229,o),
(278,492,o),
(356,492,cs),
(383,492,o),
(394,471,o),
(394,449,c),
(366,423,o),
(347,386,o),
(342,354,cs),
(333,304,o),
(352,263,o),
(404,263,cs),
(466,263,o),
(505,322,o),
(505,379,cs),
(505,452,o),
(435,500,o),
(340,500,cs)
);
}
);
width = 483;
}
);
leftKerningGroup = _kern2;
rightKerningGroup = _kern2;
},
{
color = (255, 153, 153, 255);
glyphname = d;
leftMetricsKey = a;
layers = (
{
hints = (
{
horizontal = 1;
place = (-6,43);
type = Stem;
},
{
horizontal = 1;
place = (736,-20);
target = down;
type = TopGhost;
},
{
place = (99,213);
type = Stem;
},
{
place = (429,198);
type = Stem;
}
);
layerId = "A01EDA77-E91F-4F54-AC7E-74E4C922CA36";
rightMetricsKey = l;
shapes = (
{
closed = 1;
nodes = (
(446,-9,o),
(489,51,o),
(514,102,c),
(510,109,l),
(479,43,o),
(445,18,o),
(423,18,cs),
(396,18,o),
(397,54,o),
(406,106,cs),
(524,766,l),
(373,734,l),
(372,729,l),
(409,729,o),
(450,731,o),
(440,679,cs),
(334,101,ls),
(321,32,o),
(342,-9,o),
(389,-9,cs)
);
},
{
closed = 1;
nodes = (
(380,340,l),
(403,441,o),
(361,500,o),
(283,500,cs),
(127,500,o),
(27,326,o),
(27,172,cs),
(27,62,o),
(78,-9,o),
(163,-9,cs),
(262,-9,o),
(339,84,o),
(364,231,c),
(358,231,l),
(333,80,o),
(259,15,o),
(195,15,cs),
(127,15,o),
(103,87,o),
(103,168,cs),
(103,295,o),
(162,488,o),
(296,488,cs),
(369,488,o),
(392,413,o),
(376,331,c)
);
}
);
width = 529;
},
{
hints = (
{
horizontal = 1;
place = (-6,43);
type = Stem;
},
{
horizontal = 1;
place = (736,-20);
target = down;
type = TopGhost;
},
{
place = (2,213);
type = Stem;
},
{
place = (332,198);
type = Stem;
}
);
layerId = "F3B99A47-B03A-4C9D-AB53-5F3A31A2DF8F";
shapes = (
{
closed = 1;
nodes = (
(552.423,-9,o),
(607.191,81,o),
(627.725,124,c),
(623.951,131,l),
(606.994,97,o),
(572.183,41,o),
(550.709,44,cs),
(537.059,46,o),
(536.512,60,o),
(543.571,106,c),
(651.319,721,l),
(375.713,689,l),
(374.486,682,l),
(430.486,682,o),
(452.187,686,o),
(443.077,634,cs),
(353.199,121,ls),
(338.482,37,o),
(372.423,-9,o),
(464.423,-9,cs)
);
},
{
closed = 1;
nodes = (
(408.73,398,l),
(421.797,484,o),
(380.6,500,o),
(333.6,500,cs),
(189.6,500,o),
(64.226,378,o),
(43.544,220,cs),
(24.841,79,o),
(78.423,-9,o),
(189.423,-9,cs),
(277.423,-9,o),
(347.935,51,o),
(376.318,213,c),
(369.318,213,l),
(348.469,94,o),
(309.439,71,o),
(284.439,71,cs),
(231.439,71,o),
(244.536,180,o),
(258.727,261,cs),
(274.145,349,o),
(304.446,482,o),
(369.446,482,cs),
(400.446,482,o),
(407.635,426,o),
(400.452,385,c)
);
}
);
width = 611;
}
);
leftKerningGroup = _kern1;
unicode = 100;
},
{
color = (154, 153, 255, 255);
glyphname = d.5;
layers = (
{
hints = (
{
horizontal = 1;
place = (-6,43);
type = Stem;
},
{
horizontal = 1;
place = (736,-20);
target = down;
type = TopGhost;
},
{
place = (-14,213);
type = Stem;
},
{
place = (316,198);
type = Stem;
}
);
layerId = "A01EDA77-E91F-4F54-AC7E-74E4C922CA36";
leftMetricsKey = d;
shapes = (
{
closed = 1;
nodes = (
(379,340,l),
(402,441,o),
(359,500,o),
(281,500,cs),
(127,500,o),
(27,326,o),
(27,170,cs),
(27,62,o),
(75,-9,o),
(163,-9,cs),
(255,-9,o),
(335,84,o),
(363,231,c),
(357,231,l),
(329,80,o),
(249,15,o),
(191,15,cs),
(122,15,o),
(101,87,o),
(101,160,cs),
(101,295,o),
(160,488,o),
(294,488,cs),
(367,488,o),
(392,413,o),
(375,331,c)
);
},
{
closed = 1;
nodes = (
(520,766,l),
(370,734,l),
(369,729,l),
(406,729,o),
(446,731,o),
(437,679,cs),
(355,219,l),
(329,69,ls),
(298,-108,o),
(369,-230,o),
(527,-230,cs),
(603,-230,o),
(689,-202,o),
(726,-139,c),
(722,-134,l),
(689,-191,o),
(608,-221,o),
(544,-221,cs),
(435,-221,o),
(359,-144,o),
(390,31,cs)
);
}
);
width = 505;
},
{
hints = (
{
horizontal = 1;
place = (-6,43);
type = Stem;
},
{
horizontal = 1;
place = (736,-20);
target = down;
type = TopGhost;
},
{
place = (20,213);
type = Stem;
},
{
place = (350,198);
type = Stem;
}
);
layerId = "F3B99A47-B03A-4C9D-AB53-5F3A31A2DF8F";
leftMetricsKey = a;
shapes = (
{
closed = 1;
nodes = (
(407.73,398,l),
(420.797,484,o),
(380.6,500,o),
(333.6,500,cs),
(189.6,500,o),
(64.226,378,o),
(43.544,220,cs),
(24.841,79,o),
(78.423,-9,o),
(189.423,-9,cs),
(277.423,-9,o),
(347.935,51,o),
(376.318,213,c),
(369.318,213,l),
(348.469,94,o),
(309.439,71,o),
(284.439,71,cs),
(231.439,71,o),
(244.536,180,o),
(258.727,261,cs),
(274.145,349,o),
(304.446,482,o),
(369.446,482,cs),
(400.446,482,o),
(406.635,426,o),
(399.452,385,c)
);
},
{
closed = 1;
nodes = (
(651.319,721,l),
(375.713,689,l),
(374.486,682,l),
(430.486,682,o),
(452.187,686,o),
(443.077,634,cs),
(369.318,213,l),
(352.199,121,ls),
(328.598,-8,o),
(349.127,-239,o),
(652.127,-239,cs),
(740.127,-239,o),
(839.558,-208,o),
(881.647,-139,c),
(877.523,-134,l),
(844.362,-192,o),
(763.106,-222,o),
(698.106,-222,cs),
(592.106,-222,o),
(498.07,-148,o),
(529.606,32,cs)
);
}
);
width = 603;
}
);
},
{
color = (154, 153, 255, 255);
glyphname = d.4;
layers = (
{
layerId = "A01EDA77-E91F-4F54-AC7E-74E4C922CA36";
leftMetricsKey = d;
shapes = (
{
closed = 1;
nodes = (
(1294,-414,o),
(1638,-125,o),
(1638,266,cs),
(1638,575,o),
(1400,817,o),
(1083,817,cs),
(925,817,o),
(776,757,o),
(659,659,c),
(663,655,l),
(779,752,o),
(929,811,o),
(1084,811,cs),
(1397,811,o),
(1632,572,o),
(1632,266,cs),
(1632,-112,o),
(1298,-405,o),
(926,-405,cs),
(646,-405,o),
(345,-222,o),
(410,142,cs),
(521,766,l),
(371,734,l),
(370,729,l),
(407,729,o),
(447,731,o),
(438,679,cs),
(356,219,l),
(342,137,ls),
(279,-231,o),
(589,-414,o),
(915,-414,cs)
);
},
{
closed = 1;
nodes = (
(379,340,l),
(402,441,o),
(359,500,o),
(281,500,cs),
(127,500,o),
(27,326,o),
(27,170,cs),
(27,62,o),
(75,-9,o),
(163,-9,cs),
(255,-9,o),
(335,84,o),
(363,231,c),
(357,231,l),
(329,80,o),
(249,15,o),
(191,15,cs),
(122,15,o),
(101,87,o),
(101,160,cs),
(101,295,o),
(160,488,o),
(294,488,cs),
(367,488,o),
(392,413,o),
(375,331,c)
);
}
);
width = 498;
},
{
layerId = "F3B99A47-B03A-4C9D-AB53-5F3A31A2DF8F";
shapes = (
{
closed = 1;
nodes = (
(1321,-413,o),
(1647,-136,o),
(1707,207,cs),
(1767,544,o),
(1541,817,o),
(1204,817,cs),
(1046,817,o),
(892,757,o),
(767,659,c),
(771,655,l),
(895,752,o),
(1049,811,o),
(1204,811,cs),
(1537,811,o),
(1759,540,o),
(1701,207,cs),
(1643,-126,o),
(1324,-397,o),
(991,-397,cs),
(720,-397,o),
(503,-231,o),
(567,138,cs),
(670,721,l),
(394,689,l),
(393,682,l),
(449,682,o),
(470,686,o),
(461,634,cs),
(388,213,l),
(380,173,ls),
(307,-190,o),
(598,-413,o),
(978,-413,cs)
);
},
{
closed = 1;
nodes = (
(430,419,l),
(443,490,o),
(394,500,o),
(351,500,cs),
(205,500,o),
(87,385,o),
(60,227,cs),
(36,88,o),
(95,-9,o),
(208,-9,cs),
(296,-9,o),
(367,51,o),
(395,213,c),
(388,213,l),
(365,82,o),
(320,57,o),
(297,57,cs),
(246,57,o),
(261,174,o),
(275,251,cs),
(292,348,o),
(323,479,o),
(389,479,cs),
(420,479,o),
(427,450,o),
(422,410,c)
);
}
);
width = 611;
}
);
},
{
color = (154, 153, 255, 255);
glyphname = d.9;
leftMetricsKey = d;
layers = (
{
layerId = "A01EDA77-E91F-4F54-AC7E-74E4C922CA36";
shapes = (
{
closed = 1;
nodes = (
(703,-94,o),
(796,25,o),
(796,119,cs),
(796,163,o),
(775,197,o),
(734,197,cs),
(699,197,o),
(671,171,o),
(671,142,cs),
(671,118,o),
(689,97,o),
(719,97,cs),
(744,97,o),
(767,111,o),
(777,130,c),
(779,122,o),
(780,114,o),
(780,104,cs),
(780,5,o),
(684,-76,o),
(588,-76,cs),
(485,-76,o),
(382,-29,o),
(420,187,cs),
(523,766,l),
(373,734,l),
(372,729,l),
(409,729,o),
(446,731,o),
(437,679,cs),
(355,219,ls),
(324,43,o),
(399,-94,o),
(555,-94,cs)
);
},
{
closed = 1;
nodes = (
(379,340,l),
(402,441,o),
(359,500,o),
(281,500,cs),
(127,500,o),
(27,326,o),
(27,170,cs),
(27,62,o),
(75,-9,o),
(163,-9,cs),
(255,-9,o),
(335,84,o),
(363,231,c),
(357,231,l),
(329,80,o),
(249,15,o),
(191,15,cs),
(122,15,o),
(101,87,o),
(101,160,cs),
(101,295,o),
(160,488,o),
(294,488,cs),
(367,488,o),
(392,413,o),
(375,331,c)
);
}
);
width = 816;
},
{
layerId = "F3B99A47-B03A-4C9D-AB53-5F3A31A2DF8F";
shapes = (
{
closed = 1;
nodes = (
(782,-111,o),
(903,-10,o),
(912,137,cs),
(916,205,o),
(877,263,o),
(808,263,cs),
(753,263,o),
(710,225,o),
(706,179,cs),
(702,135,o),
(733,95,o),
(787,94,cs),
(830,93,o),
(860,118,o),
(881,151,c),
(885,127,o),
(884,107,o),
(879,84,cs),
(859,-7,o),
(804,-84,o),
(678,-84,cs),
(585,-84,o),
(530,13,o),
(556,160,cs),
(655,721,l),
(379,689,l),
(378,682,l),
(434,682,o),
(455,686,o),
(446,634,cs),
(373,213,l),
(352,10,o),
(402,-111,o),
(628,-111,cs)
);
},
{
closed = 1;
nodes = (
(416,419,l),
(429,490,o),
(379,500,o),
(336,500,cs),
(190,500,o),
(72,385,o),
(45,227,cs),
(21,88,o),
(80,-9,o),
(193,-9,cs),
(281,-9,o),
(352,51,o),
(380,213,c),
(373,213,l),
(350,82,o),
(305,57,o),
(282,57,cs),
(231,57,o),
(246,174,o),
(260,251,cs),
(277,348,o),
(308,479,o),
(374,479,cs),
(405,479,o),
(413,450,o),
(408,410,c)
);
}
);
width = 946;
}
);
},
{
color = (255, 153, 153, 255);
glyphname = e;
layers = (
{
anchors = (
{
name = top;
position = "{286, 577}";
},
{
name = bottom;
position = "{174, -77}";
}
);
background = {
shapes = (
{
closed = 1;
nodes = (
(122,500,o),
(23,343,o),
(23,184,cs),
(23,60,o),
(84,-9,o),
(182,-9,cs),
(261,-9,o),
(331,35,o),
(383,121,c),
(375,124,l),
(338,65,o),
(287,32,o),
(227,32,cs),
(134,32,o),
(99,95,o),
(99,185,cs),
(99,302,o),
(153,490,o),
(288,490,cs),
(329,490,o),
(350,471,o),
(354,449,c),
(337,432,o),
(326,407,o),
(322,386,cs),
(316,356,o),
(328,331,o),
(355,331,cs),
(391,331,o),
(410,373,o),
(410,405,cs),
(410,464,o),
(354,500,o),
(285,500,cs)
);
}
);
};
guides = (
{
position = "{0, -77}";
}
);
hints = (
{
horizontal = 1;
place = (-5,27);
type = Stem;
},
{
horizontal = 1;
place = (468,-20);
target = down;
type = TopGhost;
},
{
place = (-76,253);
type = Stem;
},
{
place = (246,220);
type = Stem;
}
);
layerId = "A01EDA77-E91F-4F54-AC7E-74E4C922CA36";
leftMetricsKey = o;
shapes = (
{
closed = 1;
nodes = (
(381,124,l),
(337,61,o),
(282,26,o),
(218,26,cs),
(128,26,o),
(98,91,o),
(98,190,cs),
(98,302,o),
(158,491,o),
(288,491,cs),
(334,491,o),
(353,468,o),
(353,429,cs),
(353,308,o),
(169,231,o),
(86,205,c),
(86,195,l),
(126,215,o),
(243,236,o),
(308,268,cs),
(362,294,o),
(415,339,o),
(415,402,cs),
(415,469,o),
(356,500,o),
(291,500,cs),
(144,500,o),
(23,339,o),
(23,182,cs),
(23,64,o),
(82,-9,o),
(180,-9,cs),
(258,-9,o),
(328,33,o),
(385,117,c)
);
}
);
width = 422;
},
{
anchors = (
{
name = top;
position = "{366, 577}";
},
{
name = bottom;
position = "{230, -77}";
}
);
guides = (
{
position = "{0, -77}";
}
);
hints = (
{
horizontal = 1;
place = (-5,27);
type = Stem;
},
{
horizontal = 1;
place = (468,-20);
target = down;
type = TopGhost;
},
{
place = (4,203);
type = Stem;
},
{
place = (326,170);
type = Stem;
}
);
layerId = "F3B99A47-B03A-4C9D-AB53-5F3A31A2DF8F";
leftMetricsKey = a;
shapes = (
{
closed = 1;
nodes = (
(504.229,144,l),
(462.067,86,o),
(389.935,51,o),
(339.935,51,cs),
(241.935,51,o),
(231.353,139,o),
(254.479,271,cs),
(286.366,453,o),
(323.848,490,o),
(365.848,490,cs),
(392.848,490,o),
(409.293,464,o),
(400.883,416,cs),
(384.239,321,o),
(293.843,216,o),
(214.412,185,c),
(180.331,156,l),
(228.514,197,o),
(331.42,225,o),
(413.326,253,cs),
(471.83,273,o),
(523.487,311,o),
(533.298,367,cs),
(548.891,456,o),
(467.6,500,o),
(354.6,500,cs),
(203.6,500,o),
(69.934,422,o),
(42.749,244,cs),
(21.49,77,o),
(111.423,-9,o),
(255.423,-9,cs),
(357.423,-9,o),
(446.884,45,o),
(509.878,142,c)
);
}
);
width = 500;
}
);
leftKerningGroup = _kern2;
rightKerningGroup = _kern2;
unicode = 101;
},
{
color = (154, 153, 255, 255);
glyphname = e.55;
layers = (
{
layerId = "A01EDA77-E91F-4F54-AC7E-74E4C922CA36";
leftMetricsKey = o;
shapes = (
{
closed = 1;
nodes = (
(518,641,l),
(555,634,o),
(587,594,o),
(587,541,cs),
(587,439,o),
(480,312,o),
(217,242,c),
(217,236,l),
(483,306,o),
(593,436,o),
(593,542,cs),
(593,598,o),
(560,638,o),
(522,646,c)
);
},
{
closed = 1;
nodes = (
(381,124,l),
(337,61,o),
(282,26,o),
(218,26,cs),
(128,26,o),
(98,91,o),
(98,190,cs),
(98,302,o),
(158,491,o),
(288,491,cs),
(334,491,o),
(353,468,o),
(353,429,cs),
(353,308,o),
(169,231,o),
(86,205,c),
(86,195,l),
(126,215,o),
(243,236,o),
(308,268,cs),
(362,294,o),
(415,339,o),
(415,402,cs),
(415,469,o),
(356,500,o),
(291,500,cs),
(144,500,o),
(23,339,o),
(23,182,cs),
(23,64,o),
(82,-9,o),
(180,-9,cs),
(258,-9,o),
(328,33,o),
(385,117,c)
);
}
);
width = 422;
},
{
layerId = "F3B99A47-B03A-4C9D-AB53-5F3A31A2DF8F";
leftMetricsKey = a;
shapes = (
{
closed = 1;
nodes = (
(619,650,l),
(656,643,o),
(686,594,o),
(686,541,cs),
(686,439,o),
(578,313,o),
(396,253,c),
(396,247,l),
(581,307,o),
(692,436,o),
(692,542,cs),
(692,598,o),
(661,647,o),
(623,655,c)
);
},
{
closed = 1;
nodes = (
(505,144,l),
(462,86,o),
(390,51,o),
(340,51,cs),
(242,51,o),
(232,139,o),
(255,271,cs),
(287,453,o),
(324,490,o),
(366,490,cs),
(393,490,o),
(410,464,o),
(401,416,cs),
(385,321,o),
(294,216,o),
(215,185,c),
(181,156,l),
(229,197,o),
(332,225,o),
(414,253,cs),
(472,273,o),
(524,311,o),
(534,367,cs),
(549,456,o),
(468,500,o),
(355,500,cs),
(204,500,o),
(70,422,o),
(43,244,c),
(22,77,o),
(112,-9,o),
(256,-9,cs),
(358,-9,o),
(447,45,o),
(510,142,c)
);
}
);
width = 496;
}
);
leftKerningGroup = _kern2;
rightKerningGroup = _kern2;
},
{
color = (154, 153, 255, 255);
glyphname = e.4;
leftMetricsKey = e;
layers = (
{
background = {
shapes = (
{
closed = 1;
nodes = (
(381,124,l),
(337,61,o),
(282,26,o),
(218,26,cs),
(128,26,o),
(98,91,o),
(98,190,cs),
(98,302,o),
(158,491,o),
(288,491,cs),
(334,491,o),
(353,468,o),
(353,429,cs),
(353,308,o),
(169,231,o),
(86,205,c),
(86,195,l),
(126,215,o),
(243,236,o),
(308,268,cs),
(362,294,o),
(415,339,o),
(415,402,cs),
(415,469,o),
(356,500,o),
(291,500,cs),
(144,500,o),
(23,339,o),
(23,182,cs),
(23,64,o),
(82,-9,o),
(180,-9,cs),
(258,-9,o),
(328,33,o),
(385,117,c)
);
}
);
};
layerId = "A01EDA77-E91F-4F54-AC7E-74E4C922CA36";
shapes = (
{
closed = 1;
nodes = (
(22,-183,o),
(361,-331,o),
(595,-331,cs),
(992,-331,o),
(1278,-15,o),
(1278,328,cs),
(1278,592,o),
(1073,803,o),
(787,803,cs),
(642,803,o),
(509,749,o),
(403,661,c),
(404,660,o),
(406,658,o),
(407,657,c),
(512,744,o),
(643,797,o),
(785,797,cs),
(1065,797,o),
(1272,593,o),
(1272,328,cs),
(1272,-17,o),
(979,-313,o),
(632,-313,cs),
(397,-313,o),
(97,-190,o),
(97,152,cs),
(97,264,o),
(143,491,o),
(288,491,cs),
(334,491,o),
(353,468,o),
(353,429,cs),
(353,308,o),
(169,231,o),
(86,205,c),
(86,203,o),
(86,197,o),
(86,195,c),
(126,215,o),
(243,236,o),
(308,268,cs),
(362,294,o),
(415,339,o),
(415,402,cs),
(415,469,o),
(356,500,o),
(291,500,cs),
(117,500,o),
(22,298,o),
(22,149,cs)
);
}
);
width = 423;
},
{
layerId = "F3B99A47-B03A-4C9D-AB53-5F3A31A2DF8F";
shapes = (
{
closed = 1;
nodes = (
(39,-161,o),
(371,-306,o),
(640,-306,cs),
(1034,-306,o),
(1346,-20,o),
(1331,363,cs),
(1321,618,o),
(1081,834,o),
(808,834,cs),
(663,834,o),
(533,780,o),
(432,692,c),
(433,691,o),
(436,689,o),
(437,688,c),
(537,775,o),
(665,828,o),
(807,828,cs),
(1078,828,o),
(1315,616,o),
(1325,363,cs),
(1340,-8,o),
(1045,-282,o),
(667,-282,cs),
(459,-282,o),
(238,-170,o),
(244,157,cs),
(246,235,o),
(283,490,o),
(367,490,cs),
(394,490,o),
(408,464,o),
(400,416,cs),
(383,321,o),
(288,201,o),
(209,170,cs),
(200,167,o),
(167,134,o),
(175,141,cs),
(224,182,o),
(325,204,o),
(408,238,cs),
(465,260,o),
(523,311,o),
(533,367,cs),
(548,456,o),
(467,500,o),
(354,500,cs),
(160,500,o),
(39,326,o),
(39,141,cs)
);
}
);
width = 490;
}
);
leftKerningGroup = _kern2;
rightKerningGroup = _kern2;
},
{
color = (154, 153, 255, 255);
glyphname = e.9;
leftMetricsKey = e;
layers = (
{
layerId = "A01EDA77-E91F-4F54-AC7E-74E4C922CA36";
shapes = (
{
closed = 1;
nodes = (
(128,215,o),
(245,236,o),
(310,268,cs),
(364,294,o),
(417,339,o),
(417,402,cs),
(417,469,o),
(358,500,o),
(293,500,cs),
(127,500,o),
(23,325,o),
(23,170,cs),
(23,1,o),
(129,-97,o),
(295,-97,cs),
(431,-97,o),
(563,-18,o),
(568,117,cs),
(569,161,o),
(549,195,o),
(508,195,cs),
(473,195,o),
(444,169,o),
(443,140,cs),
(442,116,o),
(460,95,o),
(490,95,cs),
(515,95,o),
(538,109,o),
(549,128,c),
(551,120,o),
(551,112,o),
(551,102,c),
(548,4,o),
(448,-76,o),
(351,-76,cs),
(183,-76,o),
(98,7,o),
(98,181,cs),
(98,306,o),
(156,491,o),
(290,491,cs),
(336,491,o),
(355,468,o),
(355,429,cs),
(355,308,o),
(171,231,o),
(88,205,c),
(88,203,o),
(88,197,o),
(88,195,c)
);
}
);
width = 625;
},
{
layerId = "F3B99A47-B03A-4C9D-AB53-5F3A31A2DF8F";
shapes = (
{
closed = 1;
nodes = (
(224,182,o),
(325,205,o),
(408,238,cs),
(465,261,o),
(523,311,o),
(533,367,cs),
(548,456,o),
(467,500,o),
(354,500,cs),
(160,500,o),
(39,326,o),
(39,141,cs),
(39,11,o),
(138,-140,o),
(369,-140,cs),
(504,-140,o),
(689,-58,o),
(689,120,cs),
(689,184,o),
(651,237,o),
(585,237,cs),
(532,237,o),
(483,200,o),
(483,145,cs),
(483,105,o),
(513,69,o),
(564,68,cs),
(607,67,o),
(637,92,o),
(658,125,c),
(662,101,o),
(661,81,o),
(656,58,cs),
(631,-56,o),
(532,-113,o),
(438,-113,cs),
(302,-113,o),
(240,33,o),
(244,157,cs),
(246,235,o),
(283,490,o),
(367,490,cs),
(394,490,o),
(408,464,o),
(400,416,cs),
(383,321,o),
(288,201,o),
(209,170,c),
(206,167,o),
(180,145,o),
(175,141,c)
);
}
);
width = 753;
}
);
leftKerningGroup = _kern2;
rightKerningGroup = _kern2;
},
{
color = (255, 153, 153, 255);
glyphname = f;
layers = (
{
hints = (
{
horizontal = 1;
place = (-6,21);
target = up;
type = BottomGhost;
},
{
horizontal = 1;
place = (446,157);
type = Stem;
},
{
horizontal = 1;
place = (523,80);
type = Stem;
},
{
horizontal = 1;
place = (712,24);
type = Stem;
},
{
place = (-18,57);
type = Stem;
},
{
place = (-2,197);
type = Stem;
}
);
layerId = "A01EDA77-E91F-4F54-AC7E-74E4C922CA36";
shapes = (
{
closed = 1;
nodes = (
(46,-248,o),
(99,-63,o),
(127,107,cs),
(189,477,ls),
(227,702,o),
(290,729,o),
(343,729,cs),
(357,729,o),
(364,723,o),
(364,718,c),
(341,708,o),
(328,687,o),
(325,665,cs),
(320,636,o),
(330,609,o),
(364,609,cs),
(394,609,o),
(416,633,o),
(421,661,cs),
(427,700,o),
(401,736,o),
(333,736,cs),
(216,736,o),
(155,634,o),
(123,508,cs),
(62,265,o),
(63,-241,o),
(-117,-241,cs),
(-133,-241,o),
(-146,-238,o),
(-151,-227,c),
(-129,-217,o),
(-114,-194,o),
(-110,-172,cs),
(-104,-144,o),
(-117,-117,o),
(-151,-117,cs),
(-182,-117,o),
(-204,-141,o),
(-210,-172,cs),
(-217,-210,o),
(-189,-248,o),
(-117,-248,cs)
);
},
{
closed = 1;
nodes = (
(46,480,l),
(313,480,l),
(314,488,l),
(47,488,l)
);
}
);
width = 253;
},
{
hints = (
{
horizontal = 1;
place = (-6,21);
target = up;
type = BottomGhost;
},
{
horizontal = 1;
place = (446,157);
type = Stem;
},
{
horizontal = 1;
place = (523,80);
type = Stem;
},
{
horizontal = 1;
place = (712,24);
type = Stem;
},
{
place = (33,57);
type = Stem;
},
{
place = (49,197);
type = Stem;
}
);
layerId = "F3B99A47-B03A-4C9D-AB53-5F3A31A2DF8F";
shapes = (
{
closed = 1;
nodes = (
(101,-248,o),
(203,-160,o),
(243,65,cs),
(323,523,ls),
(345,648,o),
(376,727,o),
(429,727,cs),
(452,727,o),
(462,716,o),
(463,709,c),
(427,694,o),
(406,660,o),
(400,626,cs),
(392,582,o),
(410,538,o),
(463,538,cs),
(510,538,o),
(545,573,o),
(553,620,cs),
(563,680,o),
(521,737,o),
(405,737,cs),
(251,737,o),
(172,669,o),
(133,557,cs),
(45,303,o),
(78,-239,o),
(-85,-239,cs),
(-103,-239,o),
(-123,-232,o),
(-132,-215,c),
(-97,-200,o),
(-77,-164,o),
(-73,-130,cs),
(-68,-86,o),
(-89,-44,o),
(-142,-44,cs),
(-191,-44,o),
(-224,-81,o),
(-229,-130,cs),
(-235,-189,o),
(-188,-248,o),
(-76,-248,cs)
);
},
{
closed = 1;
nodes = (
(49,467,l),
(393,467,l),
(396,481,l),
(52,481,l)
);
}
);
width = 336;
}
);
unicode = 102;
},
{
color = (154, 153, 255, 255);
glyphname = f.7;
layers = (
{
layerId = "A01EDA77-E91F-4F54-AC7E-74E4C922CA36";
shapes = (
{
closed = 1;
nodes = (
(224,736,o),
(158,634,o),
(126,508,cs),
(65,265,o),
(80,-401,o),
(-523,-401,cs),
(-857,-401,o),
(-1101,-128,o),
(-1067,207,cs),
(-1033,540,o),
(-733,811,o),
(-400,811,cs),
(-245,811,o),
(-111,752,o),
(-14,655,c),
(-6,659,l),
(-104,757,o),
(-243,817,o),
(-401,817,cs),
(-738,817,o),
(-1038,544,o),
(-1073,207,cs),
(-1108,-136,o),
(-860,-413,o),
(-517,-413,cs),
(-280,-413,o),
(59,-281,o),
(130,123,cs),
(192,477,ls),
(231,702,o),
(305,729,o),
(358,729,cs),
(372,729,o),
(379,723,o),
(379,718,c),
(356,708,o),
(343,687,o),
(340,665,cs),
(335,636,o),
(345,609,o),
(379,609,cs),
(409,609,o),
(431,633,o),
(436,661,cs),
(442,700,o),
(416,736,o),
(348,736,cs)
);
},
{
closed = 1;
nodes = (
(46,473,l),
(313,473,l),
(314,481,l),
(47,481,l)
);
}
);
width = 248;
},
{
layerId = "F3B99A47-B03A-4C9D-AB53-5F3A31A2DF8F";
shapes = (
{
closed = 1;
nodes = (
(251,737,o),
(178,667,o),
(133,557,cs),
(7,248,o),
(164,-397,o),
(-468,-397,cs),
(-789,-397,o),
(-1027,-160,o),
(-1027,149,cs),
(-1027,508,o),
(-727,811,o),
(-370,811,cs),
(-215,811,o),
(-79,752,o),
(20,655,c),
(28,659,l),
(-72,757,o),
(-212,817,o),
(-370,817,cs),
(-731,817,o),
(-1033,512,o),
(-1033,149,cs),
(-1033,-165,o),
(-797,-413,o),
(-439,-413,cs),
(-11,-413,o),
(203,-160,o),
(243,65,cs),
(323,523,ls),
(345,648,o),
(376,727,o),
(429,727,cs),
(452,727,o),
(462,716,o),
(463,709,c),
(427,694,o),
(406,660,o),
(400,626,cs),
(392,582,o),
(410,538,o),
(463,538,cs),
(510,538,o),
(545,573,o),
(553,620,cs),
(563,680,o),
(521,737,o),
(405,737,cs)
);
},
{
closed = 1;
nodes = (
(49,467,l),
(393,467,l),
(396,481,l),
(52,481,l)
);
}
);
width = 325;
}
);
},
{
color = (255, 153, 153, 255);
glyphname = g;
layers = (
{
anchors = (
{
name = top;
position = "{318, 728}";
}
);
background = {
shapes = (
{
closed = 1;
nodes = (
(343,156,o),
(451,224,o),
(451,361,cs),
(451,465,o),
(354,500,o),
(280,500,cs),
(150,500,o),
(46,427,o),
(46,291,cs),
(46,191,o),
(103,156,o),
(216,156,cs)
);
},
{
closed = 1;
nodes = (
(352,492,o),
(381,435,o),
(381,370,cs),
(381,280,o),
(325,164,o),
(222,164,cs),
(149,164,o),
(117,222,o),
(117,290,cs),
(117,380,o),
(177,492,o),
(279,492,cs)
);
}
);
};
hints = (
{
horizontal = 1;
place = (-281,21);
target = up;
type = BottomGhost;
},
{
horizontal = 1;
place = (-95,166);
type = Stem;
},
{
horizontal = 1;
place = (-95,226);
type = Stem;
},
{
horizontal = 1;
place = (459,198);
type = Stem;
},
{
horizontal = 1;
place = (511,146);
type = Stem;
},
{
horizontal = 1;
place = (560,97);
type = Stem;
},
{
place = (-39,96);
type = Stem;
},
{
place = (-17,28);
type = Stem;
},
{
place = (-17,181);
type = Stem;
},
{
place = (275,219);
type = Stem;
},
{
place = (292,183);
type = Stem;
},
{
place = (429,65);
type = Stem;
},
{
place = (443,51);
type = Stem;
}
);
layerId = "A01EDA77-E91F-4F54-AC7E-74E4C922CA36";
shapes = (
{
closed = 1;
nodes = (
(276,497,l),
(330,518,o),
(359,565,o),
(359,610,cs),
(359,645,o),
(342,666,o),
(307,666,cs),
(273,666,o),
(256,645,o),
(256,624,cs),
(256,605,o),
(270,587,o),
(301,587,cs),
(312,587,o),
(325,591,o),
(337,604,c),
(339,566,o),
(312,508,o),
(266,499,c)
);
},
{
closed = 1;
nodes = (
(325,184,o),
(429,253,o),
(429,364,cs),
(429,464,o),
(340,500,o),
(274,500,cs),
(157,500,o),
(64,433,o),
(64,315,cs),
(64,226,o),
(125,184,o),
(218,184,cs)
);
},
{
closed = 1;
nodes = (
(337,493,o),
(361,441,o),
(361,381,cs),
(361,298,o),
(313,191,o),
(223,191,cs),
(159,191,o),
(132,244,o),
(132,307,cs),
(132,390,o),
(184,493,o),
(274,493,cs)
);
},
{
closed = 1;
nodes = (
(149,206,l),
(65,204,o),
(-2,156,o),
(1,85,cs),
(3,28,o),
(53,-5,o),
(148,-5,cs),
(193,-5,o),
(243,1,o),
(298,1,cs),
(348,1,o),
(410,-3,o),
(410,-70,cs),
(410,-154,o),
(288,-220,o),
(171,-220,cs),
(45,-220,o),
(0,-182,o),
(0,-111,cs),
(0,-35,o),
(51,10,o),
(110,3,c),
(63,21,l),
(5,32,o),
(-45,-36,o),
(-45,-96,cs),
(-45,-197,o),
(52,-228,o),
(168,-228,cs),
(319,-228,o),
(451,-156,o),
(451,-35,cs),
(451,41,o),
(403,71,o),
(334,71,cs),
(282,71,o),
(227,64,o),
(174,64,cs),
(108,64,o),
(43,74,o),
(43,123,cs),
(43,178,o),
(105,200,o),
(153,198,c)
);
}
);
width = 459;
},
{
anchors = (
{
name = top;
position = "{365, 752}";
}
);
hints = (
{
horizontal = 1;
place = (-281,21);
target = up;
type = BottomGhost;
},
{
horizontal = 1;
place = (-95,166);
type = Stem;
},
{
horizontal = 1;
place = (-95,226);
type = Stem;
},
{
horizontal = 1;
place = (459,198);
type = Stem;
},
{
horizontal = 1;
place = (511,146);
type = Stem;
},
{
horizontal = 1;
place = (560,97);
type = Stem;
},
{
place = (50,96);
type = Stem;
},
{
place = (72,28);
type = Stem;
},
{
place = (72,181);
type = Stem;
},
{
place = (364,219);
type = Stem;
},
{
place = (381,183);
type = Stem;
},
{
place = (518,65);
type = Stem;
},
{
place = (532,51);
type = Stem;
}
);
layerId = "F3B99A47-B03A-4C9D-AB53-5F3A31A2DF8F";
shapes = (
{
closed = 1;
nodes = (
(335,493,l),
(391,509,o),
(440,563,o),
(440,614,cs),
(440,658,o),
(406,677,o),
(371,677,cs),
(330,677,o),
(298,657,o),
(290,623,cs),
(283,595,o),
(297,562,o),
(349,562,cs),
(362,562,o),
(391,565,o),
(406,578,c),
(403,552,o),
(370,502,o),
(314,496,c)
);
},
{
closed = 1;
nodes = (
(399,156,o),
(532,184,o),
(556,323,cs),
(580,457,o),
(439,500,o),
(337,500,cs),
(238,500,o),
(93,476,o),
(68,335,cs),
(44,197,o),
(162,156,o),
(273,156,cs)
);
},
{
closed = 1;
nodes = (
(383,492,o),
(390,409,o),
(376,328,cs),
(362,247,o),
(326,164,o),
(279,164,cs),
(233,164,o),
(223,245,o),
(237,328,cs),
(252,411,o),
(290,492,o),
(336,492,cs)
);
},
{
closed = 1;
nodes = (
(151,180,l),
(68,180,o),
(-1,129,o),
(-14,57,cs),
(-33,-49,o),
(70,-67,o),
(153,-67,cs),
(220,-67,o),
(263,-63,o),
(330,-63,cs),
(402,-63,o),
(449,-82,o),
(441,-133,cs),
(432,-187,o),
(373,-246,o),
(206,-246,cs),
(61,-246,o),
(22,-190,o),
(22,-144,cs),
(22,-96,o),
(66,-58,o),
(104,-63,c),
(59,-50,l),
(8,-41,o),
(-37,-88,o),
(-37,-136,cs),
(-37,-202,o),
(19,-255,o),
(201,-255,cs),
(403,-255,o),
(514,-155,o),
(530,-61,cs),
(545,25,o),
(491,106,o),
(367,106,cs),
(317,106,o),
(265,99,o),
(219,99,cs),
(149,99,o),
(96,105,o),
(96,140,cs),
(96,171,o),
(140,177,o),
(168,173,c)
);
}
);
width = 540;
}
);
unicode = 103;
},
{
color = (154, 153, 255, 255);
glyphname = g.alt;
layers = (
{
hints = (
{
horizontal = 1;
place = (-281,21);
target = up;
type = BottomGhost;
},
{
horizontal = 1;
place = (-95,166);
type = Stem;
},
{
horizontal = 1;
place = (-95,226);
type = Stem;
},
{
horizontal = 1;
place = (459,198);
type = Stem;
},
{
horizontal = 1;
place = (511,146);
type = Stem;
},
{
horizontal = 1;
place = (560,97);
type = Stem;
},
{
place = (-17,96);
type = Stem;
},
{
place = (5,28);
type = Stem;
},
{
place = (5,181);
type = Stem;
},
{
place = (297,219);
type = Stem;
},
{
place = (314,183);
type = Stem;
},
{
place = (451,65);
type = Stem;
},
{
place = (465,51);
type = Stem;
}
);
layerId = "A01EDA77-E91F-4F54-AC7E-74E4C922CA36";
rightMetricsKey = g;
shapes = (
{
closed = 1;
nodes = (
(247,428,l),
(294,463,o),
(345,539,o),
(345,586,cs),
(345,620,o),
(318,631,o),
(294,631,cs),
(265,631,o),
(243,615,o),
(243,589,cs),
(243,572,o),
(252,552,o),
(286,552,cs),
(297,552,o),
(315,556,o),
(324,566,c),
(324,537,o),
(298,474,o),
(238,428,c)
);
},
{
closed = 1;
nodes = (
(325,184,o),
(429,253,o),
(429,364,cs),
(429,464,o),
(340,500,o),
(274,500,cs),
(157,500,o),
(64,433,o),
(64,315,cs),
(64,226,o),
(125,184,o),
(218,184,cs)
);
},
{
closed = 1;
nodes = (
(337,493,o),
(361,441,o),
(361,381,cs),
(361,298,o),
(313,191,o),
(223,191,cs),
(159,191,o),
(132,244,o),
(132,307,cs),
(132,390,o),
(184,493,o),
(274,493,cs)
);
},
{
closed = 1;
nodes = (
(149,206,l),
(65,204,o),
(-2,156,o),
(1,85,cs),
(3,28,o),
(53,-5,o),
(148,-5,cs),
(193,-5,o),
(243,1,o),
(298,1,cs),
(348,1,o),
(410,-3,o),
(410,-70,cs),
(410,-154,o),
(288,-220,o),
(171,-220,cs),
(45,-220,o),
(0,-182,o),
(0,-111,cs),
(0,-35,o),
(51,10,o),
(110,3,c),
(63,21,l),
(5,32,o),
(-45,-36,o),
(-45,-96,cs),
(-45,-197,o),
(52,-228,o),
(168,-228,cs),
(319,-228,o),
(451,-156,o),
(451,-35,cs),
(451,41,o),
(403,71,o),
(334,71,cs),
(282,71,o),
(227,64,o),
(174,64,cs),
(108,64,o),
(43,74,o),
(43,123,cs),
(43,178,o),
(105,200,o),
(153,198,c)
);
}
);
width = 459;
},
{
anchors = (
{
name = top;
position = "{365, 752}";
}
);
hints = (
{
horizontal = 1;
place = (-281,21);
target = up;
type = BottomGhost;
},
{
horizontal = 1;
place = (-95,166);
type = Stem;
},
{
horizontal = 1;
place = (-95,226);
type = Stem;
},
{
horizontal = 1;
place = (459,198);
type = Stem;
},
{
horizontal = 1;
place = (511,146);
type = Stem;
},
{
horizontal = 1;
place = (560,97);
type = Stem;
},
{
place = (50,96);
type = Stem;
},
{
place = (72,28);
type = Stem;
},
{
place = (72,181);
type = Stem;
},
{
place = (364,219);
type = Stem;
},
{
place = (381,183);
type = Stem;
},
{
place = (518,65);
type = Stem;
},
{
place = (532,51);
type = Stem;
}
);
layerId = "F3B99A47-B03A-4C9D-AB53-5F3A31A2DF8F";
shapes = (
{
closed = 1;
nodes = (
(313,421,l),
(367,454,o),
(428,521,o),
(428,594,cs),
(428,638,o),
(394,657,o),
(359,657,cs),
(318,657,o),
(286,637,o),
(278,603,cs),
(271,575,o),
(285,542,o),
(337,542,cs),
(350,542,o),
(379,545,o),
(394,558,c),
(390,516,o),
(352,445,o),
(294,421,c)
);
},
{
closed = 1;
nodes = (
(399,156,o),
(532,184,o),
(556,323,cs),
(580,457,o),
(439,500,o),
(337,500,cs),
(238,500,o),
(93,476,o),
(68,335,cs),
(44,197,o),
(162,156,o),
(273,156,cs)
);
},
{
closed = 1;
nodes = (
(383,492,o),
(390,409,o),
(376,328,cs),
(362,247,o),
(326,164,o),
(279,164,cs),
(233,164,o),
(223,245,o),
(237,328,cs),
(252,411,o),
(290,492,o),
(336,492,cs)
);
},
{
closed = 1;
nodes = (
(151,180,l),
(68,180,o),
(-1,129,o),
(-14,57,cs),
(-33,-49,o),
(70,-67,o),
(153,-67,cs),
(220,-67,o),
(263,-63,o),
(330,-63,cs),
(402,-63,o),
(449,-82,o),
(441,-133,cs),
(432,-187,o),
(373,-246,o),
(206,-246,cs),
(61,-246,o),
(22,-190,o),
(22,-144,cs),
(22,-96,o),
(66,-58,o),
(104,-63,c),
(59,-50,l),
(8,-41,o),
(-37,-88,o),
(-37,-136,cs),
(-37,-202,o),
(19,-255,o),
(201,-255,cs),
(403,-255,o),
(514,-155,o),
(530,-61,cs),
(545,25,o),
(491,106,o),
(367,106,cs),
(317,106,o),
(265,99,o),
(219,99,cs),
(149,99,o),
(96,105,o),
(96,140,cs),
(96,171,o),
(140,177,o),
(168,173,c)
);
}
);
width = 540;
}
);
},
{
color = (154, 153, 255, 255);
glyphname = g.7;
layers = (
{
layerId = "A01EDA77-E91F-4F54-AC7E-74E4C922CA36";
shapes = (
{
closed = 1;
nodes = (
(-827,548,o),
(-947,675,o),
(-938,831,cs),
(-929,987,o),
(-796,1115,o),
(-640,1115,cs),
(-568,1115,o),
(-504,1087,o),
(-456,1043,c),
(-450,1047,l),
(-500,1093,o),
(-565,1121,o),
(-639,1121,cs),
(-798,1121,o),
(-935,991,o),
(-945,831,cs),
(-954,671,o),
(-830,542,o),
(-672,542,cs),
(-272,542,o),
(2,1008,o),
(329,1008,cs),
(518,1008,o),
(608,858,o),
(601,723,cs),
(592,564,o),
(447,429,o),
(290,429,cs),
(217,429,o),
(157,458,o),
(106,481,c),
(90,487,l),
(87,481,l),
(103,475,l),
(155,452,o),
(213,423,o),
(290,423,cs),
(460,423,o),
(618,563,o),
(627,721,cs),
(634,857,o),
(533,1014,o),
(331,1014,cs),
(-10,1014,o),
(-270,548,o),
(-671,548,cs)
);
},
{
closed = 1;
nodes = (
(102,6,o),
(70,18,o),
(63,21,c),
(5,32,o),
(-45,-36,o),
(-45,-96,cs),
(-45,-197,o),
(52,-228,o),
(168,-228,cs),
(319,-228,o),
(451,-156,o),
(451,-35,cs),
(451,41,o),
(403,71,o),
(334,71,cs),
(282,71,o),
(227,64,o),
(174,64,cs),
(108,64,o),
(43,74,o),
(43,123,cs),
(43,178,o),
(105,200,o),
(153,198,c),
(152,199,o),
(150,205,o),
(149,206,c),
(65,204,o),
(-2,156,o),
(1,85,cs),
(3,28,o),
(53,-5,o),
(148,-5,cs),
(193,-5,o),
(243,1,o),
(298,1,cs),
(348,1,o),
(410,-3,o),
(410,-70,cs),
(410,-154,o),
(288,-220,o),
(171,-220,cs),
(45,-220,o),
(0,-182,o),
(0,-111,cs),
(0,-35,o),
(51,10,o),
(110,3,c)
);
},
{
closed = 1;
nodes = (
(325,184,o),
(429,253,o),
(429,364,cs),
(429,464,o),
(340,500,o),
(274,500,cs),
(157,500,o),
(64,433,o),
(64,315,cs),
(64,226,o),
(125,184,o),
(218,184,cs)
);
},
{
closed = 1;
nodes = (
(337,493,o),
(361,441,o),
(361,381,cs),
(361,298,o),
(313,191,o),
(223,191,cs),
(159,191,o),
(132,244,o),
(132,307,cs),
(132,390,o),
(184,493,o),
(274,493,cs)
);
}
);
width = 459;
},
{
layerId = "F3B99A47-B03A-4C9D-AB53-5F3A31A2DF8F";
shapes = (
{
closed = 1;
nodes = (
(-775,548,o),
(-895,675,o),
(-886,831,cs),
(-877,987,o),
(-744,1115,o),
(-588,1115,cs),
(-516,1115,o),
(-452,1087,o),
(-404,1043,c),
(-398,1047,l),
(-448,1093,o),
(-513,1121,o),
(-587,1121,cs),
(-746,1121,o),
(-884,991,o),
(-893,831,cs),
(-903,671,o),
(-778,542,o),
(-620,542,cs),
(-220,542,o),
(54,1008,o),
(381,1008,cs),
(570,1008,o),
(660,858,o),
(653,723,cs),
(644,564,o),
(499,429,o),
(342,429,cs),
(269,429,o),
(209,458,o),
(158,481,c),
(142,487,l),
(139,481,l),
(155,475,l),
(207,452,o),
(265,423,o),
(342,423,cs),
(512,423,o),
(670,563,o),
(679,721,cs),
(686,857,o),
(585,1014,o),
(383,1014,cs),
(42,1014,o),
(-218,548,o),
(-619,548,cs)
);
},
{
closed = 1;
nodes = (
(95,-60,o),
(66,-52,o),
(59,-50,c),
(8,-41,o),
(-37,-88,o),
(-37,-136,cs),
(-37,-202,o),
(19,-255,o),
(201,-255,cs),
(403,-255,o),
(514,-155,o),
(530,-61,cs),
(545,25,o),
(491,106,o),
(367,106,cs),
(317,106,o),
(265,99,o),
(219,99,cs),
(149,99,o),
(96,105,o),
(96,140,cs),
(96,172,o),
(143,177,o),
(171,173,c),
(168,174,o),
(154,179,o),
(151,180,c),
(68,180,o),
(-1,129,o),
(-14,57,cs),
(-33,-49,o),
(70,-67,o),
(153,-67,cs),
(220,-67,o),
(263,-63,o),
(330,-63,cs),
(402,-63,o),
(449,-82,o),
(441,-133,cs),
(432,-187,o),
(373,-246,o),
(206,-246,cs),
(61,-246,o),
(22,-190,o),
(22,-144,cs),
(22,-96,o),
(66,-58,o),
(104,-63,c)
);
},
{
closed = 1;
nodes = (
(399,156,o),
(532,184,o),
(556,323,cs),
(580,457,o),
(439,500,o),
(337,500,cs),
(238,500,o),
(93,476,o),
(68,335,cs),
(44,197,o),
(162,156,o),
(273,156,cs)
);
},
{
closed = 1;
nodes = (
(383,492,o),
(390,409,o),
(376,328,cs),
(362,247,o),
(326,164,o),
(279,164,cs),
(233,164,o),
(223,245,o),
(237,328,cs),
(252,411,o),
(290,492,o),
(336,492,cs)
);
}
);
width = 538;
}
);
},
{
color = (255, 153, 153, 255);
glyphname = h;
rightMetricsKey = n;
layers = (
{
hints = (
{
horizontal = 1;
place = (-6,38);
type = Stem;
},
{
horizontal = 1;
place = (436,31);
type = Stem;
},
{
horizontal = 1;
place = (736,-20);
target = down;
type = TopGhost;
},
{
place = (-17,207);
type = Stem;
},
{
place = (304,198);
type = Stem;
}
);
layerId = "A01EDA77-E91F-4F54-AC7E-74E4C922CA36";
leftMetricsKey = b;
shapes = (
{
closed = 1;
nodes = (
(264,500,o),
(178,325,o),
(133,199,c),
(131,199,l),
(233,766,l),
(81,734,l),
(80,727,l),
(136,727,o),
(157,731,o),
(148,679,cs),
(27,0,l),
(96,0,l),
(115,102,ls),
(135,210,o),
(241,479,o),
(354,479,cs),
(399,479,o),
(403,436,o),
(385,345,cs),
(337,101,ls),
(323,31,o),
(345,-9,o),
(395,-9,cs),
(457,-9,o),
(499,51,o),
(524,102,c),
(520,109,l),
(488,43,o),
(455,18,o),
(437,18,cs),
(396,18,o),
(405,81,o),
(410,106,cs),
(455,330,ls),
(474,426,o),
(467,500,o),
(380,500,cs)
);
}
);
width = 524;
},
{
hints = (
{
horizontal = 1;
place = (-6,38);
type = Stem;
},
{
horizontal = 1;
place = (436,31);
type = Stem;
},
{
horizontal = 1;
place = (736,-20);
target = down;
type = TopGhost;
},
{
place = (46,207);
type = Stem;
},
{
place = (367,198);
type = Stem;
}
);
layerId = "F3B99A47-B03A-4C9D-AB53-5F3A31A2DF8F";
shapes = (
{
closed = 1;
nodes = (
(341,500,o),
(299,321,o),
(276,241,c),
(266,241,l),
(349,721,l),
(80,689,l),
(79,682,l),
(135,682,o),
(156,686,o),
(147,634,cs),
(36,0,l),
(233,0,l),
(241,44,ls),
(290,327,o),
(353,447,o),
(398,447,cs),
(428,447,o),
(426,414,o),
(413,345,cs),
(381,184,ls),
(362,88,o),
(370,-9,o),
(494,-9,cs),
(582,-9,o),
(637,81,o),
(658,124,c),
(654,131,l),
(637,97,o),
(602,41,o),
(581,44,cs),
(567,46,o),
(561,60,o),
(570,106,cs),
(607,295,ls),
(629,400,o),
(622,500,o),
(486,500,cs)
);
}
);
width = 633;
}
);
unicode = 104;
},
{
color = (154, 153, 255, 255);
glyphname = h.4;
layers = (
{
background = {
shapes = (
{
closed = 1;
nodes = (
(265,500,o),
(179,325,o),
(134,199,c),
(132,199,l),
(234,766,l),
(82,734,l),
(81,727,l),
(137,727,o),
(158,731,o),
(149,679,cs),
(28,0,l),
(97,0,l),
(116,102,ls),
(136,210,o),
(242,479,o),
(355,479,cs),
(400,479,o),
(404,436,o),
(386,345,cs),
(338,101,ls),
(324,31,o),
(346,-9,o),
(396,-9,cs),
(458,-9,o),
(500,51,o),
(525,102,c),
(521,109,l),
(489,43,o),
(456,18,o),
(438,18,cs),
(397,18,o),
(406,81,o),
(411,106,cs),
(456,330,ls),
(475,426,o),
(468,500,o),
(381,500,cs)
);
}
);
};
layerId = "A01EDA77-E91F-4F54-AC7E-74E4C922CA36";
leftMetricsKey = b;
shapes = (
{
closed = 1;
nodes = (
(131,199,l),
(233,766,l),
(81,734,l),
(80,727,l),
(136,727,o),
(157,731,o),
(148,679,cs),
(27,0,l),
(96,0,l)
);
},
{
closed = 1;
nodes = (
(456,330,ls),
(479,443,o),
(457,500,o),
(377,500,cs),
(261,500,o),
(178,325,o),
(133,199,c),
(117,199,l),
(94,199,l),
(96,0,l),
(115,102,ls),
(135,210,o),
(238,479,o),
(351,479,cs),
(389,479,o),
(408,449,o),
(386,345,cs),
(349,172,ls),
(270,-198,o),
(593,-414,o),
(923,-414,cs),
(1302,-414,o),
(1646,-125,o),
(1646,266,cs),
(1646,575,o),
(1408,817,o),
(1091,817,cs),
(933,817,o),
(784,757,o),
(667,659,c),
(671,655,l),
(787,752,o),
(937,811,o),
(1092,811,cs),
(1405,811,o),
(1640,572,o),
(1640,266,cs),
(1640,-112,o),
(1306,-405,o),
(934,-405,cs),
(650,-405,o),
(344,-226,o),
(418,142,cs)
);
}
);
width = 507;
},
{
layerId = "F3B99A47-B03A-4C9D-AB53-5F3A31A2DF8F";
shapes = (
{
closed = 1;
nodes = (
(266,241,l),
(349,721,l),
(80,689,l),
(79,682,l),
(135,682,o),
(156,686,o),
(147,634,cs),
(36,0,l),
(233,0,l)
);
},
{
closed = 1;
nodes = (
(607,295,ls),
(630,420,o),
(613,500,o),
(486,500,cs),
(341,500,o),
(299,321,o),
(276,241,c),
(272,241,l),
(247,241,l),
(233,0,l),
(241,44,ls),
(290,327,o),
(353,447,o),
(398,447,cs),
(428,447,o),
(426,414,o),
(413,345,cs),
(377,158,ls),
(309,-215,o),
(609,-396,o),
(946,-396,cs),
(1320,-396,o),
(1632,-91,o),
(1632,255,cs),
(1632,554,o),
(1401,789,o),
(1094,789,cs),
(941,789,o),
(817,742,o),
(699,636,c),
(704,631,l),
(821,737,o),
(944,783,o),
(1094,783,cs),
(1397,783,o),
(1626,551,o),
(1626,255,cs),
(1626,-85,o),
(1313,-384,o),
(970,-384,cs),
(735,-384,o),
(501,-268,o),
(568,88,cs)
);
}
);
width = 625;
}
);
},
{
color = (154, 153, 255, 255);
glyphname = h.6;
layers = (
{
background = {
shapes = (
{
closed = 1;
nodes = (
(265,500,o),
(179,325,o),
(134,199,c),
(132,199,l),
(234,766,l),
(82,734,l),
(81,727,l),
(137,727,o),
(158,731,o),
(149,679,cs),
(28,0,l),
(97,0,l),
(116,102,ls),
(136,210,o),
(242,479,o),
(355,479,cs),
(400,479,o),
(404,436,o),
(386,345,cs),
(338,101,ls),
(324,31,o),
(346,-9,o),
(396,-9,cs),
(458,-9,o),
(500,51,o),
(525,102,c),
(521,109,l),
(489,43,o),
(456,18,o),
(438,18,cs),
(397,18,o),
(406,81,o),
(411,106,cs),
(456,330,ls),
(475,426,o),
(468,500,o),
(381,500,cs)
);
}
);
};
layerId = "A01EDA77-E91F-4F54-AC7E-74E4C922CA36";
leftMetricsKey = b;
shapes = (
{
closed = 1;
nodes = (
(96,0,l),
(131,199,l),
(175,457,ls),
(236,816,o),
(516,948,o),
(740,948,cs),
(1110,948,o),
(1312,695,o),
(1312,391,cs),
(1312,37,o),
(1063,-382,o),
(578,-382,cs),
(408,-382,o),
(234,-332,o),
(148,-227,c),
(142,-231,l),
(231,-339,o),
(407,-388,o),
(579,-388,cs),
(1065,-388,o),
(1318,35,o),
(1318,391,cs),
(1318,700,o),
(1113,957,o),
(728,957,cs),
(471,957,o),
(161,789,o),
(92,383,cs),
(67,234,o),
(55,143,o),
(27,0,c)
);
},
{
closed = 1;
nodes = (
(96,0,l),
(115,102,ls),
(135,210,o),
(238,479,o),
(351,479,cs),
(387,479,o),
(405,453,o),
(385,345,cs),
(340,101,ls),
(327,31,o),
(348,-9,o),
(396,-9,cs),
(460,-9,o),
(502,51,o),
(527,102,c),
(523,109,l),
(491,43,o),
(458,18,o),
(436,18,cs),
(409,18,o),
(403,54,o),
(413,106,cs),
(455,330,ls),
(476,440,o),
(456,500,o),
(377,500,cs),
(261,500,o),
(178,325,o),
(133,199,c),
(117,199,l),
(94,199,l)
);
}
);
width = 526;
},
{
layerId = "F3B99A47-B03A-4C9D-AB53-5F3A31A2DF8F";
leftMetricsKey = h;
shapes = (
{
closed = 1;
nodes = (
(233,0,l),
(266,241,l),
(306,467,ls),
(369,825,o),
(609,967,o),
(833,967,cs),
(1232,967,o),
(1446,656,o),
(1446,348,cs),
(1446,-6,o),
(1198,-382,o),
(713,-382,cs),
(543,-382,o),
(369,-332,o),
(283,-227,c),
(277,-231,l),
(366,-339,o),
(542,-388,o),
(714,-388,cs),
(1200,-388,o),
(1452,-8,o),
(1452,348,cs),
(1452,661,o),
(1236,976,o),
(821,976,cs),
(512,976,o),
(164,813,o),
(96,405,cs),
(71,254,o),
(62,151,o),
(36,0,c)
);
},
{
closed = 1;
nodes = (
(233,0,l),
(241,44,ls),
(290,327,o),
(353,447,o),
(398,447,cs),
(428,447,o),
(426,414,o),
(413,345,cs),
(381,184,ls),
(354,47,o),
(399,-9,o),
(494,-9,cs),
(582,-9,o),
(637,81,o),
(658,124,c),
(654,131,l),
(637,97,o),
(602,41,o),
(581,44,cs),
(567,46,o),
(561,60,o),
(570,106,cs),
(607,295,ls),
(630,420,o),
(613,500,o),
(486,500,cs),
(341,500,o),
(299,321,o),
(276,241,c),
(272,241,l),
(247,241,l)
);
}
);
width = 644;
}
);
},
{
color = (154, 153, 255, 255);
glyphname = h.9;
layers = (
{
layerId = "A01EDA77-E91F-4F54-AC7E-74E4C922CA36";
leftMetricsKey = b;
rightMetricsKey = n;
shapes = (
{
closed = 1;
nodes = (
(360,192,ls),
(329,7,o),
(410,-89,o),
(566,-89,cs),
(714,-89,o),
(809,30,o),
(808,124,cs),
(808,168,o),
(786,202,o),
(745,202,cs),
(710,202,o),
(683,176,o),
(683,147,cs),
(683,123,o),
(701,102,o),
(731,102,cs),
(756,102,o),
(779,116,o),
(789,135,c),
(791,127,o),
(792,119,o),
(792,109,cs),
(792,10,o),
(696,-71,o),
(600,-71,cs),
(497,-71,o),
(389,-27,o),
(430,192,cs),
(456,330,ls),
(476,436,o),
(457,500,o),
(377,500,cs),
(261,500,o),
(178,325,o),
(133,199,c),
(117,199,l),
(94,199,l),
(96,0,l),
(115,102,ls),
(135,210,o),
(238,479,o),
(351,479,cs),
(389,479,o),
(403,446,o),
(386,345,cs)
);
},
{
closed = 1;
nodes = (
(27,0,l),
(96,0,l),
(131,199,l),
(231,766,l),
(79,734,l),
(78,727,l),
(134,727,o),
(155,731,o),
(146,679,cs)
);
}
);
width = 809;
},
{
layerId = "F3B99A47-B03A-4C9D-AB53-5F3A31A2DF8F";
leftMetricsKey = h;
shapes = (
{
closed = 1;
nodes = (
(394,248,ls),
(338,-37,o),
(499,-111,o),
(653,-111,cs),
(807,-111,o),
(928,-10,o),
(937,137,cs),
(941,205,o),
(902,263,o),
(833,263,cs),
(778,263,o),
(735,225,o),
(731,179,cs),
(727,135,o),
(758,95,o),
(812,94,cs),
(855,93,o),
(885,118,o),
(906,151,c),
(910,127,o),
(909,107,o),
(904,84,cs),
(884,-7,o),
(829,-84,o),
(703,-84,cs),
(610,-84,o),
(546,-20,o),
(581,160,cs),
(607,295,ls),
(631,420,o),
(613,500,o),
(486,500,cs),
(341,500,o),
(299,321,o),
(276,241,c),
(272,241,l),
(247,241,l),
(233,0,l),
(241,44,l),
(290,327,o),
(353,447,o),
(398,447,cs),
(428,447,o),
(426,414,o),
(413,345,cs)
);
},
{
closed = 1;
nodes = (
(36,0,l),
(233,0,l),
(266,241,l),
(349,721,l),
(80,689,l),
(79,682,l),
(135,682,o),
(156,686,o),
(147,634,cs)
);
}
);
width = 992;
}
);
},
{
color = (255, 153, 153, 255);
glyphname = i;
layers = (
{
anchors = (
{
name = top;
position = "{167, 577}";
}
);
hints = (
{
horizontal = 1;
place = (-6,38);
type = Stem;
},
{
horizontal = 1;
place = (580,174);
type = Stem;
},
{
place = (33,197);
type = Stem;
},
{
place = (33,250);
type = Stem;
},
{
place = (45,185);
type = Stem;
}
);
layerId = "A01EDA77-E91F-4F54-AC7E-74E4C922CA36";
rightMetricsKey = n;
shapes = (
{
closed = 1;
nodes = (
(202,594,o),
(236,621,o),
(236,657,cs),
(236,682,o),
(215,700,o),
(186,700,cs),
(154,700,o),
(116,674,o),
(116,639,cs),
(116,613,o),
(137,594,o),
(167,594,cs)
);
},
{
closed = 1;
nodes = (
(69,500,o),
(27,440,o),
(2,389,c),
(6,382,l),
(38,448,o),
(71,473,o),
(93,473,cs),
(120,473,o),
(120,437,o),
(110,385,cs),
(55,101,ls),
(41,31,o),
(63,-9,o),
(111,-9,cs),
(175,-9,o),
(217,51,o),
(242,102,c),
(238,109,l),
(206,43,o),
(173,18,o),
(151,18,cs),
(124,18,o),
(118,54,o),
(128,106,cs),
(183,390,ls),
(197,460,o),
(180,500,o),
(133,500,cs)
);
}
);
width = 242;
},
{
anchors = (
{
name = top;
position = "{254, 577}";
}
);
hints = (
{
horizontal = 1;
place = (-6,38);
type = Stem;
},
{
horizontal = 1;
place = (580,174);
type = Stem;
},
{
place = (61,197);
type = Stem;
},
{
place = (61,250);
type = Stem;
},
{
place = (73,185);
type = Stem;
}
);
layerId = "F3B99A47-B03A-4C9D-AB53-5F3A31A2DF8F";
shapes = (
{
closed = 1;
nodes = (
(302.061,554,o),
(359.945,599,o),
(369.931,656,cs),
(379.918,713,o),
(337.802,758,o),
(272.802,758,cs),
(208.802,758,o),
(150.918,713,o),
(140.931,656,cs),
(130.945,599,o),
(173.061,554,o),
(237.061,554,cs)
);
},
{
closed = 1;
nodes = (
(113.6,500,o),
(51.358,413,o),
(30.824,370,c),
(34.598,363,l),
(51.554,397,o),
(90.19,452,o),
(107.84,450,cs),
(121.49,448,o),
(121.986,428,o),
(113.926,382,cs),
(72.237,184,ls),
(42.358,42,o),
(92.423,-9,o),
(187.423,-9,cs),
(275.423,-9,o),
(330.191,81,o),
(350.725,124,c),
(346.951,131,l),
(329.994,97,o),
(295.183,41,o),
(273.709,44,cs),
(260.059,46,o),
(253.512,60,o),
(262.571,106,cs),
(307.166,332,ls),
(328.438,442,o),
(286.6,500,o),
(201.6,500,cs)
);
}
);
width = 325;
}
);
unicode = 105;
},
{
color = (154, 153, 255, 255);
glyphname = i.9;
layers = (
{
layerId = "A01EDA77-E91F-4F54-AC7E-74E4C922CA36";
leftMetricsKey = i;
shapes = (
{
closed = 1;
nodes = (
(6,382,l),
(38,448,o),
(71,473,o),
(89,473,cs),
(120,473,o),
(121,437,o),
(110,385,cs),
(70,188,ls),
(34,13,o),
(119,-93,o),
(275,-93,cs),
(423,-93,o),
(516,26,o),
(516,120,cs),
(516,164,o),
(495,198,o),
(454,198,cs),
(419,198,o),
(391,172,o),
(391,143,cs),
(391,119,o),
(409,98,o),
(439,98,cs),
(464,98,o),
(487,112,o),
(497,131,c),
(499,123,o),
(500,115,o),
(500,105,cs),
(500,6,o),
(404,-75,o),
(308,-75,cs),
(205,-75,o),
(104,-31,o),
(143,185,cs),
(183,390,ls),
(197,460,o),
(180,500,o),
(133,500,cs),
(69,500,o),
(27,440,o),
(2,389,c)
);
},
{
closed = 1;
nodes = (
(110,617,o),
(132,594,o),
(165,594,cs),
(200,594,o),
(234,621,o),
(234,657,cs),
(234,682,o),
(213,700,o),
(184,700,cs),
(151,700,o),
(121,677,o),
(115,647,cs)
);
}
);
width = 558;
},
{
layerId = "F3B99A47-B03A-4C9D-AB53-5F3A31A2DF8F";
shapes = (
{
closed = 1;
nodes = (
(34.598,363,l),
(51.554,397,o),
(90.19,452,o),
(107.84,450,cs),
(121.49,448,o),
(121.986,428,o),
(113.926,382,c),
(79.296,230,ls),
(15.766,-47,o),
(185.553,-111,o),
(342.553,-111,cs),
(496.553,-111,o),
(618.248,-10,o),
(627.002,137,cs),
(630.916,205,o),
(592.078,263,o),
(523.078,263,cs),
(468.078,263,o),
(425.42,225,o),
(421.361,179,cs),
(416.652,135,o),
(447.644,95,o),
(502.469,94,cs),
(545.294,93,o),
(574.674,118,o),
(596.455,151,c),
(600.25,127,o),
(598.746,107,o),
(593.717,84,cs),
(573.774,-7,o),
(519.283,-84,o),
(393.283,-84,cs),
(300.283,-84,o),
(235,0,o),
(271.784,170,cs),
(307.166,332,l),
(328.438,442,o),
(286.6,500,o),
(201.6,500,cs),
(113.6,500,o),
(51.358,413,o),
(30.824,370,c)
);
},
{
closed = 1;
nodes = (
(130.945,599,o),
(173.061,554,o),
(237.061,554,cs),
(302.061,554,o),
(359.945,599,o),
(369.931,656,cs),
(379.918,713,o),
(337.802,758,o),
(272.802,758,cs),
(208.802,758,o),
(150.918,713,o),
(140.931,656,cs)
);
}
);
width = 676;
}
);
},
{
color = (255, 153, 153, 255);
glyphname = j;
layers = (
{
hints = (
{
horizontal = 1;
place = (-321,199);
type = Stem;
},
{
horizontal = 1;
place = (-220,98);
type = Stem;
},
{
horizontal = 1;
place = (580,174);
type = Stem;
},
{
place = (79,197);
type = Stem;
},
{
place = (91,185);
type = Stem;
},
{
place = (197,79);
type = Stem;
}
);
layerId = "A01EDA77-E91F-4F54-AC7E-74E4C922CA36";
shapes = (
{
closed = 1;
nodes = (
(20,-158,ls),
(9,-219,o),
(-36,-258,o),
(-83,-258,cs),
(-105,-258,o),
(-117,-249,o),
(-118,-235,c),
(-96,-226,o),
(-78,-204,o),
(-74,-180,cs),
(-69,-156,o),
(-80,-131,o),
(-112,-131,cs),
(-143,-131,o),
(-164,-154,o),
(-170,-186,cs),
(-179,-236,o),
(-141,-266,o),
(-74,-266,cs),
(44,-266,o),
(84,-174,o),
(102,-73,cs),
(183,390,ls),
(195,460,o),
(180,500,o),
(133,500,cs),
(69,500,o),
(27,440,o),
(2,389,c),
(6,382,l),
(38,448,o),
(71,473,o),
(93,473,cs),
(120,473,o),
(124,437,o),
(115,385,cs)
);
},
{
closed = 1;
nodes = (
(210,594,o),
(241,617,o),
(246,647,cs),
(252,677,o),
(228,700,o),
(195,700,cs),
(162,700,o),
(134,677,o),
(128,647,cs),
(123,617,o),
(144,594,o),
(177,594,cs)
);
}
);
width = 225;
},
{
hints = (
{
horizontal = 1;
place = (-321,199);
type = Stem;
},
{
horizontal = 1;
place = (-220,98);
type = Stem;
},
{
horizontal = 1;
place = (580,174);
type = Stem;
},
{
place = (79,197);
type = Stem;
},
{
place = (91,185);
type = Stem;
},
{
place = (197,79);
type = Stem;
}
);
layerId = "F3B99A47-B03A-4C9D-AB53-5F3A31A2DF8F";
shapes = (
{
closed = 1;
nodes = (
(32,-103,ls),
(14,-206,o),
(-16,-280,o),
(-69,-280,cs),
(-92,-280,o),
(-101,-269,o),
(-98,-262,c),
(-63,-247,o),
(-43,-211,o),
(-39,-177,cs),
(-34,-133,o),
(-55,-91,o),
(-108,-91,cs),
(-165,-91,o),
(-195,-138,o),
(-195,-188,cs),
(-195,-243,o),
(-164,-290,o),
(-45,-290,cs),
(132,-290,o),
(224,-134,o),
(247,0,cs),
(303,322,ls),
(325,450,o),
(283,500,o),
(204,500,cs),
(106,500,o),
(52,410,o),
(30,367,c),
(34,360,l),
(51,393,o),
(84,447,o),
(105,447,cs),
(119,447,o),
(128,431,o),
(117,385,c)
);
},
{
closed = 1;
nodes = (
(302,554,o),
(360,599,o),
(370,656,cs),
(380,713,o),
(338,758,o),
(273,758,cs),
(209,758,o),
(151,713,o),
(141,656,cs),
(131,599,o),
(173,554,o),
(237,554,cs)
);
}
);
width = 311;
}
);
unicode = 106;
},
{
color = (154, 153, 255, 255);
glyphname = j.4;
layers = (
{
layerId = "A01EDA77-E91F-4F54-AC7E-74E4C922CA36";
shapes = (
{
closed = 1;
nodes = (
(-177,-413,o),
(78,-203,o),
(128,78,cs),
(183,390,ls),
(197,460,o),
(180,500,o),
(133,500,cs),
(69,500,o),
(27,440,o),
(2,389,c),
(6,382,l),
(38,448,o),
(71,473,o),
(93,473,cs),
(120,473,o),
(124,437,o),
(115,385,cs),
(72,128,ls),
(12,-216,o),
(-225,-397,o),
(-496,-397,cs),
(-808,-397,o),
(-1041,-161,o),
(-1041,143,cs),
(-1041,500,o),
(-728,811,o),
(-371,811,cs),
(-216,811,o),
(-79,752,o),
(18,655,c),
(23,659,l),
(-75,757,o),
(-213,817,o),
(-371,817,cs),
(-735,817,o),
(-1047,505,o),
(-1047,143,cs),
(-1047,-169,o),
(-809,-413,o),
(-488,-413,cs)
);
},
{
closed = 1;
nodes = (
(210,594,o),
(241,617,o),
(246,647,cs),
(252,677,o),
(228,700,o),
(195,700,cs),
(162,700,o),
(134,677,o),
(128,647,cs),
(123,617,o),
(144,594,o),
(177,594,cs)
);
}
);
width = 225;
},
{
layerId = "F3B99A47-B03A-4C9D-AB53-5F3A31A2DF8F";
shapes = (
{
closed = 1;
nodes = (
(-108,-413,o),
(210,-207,o),
(269,128,cs),
(303,322,ls),
(325,450,o),
(283,500,o),
(204,500,cs),
(106,500,o),
(52,410,o),
(30,367,c),
(34,360,l),
(51,393,o),
(84,447,o),
(105,447,cs),
(119,447,o),
(128,431,o),
(117,385,cs),
(72,128,ls),
(12,-216,o),
(-225,-397,o),
(-496,-397,cs),
(-808,-397,o),
(-1041,-161,o),
(-1041,143,cs),
(-1041,500,o),
(-728,811,o),
(-371,811,cs),
(-216,811,o),
(-79,752,o),
(18,655,c),
(23,659,l),
(-75,757,o),
(-213,817,o),
(-371,817,cs),
(-735,817,o),
(-1047,505,o),
(-1047,143,cs),
(-1047,-169,o),
(-809,-413,o),
(-488,-413,cs)
);
},
{
closed = 1;
nodes = (
(302,554,o),
(360,599,o),
(370,656,cs),
(380,713,o),
(338,758,o),
(273,758,cs),
(209,758,o),
(151,713,o),
(141,656,cs),
(131,599,o),
(173,554,o),
(237,554,cs)
);
}
);
width = 311;
}
);
},
{
color = (255, 153, 153, 255);
glyphname = k;
leftMetricsKey = h;
layers = (
{
guides = (
{
position = "{0, 474}";
}
);
hints = (
{
horizontal = 1;
place = (-6,38);
type = Stem;
},
{
horizontal = 1;
place = (-6,244);
type = Stem;
},
{
horizontal = 1;
place = (224,111);
type = Stem;
},
{
horizontal = 1;
place = (255,80);
type = Stem;
},
{
horizontal = 1;
place = (438,29);
type = Stem;
},
{
horizontal = 1;
place = (736,-20);
target = down;
type = TopGhost;
},
{
place = (51,207);
type = Stem;
},
{
place = (351,198);
type = Stem;
}
);
layerId = "A01EDA77-E91F-4F54-AC7E-74E4C922CA36";
shapes = (
{
closed = 1;
nodes = (
(233,766,l),
(81,734,l),
(80,727,l),
(136,727,o),
(157,731,o),
(148,679,cs),
(27,0,l),
(96,0,l)
);
},
{
closed = 1;
nodes = (
(334,201,o),
(310,284,o),
(223,284,cs),
(208,284,o),
(185,280,o),
(177,276,c),
(151,250,l),
(168,266,o),
(189,274,o),
(201,274,cs),
(307,274,o),
(228,-9,o),
(365,-9,cs),
(429,-9,o),
(471,51,o),
(496,102,c),
(492,109,l),
(460,43,o),
(427,18,o),
(409,18,cs),
(379,18,o),
(363,64,o),
(351,122,cs)
);
},
{
closed = 1;
nodes = (
(136,241,l),
(227,285,o),
(285,469,o),
(388,479,c),
(349,448,o),
(359,380,o),
(410,380,cs),
(475,380,o),
(497,500,o),
(405,500,cs),
(282,500,o),
(225,285,o),
(131,248,c)
);
}
);
width = 498;
},
{
guides = (
{
position = "{0, 474}";
}
);
hints = (
{
horizontal = 1;
place = (-6,38);
type = Stem;
},
{
horizontal = 1;
place = (-6,244);
type = Stem;
},
{
horizontal = 1;
place = (224,111);
type = Stem;
},
{
horizontal = 1;
place = (255,80);
type = Stem;
},
{
horizontal = 1;
place = (438,29);
type = Stem;
},
{
horizontal = 1;
place = (736,-20);
target = down;
type = TopGhost;
},
{
place = (59,207);
type = Stem;
},
{
place = (359,198);
type = Stem;
}
);
layerId = "F3B99A47-B03A-4C9D-AB53-5F3A31A2DF8F";
shapes = (
{
closed = 1;
nodes = (
(359,721,l),
(80,689,l),
(78,682,l),
(134,682,o),
(156,686,o),
(147,634,cs),
(36,0,l),
(233,0,l)
);
},
{
closed = 1;
nodes = (
(540,193,o),
(497,281,o),
(382,281,cs),
(361,281,o),
(334,279,o),
(309,268,c),
(288,246,l),
(297,254,o),
(306,261,o),
(316,261,cs),
(375,261,o),
(245,-9,o),
(463,-9,cs),
(551,-9,o),
(607,81,o),
(628,124,c),
(624,131,l),
(607,98,o),
(574,44,o),
(553,44,cs),
(531,44,o),
(540,93,o),
(540,118,cs)
);
},
{
closed = 1;
nodes = (
(273,237,l),
(359,280,o),
(390,447,o),
(447,447,c),
(412,404,o),
(409,303,o),
(493,303,cs),
(623,303,o),
(646,500,o),
(524,500,cs),
(378,500,o),
(361,281,o),
(268,244,c)
);
}
);
width = 588;
}
);
unicode = 107;
},
{
color = (154, 153, 255, 255);
glyphname = k.6;
leftMetricsKey = h;
layers = (
{
layerId = "A01EDA77-E91F-4F54-AC7E-74E4C922CA36";
shapes = (
{
closed = 1;
nodes = (
(97,0,l),
(132,199,l),
(176,457,ls),
(237,816,o),
(517,948,o),
(741,948,cs),
(1111,948,o),
(1313,695,o),
(1313,391,cs),
(1313,37,o),
(1064,-382,o),
(579,-382,cs),
(409,-382,o),
(235,-332,o),
(149,-227,c),
(143,-231,l),
(232,-339,o),
(408,-388,o),
(580,-388,cs),
(1066,-388,o),
(1319,35,o),
(1319,391,cs),
(1319,700,o),
(1114,957,o),
(729,957,cs),
(472,957,o),
(162,789,o),
(93,383,cs),
(68,234,o),
(56,143,o),
(28,0,c)
);
},
{
closed = 1;
nodes = (
(335,201,o),
(315,295,o),
(228,295,cs),
(213,295,o),
(190,291,o),
(182,287,c),
(156,261,l),
(173,277,o),
(194,285,o),
(206,285,cs),
(312,285,o),
(229,-9,o),
(366,-9,cs),
(430,-9,o),
(472,51,o),
(497,102,c),
(493,109,l),
(461,43,o),
(428,18,o),
(410,18,cs),
(380,18,o),
(364,64,o),
(352,122,cs)
);
},
{
closed = 1;
nodes = (
(141,252,l),
(232,296,o),
(286,469,o),
(389,479,c),
(350,448,o),
(360,380,o),
(411,380,cs),
(476,380,o),
(498,500,o),
(406,500,cs),
(283,500,o),
(230,296,o),
(136,259,c)
);
}
);
width = 499;
},
{
layerId = "F3B99A47-B03A-4C9D-AB53-5F3A31A2DF8F";
shapes = (
{
closed = 1;
nodes = (
(233,0,l),
(266,241,l),
(306,467,ls),
(369,825,o),
(609,967,o),
(833,967,cs),
(1232,967,o),
(1446,656,o),
(1446,348,cs),
(1446,-6,o),
(1198,-382,o),
(713,-382,cs),
(543,-382,o),
(369,-332,o),
(283,-227,c),
(277,-231,l),
(366,-339,o),
(542,-388,o),
(714,-388,cs),
(1200,-388,o),
(1452,-8,o),
(1452,348,cs),
(1452,661,o),
(1236,976,o),
(821,976,cs),
(512,976,o),
(164,813,o),
(96,405,cs),
(71,254,o),
(62,151,o),
(36,0,c)
);
},
{
closed = 1;
nodes = (
(540,193,o),
(497,281,o),
(382,281,cs),
(361,281,o),
(334,279,o),
(309,268,c),
(288,246,l),
(297,254,o),
(306,261,o),
(316,261,cs),
(375,261,o),
(245,-9,o),
(463,-9,cs),
(551,-9,o),
(607,81,o),
(628,124,c),
(624,131,l),
(607,98,o),
(574,44,o),
(553,44,cs),
(531,44,o),
(540,93,o),
(540,118,cs)
);
},
{
closed = 1;
nodes = (
(264,229,l),
(350,272,o),
(390,447,o),
(447,447,c),
(412,404,o),
(409,303,o),
(493,303,cs),
(623,303,o),
(646,500,o),
(524,500,cs),
(378,500,o),
(352,273,o),
(259,236,c)
);
}
);
width = 590;
}
);
},
{
color = (154, 153, 255, 255);
glyphname = k.9;
layers = (
{
layerId = "A01EDA77-E91F-4F54-AC7E-74E4C922CA36";
shapes = (
{
closed = 1;
nodes = (
(719,170,o),
(739,146,o),
(772,146,cs),
(798,146,o),
(821,162,o),
(830,181,c),
(833,167,o),
(834,154,o),
(832,137,cs),
(822,28,o),
(727,-61,o),
(600,-62,cs),
(380,-63,o),
(342,300,o),
(194,300,c),
(189,296,l),
(287,277,o),
(238,-86,o),
(575,-86,cs),
(727,-86,o),
(838,41,o),
(849,157,cs),
(853,205,o),
(831,249,o),
(784,248,cs),
(750,248,o),
(725,224,o),
(722,196,cs)
);
},
{
closed = 1;
nodes = (
(232,766,l),
(80,734,l),
(79,727,l),
(135,727,o),
(156,731,o),
(147,679,cs),
(28,0,l),
(97,0,l)
);
},
{
closed = 1;
nodes = (
(141,252,l),
(232,296,o),
(286,469,o),
(389,479,c),
(350,448,o),
(360,380,o),
(411,380,cs),
(476,380,o),
(498,500,o),
(406,500,cs),
(283,500,o),
(230,296,o),
(136,259,c)
);
}
);
width = 878;
},
{
layerId = "F3B99A47-B03A-4C9D-AB53-5F3A31A2DF8F";
shapes = (
{
closed = 1;
nodes = (
(762,25,o),
(794,-11,o),
(847,-11,cs),
(890,-11,o),
(930,14,o),
(950,47,c),
(953,24,o),
(955,1,o),
(951,-22,cs),
(935,-112,o),
(862,-171,o),
(772,-171,cs),
(561,-171,o),
(638,249,o),
(288,249,c),
(277,243,l),
(376,243,o),
(269,-198,o),
(692,-198,cs),
(851,-198,o),
(983,-111,o),
(983,51,cs),
(983,116,o),
(941,166,o),
(875,166,cs),
(820,166,o),
(762,126,o),
(762,67,cs)
);
},
{
closed = 1;
nodes = (
(359,721,l),
(80,689,l),
(78,682,l),
(134,682,o),
(156,686,o),
(147,634,cs),
(36,0,l),
(233,0,l)
);
},
{
closed = 1;
nodes = (
(273,237,l),
(359,280,o),
(390,447,o),
(447,447,c),
(412,404,o),
(409,303,o),
(493,303,cs),
(623,303,o),
(646,500,o),
(524,500,cs),
(378,500,o),
(361,281,o),
(268,244,c)
);
}
);
width = 1053;
}
);
},
{
color = (255, 153, 153, 255);
glyphname = l;
rightMetricsKey = d;
layers = (
{
anchors = (
{
name = top;
position = "{175, 796}";
}
);
hints = (
{
horizontal = 1;
place = (-6,38);
type = Stem;
},
{
horizontal = 1;
place = (736,-20);
target = down;
type = TopGhost;
},
{
place = (-44,248);
type = Stem;
}
);
layerId = "A01EDA77-E91F-4F54-AC7E-74E4C922CA36";
shapes = (
{
closed = 1;
nodes = (
(162,-9,o),
(204,51,o),
(229,102,c),
(225,109,l),
(193,43,o),
(160,18,o),
(142,18,cs),
(111,18,o),
(106,54,o),
(116,106,cs),
(232,766,l),
(80,734,l),
(79,729,l),
(116,729,o),
(156,731,o),
(147,679,cs),
(45,101,ls),
(33,32,o),
(52,-9,o),
(98,-9,cs)
);
}
);
width = 237;
},
{
hints = (
{
horizontal = 1;
place = (-6,38);
type = Stem;
},
{
horizontal = 1;
place = (736,-20);
target = down;
type = TopGhost;
},
{
place = (40,198);
type = Stem;
}
);
layerId = "F3B99A47-B03A-4C9D-AB53-5F3A31A2DF8F";
shapes = (
{
closed = 1;
nodes = (
(252.423,-9,o),
(307.191,81,o),
(327.725,124,c),
(323.951,131,l),
(306.994,97,o),
(272.183,41,o),
(250.709,44,cs),
(237.059,46,o),
(236.512,60,o),
(243.571,106,cs),
(351.319,721,l),
(75.713,689,l),
(74.486,682,l),
(130.486,682,o),
(152.187,686,o),
(143.077,634,cs),
(53.199,121,ls),
(38.482,37,o),
(72.423,-9,o),
(164.423,-9,cs)
);
}
);
width = 311;
}
);
unicode = 108;
},
{
color = (154, 153, 255, 255);
glyphname = l.5;
layers = (
{
layerId = "A01EDA77-E91F-4F54-AC7E-74E4C922CA36";
shapes = (
{
closed = 1;
nodes = (
(313,-230,o),
(399,-202,o),
(436,-139,c),
(432,-134,l),
(399,-191,o),
(318,-221,o),
(254,-221,cs),
(145,-221,o),
(71,-142,o),
(100,31,cs),
(224,766,l),
(74,734,l),
(73,729,l),
(110,729,o),
(150,731,o),
(141,679,cs),
(36,69,ls),
(6,-108,o),
(77,-230,o),
(237,-230,cs)
);
}
);
width = 214;
},
{
layerId = "F3B99A47-B03A-4C9D-AB53-5F3A31A2DF8F";
shapes = (
{
closed = 1;
nodes = (
(441,-239,o),
(541,-208,o),
(583,-139,c),
(579,-134,l),
(545,-192,o),
(464,-222,o),
(399,-222,cs),
(291,-222,o),
(197,-198,o),
(247,84,cs),
(359,721,l),
(83,689,l),
(82,682,l),
(138,682,o),
(159,686,o),
(150,634,cs),
(65,152,ls),
(33,-30,o),
(39,-239,o),
(353,-239,cs)
);
}
);
width = 304;
}
);
},
{
color = (154, 153, 255, 255);
glyphname = l.4;
layers = (
{
layerId = "A01EDA77-E91F-4F54-AC7E-74E4C922CA36";
shapes = (
{
closed = 1;
nodes = (
(226,766,l),
(76,734,l),
(75,729,l),
(112,729,o),
(152,731,o),
(143,679,cs),
(54,172,ls),
(-11,-196,o),
(294,-414,o),
(620,-414,cs),
(999,-414,o),
(1343,-125,o),
(1343,266,cs),
(1343,575,o),
(1105,817,o),
(788,817,cs),
(630,817,o),
(481,757,o),
(364,659,c),
(368,655,l),
(484,752,o),
(634,811,o),
(789,811,cs),
(1102,811,o),
(1337,572,o),
(1337,266,cs),
(1337,-112,o),
(1003,-405,o),
(631,-405,cs),
(351,-405,o),
(53,-221,o),
(117,144,cs)
);
}
);
width = 221;
},
{
layerId = "F3B99A47-B03A-4C9D-AB53-5F3A31A2DF8F";
shapes = (
{
closed = 1;
nodes = (
(349,721,l),
(73,689,l),
(72,682,l),
(128,682,o),
(149,686,o),
(140,634,cs),
(59,173,ls),
(-3,-179,o),
(267,-414,o),
(676,-414,cs),
(1040,-414,o),
(1409,-107,o),
(1409,270,cs),
(1409,577,o),
(1175,817,o),
(860,817,cs),
(702,817,o),
(547,763,o),
(444,652,c),
(449,648,l),
(551,758,o),
(705,811,o),
(860,811,cs),
(1172,811,o),
(1403,574,o),
(1403,270,cs),
(1403,-74,o),
(1065,-391,o),
(730,-391,cs),
(459,-391,o),
(182,-231,o),
(246,138,cs)
);
}
);
width = 304;
}
);
},
{
color = (154, 153, 255, 255);
glyphname = l.9;
leftMetricsKey = l;
layers = (
{
layerId = "A01EDA77-E91F-4F54-AC7E-74E4C922CA36";
shapes = (
{
closed = 1;
nodes = (
(225,766,l),
(72,734,l),
(71,729,l),
(108,729,o),
(148,731,o),
(139,679,cs),
(53,187,ls),
(22,11,o),
(102,-94,o),
(258,-94,cs),
(406,-94,o),
(499,25,o),
(499,119,cs),
(499,163,o),
(478,197,o),
(437,197,cs),
(402,197,o),
(374,171,o),
(374,142,cs),
(374,118,o),
(392,97,o),
(422,97,cs),
(447,97,o),
(470,111,o),
(480,130,c),
(482,122,o),
(483,114,o),
(483,104,cs),
(483,5,o),
(387,-76,o),
(291,-76,cs),
(188,-76,o),
(84,-32,o),
(123,187,cs)
);
}
);
width = 534;
},
{
layerId = "F3B99A47-B03A-4C9D-AB53-5F3A31A2DF8F";
shapes = (
{
closed = 1;
nodes = (
(339,721,l),
(63,689,l),
(62,682,l),
(118,682,o),
(139,686,o),
(130,634,cs),
(57,214,ls),
(13,-41,o),
(160,-111,o),
(312,-111,cs),
(466,-111,o),
(587,-10,o),
(596,137,cs),
(600,205,o),
(561,263,o),
(492,263,cs),
(437,263,o),
(394,225,o),
(390,179,cs),
(386,135,o),
(417,95,o),
(471,94,cs),
(514,93,o),
(544,118,o),
(565,151,c),
(569,127,o),
(568,107,o),
(563,84,cs),
(543,-7,o),
(488,-84,o),
(362,-84,cs),
(269,-84,o),
(214,13,o),
(240,160,cs)
);
}
);
width = 656;
}
);
},
{
color = (255, 153, 153, 255);
glyphname = m;
leftMetricsKey = n;
rightMetricsKey = n;
layers = (
{
hints = (
{
horizontal = 1;
place = (-6,38);
type = Stem;
},
{
horizontal = 1;
place = (446,21);
type = Stem;
},
{
place = (84,197);
type = Stem;
},
{
place = (403,198);
type = Stem;
},
{
place = (724,198);
type = Stem;
}
);
layerId = "A01EDA77-E91F-4F54-AC7E-74E4C922CA36";
shapes = (
{
closed = 1;
nodes = (
(16.926,382,l),
(49.49,448,o),
(81.87,473,o),
(103.87,473,cs),
(130.87,473,o),
(140.562,437,o),
(130.452,385,cs),
(59,0,l),
(130,0,l),
(151.87,102,ls),
(174.792,210,o),
(269.921,479,o),
(380.921,479,cs),
(416.921,479,o),
(429.387,436,o),
(411.444,345,cs),
(344,0,l),
(416,0,l),
(480.816,330,ls),
(499.635,426,o),
(485.6,500,o),
(406.6,500,cs),
(292.6,500,o),
(214.94,325,o),
(169.865,199,c),
(164.865,199,l),
(198.328,390,ls),
(210.592,460,o),
(190.6,500,o),
(143.6,500,cs),
(79.6,500,o),
(38.088,440,o),
(13.153,389,c)
);
},
{
closed = 1;
nodes = (
(437.865,199,l),
(416,0,l),
(437.87,102,ls),
(460.792,210,o),
(559.921,479,o),
(678.921,479,cs),
(714.921,479,o),
(728.387,436,o),
(709.444,345,cs),
(661.148,115,ls),
(642.73,27,o),
(664.423,-9,o),
(714.423,-9,cs),
(776.423,-9,o),
(817.935,51,o),
(842.87,102,c),
(842.046,103,o),
(839.746,107,o),
(839.097,109,c),
(806.534,43,o),
(774.154,18,o),
(756.154,18,cs),
(725.154,18,o),
(718.76,50,o),
(734.024,120,cs),
(778.816,330,ls),
(799.635,426,o),
(783.6,500,o),
(704.6,500,cs),
(582.6,500,o),
(501.94,325,o),
(455.865,199,c)
);
}
);
width = 843;
},
{
hints = (
{
horizontal = 1;
place = (-6,38);
type = Stem;
},
{
horizontal = 1;
place = (446,21);
type = Stem;
},
{
place = (84,197);
type = Stem;
},
{
place = (403,198);
type = Stem;
},
{
place = (724,198);
type = Stem;
}
);
layerId = "F3B99A47-B03A-4C9D-AB53-5F3A31A2DF8F";
shapes = (
{
closed = 1;
nodes = (
(34,360,l),
(51,394,o),
(86,450,o),
(107,447,cs),
(121,445,o),
(123,431,o),
(114,385,cs),
(47,0,l),
(244,0,l),
(252,44,ls),
(301,327,o),
(364,447,o),
(409,447,cs),
(439,447,o),
(437,414,o),
(424,345,cs),
(362,0,l),
(566,0,l),
(614,295,ls),
(634,420,o),
(624,500,o),
(497,500,cs),
(352,500,o),
(310,321,o),
(287,241,c),
(283,241,l),
(297,320,ls),
(318,439,o),
(279,500,o),
(194,500,cs),
(106,500,o),
(51,410,o),
(30,367,c)
);
},
{
closed = 1;
nodes = (
(580,241,l),
(566,0,l),
(574,44,ls),
(625,327,o),
(686,447,o),
(731,447,cs),
(761,447,o),
(759,414,o),
(746,345,cs),
(714,184,ls),
(687,47,o),
(732,-9,o),
(827,-9,cs),
(915,-9,o),
(970,81,o),
(991,124,c),
(990,125,o),
(988,130,o),
(987,131,c),
(970,97,o),
(935,41,o),
(914,44,cs),
(900,46,o),
(894,60,o),
(903,106,cs),
(940,295,ls),
(963,420,o),
(946,500,o),
(819,500,cs),
(674,500,o),
(632,321,o),
(609,241,c)
);
}
);
width = 966;
}
);
unicode = 109;
},
{
color = (154, 153, 255, 255);
glyphname = m.5;
leftMetricsKey = n;
layers = (
{
layerId = "A01EDA77-E91F-4F54-AC7E-74E4C922CA36";
shapes = (
{
closed = 1;
nodes = (
(435,0,l),
(495.816,330,ls),
(513.635,426,o),
(496.6,500,o),
(409.6,500,cs),
(295.6,500,o),
(214.94,325,o),
(169.865,199,c),
(164.865,199,l),
(198.328,390,ls),
(210.592,460,o),
(190.6,500,o),
(143.6,500,cs),
(79.6,500,o),
(38.088,440,o),
(13.153,389,c),
(16.926,382,l),
(49.49,448,o),
(81.87,473,o),
(99.87,473,cs),
(130.87,473,o),
(139.562,437,o),
(130.452,385,cs),
(62,0,l),
(133,0,l),
(151.87,102,ls),
(171.792,210,o),
(272.921,479,o),
(383.921,479,cs),
(428.921,479,o),
(443.387,436,o),
(426.444,345,cs),
(363,0,l)
);
},
{
closed = 1;
nodes = (
(797.816,330,ls),
(815.635,426,o),
(798.6,500,o),
(711.6,500,cs),
(597.6,500,o),
(516.94,325,o),
(471.865,199,c),
(467.865,199,l),
(453.865,199,l),
(435,0,l),
(453.87,102,ls),
(473.792,210,o),
(575.921,479,o),
(685.921,479,cs),
(730.921,479,o),
(745.387,436,o),
(728.444,345,cs),
(677.089,69,ls),
(646.078,-108,o),
(717.704,-230,o),
(877.704,-230,cs),
(953.704,-230,o),
(1039.61,-202,o),
(1076.647,-139,c),
(1072.523,-134,l),
(1039.537,-191,o),
(959.281,-221,o),
(895.281,-221,cs),
(786.281,-221,o),
(708.771,-144,o),
(741.431,31,cs)
);
}
);
width = 858;
},
{
layerId = "F3B99A47-B03A-4C9D-AB53-5F3A31A2DF8F";
shapes = (
{
closed = 1;
nodes = (
(566,0,l),
(614,295,ls),
(634,420,o),
(624,500,o),
(497,500,cs),
(352,500,o),
(310,321,o),
(287,241,c),
(283,241,l),
(297,320,ls),
(318,439,o),
(279,500,o),
(194,500,cs),
(106,500,o),
(51,410,o),
(30,367,c),
(34,360,l),
(51,394,o),
(86,450,o),
(107,447,cs),
(121,445,o),
(123,431,o),
(114,385,c),
(47,0,l),
(244,0,l),
(252,44,l),
(301,327,o),
(364,447,o),
(409,447,cs),
(439,447,o),
(437,414,o),
(424,345,c),
(362,0,l)
);
},
{
closed = 1;
nodes = (
(940,295,ls),
(963,420,o),
(946,500,o),
(819,500,cs),
(674,500,o),
(632,321,o),
(609,241,c),
(605,241,l),
(580,241,l),
(566,0,l),
(574,44,ls),
(623,327,o),
(686,447,o),
(731,447,cs),
(761,447,o),
(759,414,o),
(746,345,cs),
(696,123,ls),
(668,-7,o),
(700,-239,o),
(1015,-239,cs),
(1103,-239,o),
(1203,-208,o),
(1245,-139,c),
(1241,-134,l),
(1207,-192,o),
(1126,-222,o),
(1061,-222,cs),
(955,-222,o),
(857,-149,o),
(889,31,cs)
);
}
);
width = 965;
}
);
},
{
color = (154, 153, 255, 255);
glyphname = m.4;
leftMetricsKey = n;
layers = (
{
layerId = "A01EDA77-E91F-4F54-AC7E-74E4C922CA36";
shapes = (
{
closed = 1;
nodes = (
(435,0,l),
(495.816,330,ls),
(513.635,426,o),
(496.6,500,o),
(409.6,500,cs),
(295.6,500,o),
(214.94,325,o),
(169.865,199,c),
(164.865,199,l),
(198.328,390,ls),
(210.592,460,o),
(190.6,500,o),
(143.6,500,cs),
(79.6,500,o),
(38.088,440,o),
(13.153,389,c),
(16.926,382,l),
(49.49,448,o),
(81.87,473,o),
(99.87,473,cs),
(130.87,473,o),
(139.562,437,o),
(130.452,385,cs),
(62,0,l),
(133,0,l),
(151.87,102,ls),
(171.792,210,o),
(272.921,479,o),
(383.921,479,cs),
(428.921,479,o),
(443.387,436,o),
(426.444,345,cs),
(363,0,l)
);
},
{
closed = 1;
nodes = (
(801.816,330,ls),
(821.635,426,o),
(802.6,500,o),
(715.6,500,cs),
(599.6,500,o),
(516.94,325,o),
(471.865,199,c),
(455.865,199,l),
(432.865,199,l),
(435,0,l),
(453.87,102,ls),
(473.792,210,o),
(576.921,479,o),
(689.921,479,cs),
(734.921,479,o),
(752.387,436,o),
(732.444,345,cs),
(695.134,172,ls),
(615.31,-198,o),
(936.467,-414,o),
(1262.467,-414,cs),
(1641.467,-414,o),
(1985.1,-125,o),
(1984.603,266,cs),
(1984.74,575,o),
(1747.138,817,o),
(1430.138,817,cs),
(1272.138,817,o),
(1122.626,757,o),
(1006.457,659,c),
(1009.756,655,l),
(1125.75,752,o),
(1276.087,811,o),
(1431.087,811,cs),
(1744.087,811,o),
(1978.214,572,o),
(1978.603,266,cs),
(1978.378,-112,o),
(1645.044,-405,o),
(1273.044,-405,cs),
(993.044,-405,o),
(689.405,-226,o),
(763.878,142,cs)
);
}
);
width = 862;
},
{
layerId = "F3B99A47-B03A-4C9D-AB53-5F3A31A2DF8F";
shapes = (
{
closed = 1;
nodes = (
(566,0,l),
(614,295,ls),
(634,420,o),
(624,500,o),
(497,500,cs),
(352,500,o),
(310,321,o),
(287,241,c),
(283,241,l),
(297,320,ls),
(318,439,o),
(279,500,o),
(194,500,cs),
(106,500,o),
(51,410,o),
(30,367,c),
(34,360,l),
(51,394,o),
(86,450,o),
(107,447,cs),
(121,445,o),
(123,431,o),
(114,385,c),
(47,0,l),
(244,0,l),
(252,44,ls),
(301,327,o),
(364,447,o),
(409,447,cs),
(439,447,o),
(437,414,o),
(424,345,c),
(362,0,l)
);
},
{
closed = 1;
nodes = (
(940,295,ls),
(963,420,o),
(946,500,o),
(819,500,cs),
(674,500,o),
(632,321,o),
(609,241,c),
(605,241,l),
(580,241,l),
(566,0,l),
(574,44,ls),
(623,327,o),
(686,447,o),
(731,447,cs),
(761,447,o),
(759,414,o),
(746,345,cs),
(710,158,ls),
(639,-211,o),
(946,-407,o),
(1297,-407,cs),
(1645,-407,o),
(1965,-88,o),
(1965,255,cs),
(1965,554,o),
(1734,789,o),
(1427,789,cs),
(1274,789,o),
(1150,742,o),
(1032,636,c),
(1037,631,l),
(1154,737,o),
(1277,783,o),
(1427,783,cs),
(1730,783,o),
(1959,551,o),
(1959,255,cs),
(1959,-85,o),
(1640,-401,o),
(1297,-401,cs),
(1062,-401,o),
(834,-268,o),
(901,88,cs)
);
}
);
width = 965;
}
);
},
{
color = (154, 153, 255, 255);
glyphname = m.9;
leftMetricsKey = n;
layers = (
{
layerId = "A01EDA77-E91F-4F54-AC7E-74E4C922CA36";
shapes = (
{
closed = 1;
nodes = (
(435,0,l),
(495.816,330,ls),
(513.635,426,o),
(496.6,500,o),
(409.6,500,cs),
(295.6,500,o),
(214.94,325,o),
(169.865,199,c),
(164.865,199,l),
(198.328,390,ls),
(210.592,460,o),
(190.6,500,o),
(143.6,500,cs),
(79.6,500,o),
(38.088,440,o),
(13.153,389,c),
(16.926,382,l),
(49.49,448,o),
(81.87,473,o),
(99.87,473,cs),
(130.87,473,o),
(139.562,437,o),
(130.452,385,cs),
(62,0,l),
(133,0,l),
(151.87,102,ls),
(171.792,210,o),
(272.921,479,o),
(383.921,479,cs),
(428.921,479,o),
(443.387,436,o),
(426.444,345,cs),
(363,0,l)
);
},
{
closed = 1;
nodes = (
(701.638,192,ls),
(669.226,7,o),
(752.407,-89,o),
(908.407,-89,cs),
(1056.407,-89,o),
(1150.256,30,o),
(1149.725,124,cs),
(1149.434,168,o),
(1128.39,202,o),
(1087.39,202,cs),
(1052.39,202,o),
(1024.835,176,o),
(1024.754,147,cs),
(1024.55,123,o),
(1042.87,102,o),
(1072.87,102,cs),
(1097.87,102,o),
(1121.323,116,o),
(1130.652,135,c),
(1133.25,127,o),
(1133.849,119,o),
(1134.097,109,cs),
(1133.752,10,o),
(1037.561,-71,o),
(941.561,-71,cs),
(838.561,-71,o),
(730.27,-27,o),
(771.638,192,cs),
(797.816,330,ls),
(815.635,426,o),
(798.6,500,o),
(711.6,500,cs),
(597.6,500,o),
(516.94,325,o),
(471.865,199,c),
(467.865,199,l),
(453.865,199,l),
(435,0,l),
(453.87,102,ls),
(473.792,210,o),
(575.921,479,o),
(685.921,479,cs),
(730.921,479,o),
(744.387,436,o),
(728.444,345,cs)
);
}
);
width = 1150;
},
{
layerId = "F3B99A47-B03A-4C9D-AB53-5F3A31A2DF8F";
shapes = (
{
closed = 1;
nodes = (
(566,0,l),
(614,295,ls),
(634,420,o),
(624,500,o),
(497,500,cs),
(352,500,o),
(310,321,o),
(287,241,c),
(283,241,l),
(297,320,ls),
(318,439,o),
(279,500,o),
(194,500,cs),
(106,500,o),
(51,410,o),
(30,367,c),
(34,360,l),
(51,394,o),
(86,450,o),
(107,447,cs),
(121,445,o),
(123,431,o),
(114,385,c),
(47,0,l),
(244,0,l),
(252,44,l),
(301,327,o),
(364,447,o),
(409,447,cs),
(439,447,o),
(437,414,o),
(424,345,c),
(362,0,l)
);
},
{
closed = 1;
nodes = (
(727,248,ls),
(668,-53,o),
(832,-111,o),
(986,-111,cs),
(1140,-111,o),
(1261,-10,o),
(1270,137,cs),
(1274,205,o),
(1235,263,o),
(1166,263,cs),
(1111,263,o),
(1068,225,o),
(1064,179,cs),
(1060,135,o),
(1091,95,o),
(1145,94,cs),
(1188,93,o),
(1218,118,o),
(1239,151,c),
(1243,127,o),
(1242,107,o),
(1237,84,cs),
(1217,-7,o),
(1162,-84,o),
(1036,-84,cs),
(943,-84,o),
(879,-20,o),
(914,160,cs),
(940,295,ls),
(964,420,o),
(946,500,o),
(819,500,cs),
(674,500,o),
(632,321,o),
(609,241,c),
(605,241,l),
(580,241,l),
(566,0,l),
(574,44,l),
(623,327,o),
(686,447,o),
(731,447,cs),
(761,447,o),
(759,414,o),
(746,345,cs)
);
}
);
width = 1297;
}
);
},
{
color = (255, 153, 153, 255);
glyphname = n;
layers = (
{
anchors = (
{
name = top;
position = "{324, 575}";
}
);
hints = (
{
horizontal = 1;
place = (-6,38);
type = Stem;
},
{
horizontal = 1;
place = (446,21);
type = Stem;
},
{
place = (-17,197);
type = Stem;
},
{
place = (302,198);
type = Stem;
}
);
layerId = "A01EDA77-E91F-4F54-AC7E-74E4C922CA36";
shapes = (
{
closed = 1;
nodes = (
(59,0,l),
(130,0,l),
(151.87,102,ls),
(174.792,210,o),
(274.921,479,o),
(387.921,479,cs),
(432.921,479,o),
(436.387,436,o),
(419.444,345,cs),
(376.148,115,ls),
(359.73,27,o),
(379.423,-9,o),
(429.423,-9,cs),
(491.423,-9,o),
(532.935,51,o),
(557.87,102,c),
(554.097,109,l),
(521.534,43,o),
(489.154,18,o),
(471.154,18,cs),
(440.154,18,o),
(435.76,50,o),
(449.024,120,cs),
(488.816,330,ls),
(506.635,426,o),
(500.6,500,o),
(413.6,500,cs),
(297.6,500,o),
(214.94,325,o),
(169.865,199,c),
(164.865,199,l),
(198.328,390,ls),
(210.592,460,o),
(190.6,500,o),
(143.6,500,cs),
(79.6,500,o),
(38.088,440,o),
(13.153,389,c),
(16.926,382,l),
(49.49,448,o),
(81.87,473,o),
(103.87,473,cs),
(130.87,473,o),
(140.562,437,o),
(130.452,385,cs)
);
}
);
width = 558;
},
{
anchors = (
{
name = top;
position = "{393, 575}";
}
);
hints = (
{
horizontal = 1;
place = (-6,38);
type = Stem;
},
{
horizontal = 1;
place = (446,21);
type = Stem;
},
{
place = (45,197);
type = Stem;
},
{
place = (364,198);
type = Stem;
}
);
layerId = "F3B99A47-B03A-4C9D-AB53-5F3A31A2DF8F";
shapes = (
{
closed = 1;
nodes = (
(47,0,l),
(244,0,l),
(251.709,44,ls),
(301.29,327,o),
(364.314,447,o),
(409.314,447,cs),
(439.314,447,o),
(436.533,414,o),
(424.444,345,cs),
(392.237,184,ls),
(365.234,47,o),
(410.423,-9,o),
(505.423,-9,cs),
(593.423,-9,o),
(648.191,81,o),
(668.725,124,c),
(664.951,131,l),
(647.994,97,o),
(613.183,41,o),
(591.709,44,cs),
(578.059,46,o),
(571.512,60,o),
(580.571,106,cs),
(617.684,295,ls),
(640.584,420,o),
(623.6,500,o),
(496.6,500,cs),
(351.6,500,o),
(310.239,321,o),
(287.223,241,c),
(283.223,241,l),
(297.064,320,ls),
(317.913,439,o),
(278.6,500,o),
(193.6,500,cs),
(105.6,500,o),
(50.832,410,o),
(30.298,367,c),
(34.072,360,l),
(51.029,394,o),
(85.84,450,o),
(107.314,447,cs),
(120.964,445,o),
(122.511,431,o),
(114.452,385,cs)
);
}
);
width = 644;
}
);
unicode = 110;
},
{
color = (154, 153, 255, 255);
glyphname = n.5;
layers = (
{
layerId = "A01EDA77-E91F-4F54-AC7E-74E4C922CA36";
shapes = (
{
closed = 1;
nodes = (
(496.816,330,ls),
(514.635,426,o),
(497.6,500,o),
(410.6,500,cs),
(294.6,500,o),
(211.94,325,o),
(166.865,199,c),
(161.865,199,l),
(195.328,390,ls),
(207.592,460,o),
(187.6,500,o),
(140.6,500,cs),
(76.6,500,o),
(35.088,440,o),
(10.153,389,c),
(13.926,382,l),
(46.49,448,o),
(78.87,473,o),
(96.87,473,cs),
(127.87,473,o),
(136.562,437,o),
(127.452,385,cs),
(59,0,l),
(130,0,l),
(148.87,102,ls),
(168.792,210,o),
(271.921,479,o),
(384.921,479,cs),
(429.921,479,o),
(444.387,436,o),
(427.444,345,cs),
(376.089,69,ls),
(343.078,-108,o),
(416.704,-230,o),
(576.704,-230,cs),
(652.704,-230,o),
(738.61,-202,o),
(775.647,-139,c),
(771.523,-134,l),
(738.537,-191,o),
(658.281,-221,o),
(594.281,-221,cs),
(485.281,-221,o),
(407.771,-144,o),
(440.431,31,cs)
);
}
);
width = 557;
},
{
layerId = "F3B99A47-B03A-4C9D-AB53-5F3A31A2DF8F";
shapes = (
{
closed = 1;
nodes = (
(617.684,295,ls),
(640.584,420,o),
(623.6,500,o),
(496.6,500,cs),
(351.6,500,o),
(310.239,321,o),
(287.223,241,c),
(283.223,241,l),
(297.064,320,ls),
(317.913,439,o),
(278.6,500,o),
(193.6,500,cs),
(105.6,500,o),
(50.832,410,o),
(30.298,367,c),
(34.072,360,l),
(51.029,394,o),
(85.84,450,o),
(107.314,447,cs),
(120.964,445,o),
(122.511,431,o),
(114.452,385,cs),
(47,0,l),
(244,0,l),
(251.709,44,ls),
(301.29,327,o),
(364.314,447,o),
(409.314,447,cs),
(439.314,447,o),
(440.533,414,o),
(424.444,345,cs),
(379.455,151,ls),
(325.809,-81,o),
(378.127,-239,o),
(693.127,-239,cs),
(781.127,-239,o),
(880.558,-208,o),
(922.647,-139,c),
(918.523,-134,l),
(885.362,-192,o),
(804.106,-222,o),
(739.106,-222,cs),
(633.106,-222,o),
(534.895,-149,o),
(567.431,31,cs)
);
}
);
width = 644;
}
);
},
{
color = (154, 153, 255, 255);
glyphname = n.4;
layers = (
{
layerId = "A01EDA77-E91F-4F54-AC7E-74E4C922CA36";
shapes = (
{
closed = 1;
nodes = (
(393.134,172,ls),
(313.31,-198,o),
(634.467,-414,o),
(960.467,-414,cs),
(1339.467,-414,o),
(1683.1,-125,o),
(1682.603,266,cs),
(1682.74,575,o),
(1445.138,817,o),
(1128.138,817,cs),
(970.138,817,o),
(820.626,757,o),
(704.457,659,c),
(707.756,655,l),
(823.75,752,o),
(974.087,811,o),
(1129.087,811,cs),
(1442.087,811,o),
(1676.214,572,o),
(1676.603,266,cs),
(1676.378,-112,o),
(1343.044,-405,o),
(971.044,-405,cs),
(691.044,-405,o),
(387.405,-226,o),
(461.878,142,cs),
(496.816,330,ls),
(514.635,426,o),
(497.6,500,o),
(410.6,500,cs),
(294.6,500,o),
(211.94,325,o),
(166.865,199,c),
(161.865,199,l),
(195.328,390,ls),
(207.592,460,o),
(187.6,500,o),
(140.6,500,cs),
(76.6,500,o),
(35.088,440,o),
(10.153,389,c),
(13.926,382,l),
(46.49,448,o),
(78.87,473,o),
(96.87,473,cs),
(127.87,473,o),
(136.562,437,o),
(127.452,385,cs),
(59,0,l),
(130,0,l),
(148.87,102,ls),
(168.792,210,o),
(271.921,479,o),
(384.921,479,cs),
(429.921,479,o),
(445.387,436,o),
(427.444,345,cs)
);
}
);
width = 550;
},
{
layerId = "F3B99A47-B03A-4C9D-AB53-5F3A31A2DF8F";
shapes = (
{
closed = 1;
nodes = (
(388,158,ls),
(320,-215,o),
(620,-396,o),
(957,-396,cs),
(1331,-396,o),
(1643,-91,o),
(1643,255,cs),
(1643,554,o),
(1412,789,o),
(1105,789,cs),
(952,789,o),
(828,742,o),
(710,636,c),
(715,631,l),
(832,737,o),
(955,783,o),
(1105,783,cs),
(1408,783,o),
(1637,551,o),
(1637,255,cs),
(1637,-85,o),
(1324,-384,o),
(981,-384,cs),
(746,-384,o),
(512,-268,o),
(579,88,cs),
(618,295,ls),
(641,420,o),
(624,500,o),
(497,500,cs),
(352,500,o),
(310,321,o),
(287,241,c),
(283,241,l),
(297,320,ls),
(318,439,o),
(279,500,o),
(194,500,cs),
(106,500,o),
(51,410,o),
(30,367,c),
(34,360,l),
(51,394,o),
(86,450,o),
(107,447,cs),
(121,445,o),
(123,431,o),
(114,385,c),
(47,0,l),
(244,0,l),
(252,44,l),
(301,327,o),
(364,447,o),
(409,447,cs),
(439,447,o),
(437,414,o),
(424,345,cs)
);
}
);
width = 646;
}
);
},
{
color = (154, 153, 255, 255);
glyphname = n.9;
layers = (
{
layerId = "A01EDA77-E91F-4F54-AC7E-74E4C922CA36";
shapes = (
{
closed = 1;
nodes = (
(496.816,330,ls),
(514.635,426,o),
(497.6,500,o),
(410.6,500,cs),
(294.6,500,o),
(211.94,325,o),
(166.865,199,c),
(161.865,199,l),
(195.328,390,ls),
(207.592,460,o),
(187.6,500,o),
(140.6,500,cs),
(76.6,500,o),
(35.088,440,o),
(10.153,389,c),
(13.926,382,l),
(46.49,448,o),
(78.87,473,o),
(96.87,473,cs),
(127.87,473,o),
(136.562,437,o),
(127.452,385,cs),
(59,0,l),
(130,0,l),
(148.87,102,ls),
(168.792,210,o),
(271.921,479,o),
(384.921,479,cs),
(429.921,479,o),
(443.387,436,o),
(427.444,345,cs),
(400.638,192,ls),
(368.226,7,o),
(451.407,-89,o),
(607.407,-89,cs),
(755.407,-89,o),
(849.256,30,o),
(848.725,124,cs),
(848.434,168,o),
(827.39,202,o),
(786.39,202,cs),
(751.39,202,o),
(723.835,176,o),
(723.754,147,cs),
(723.55,123,o),
(741.87,102,o),
(771.87,102,cs),
(796.87,102,o),
(820.323,116,o),
(829.652,135,c),
(832.25,127,o),
(832.849,119,o),
(833.097,109,cs),
(832.752,10,o),
(736.561,-71,o),
(640.561,-71,cs),
(537.561,-71,o),
(429.27,-27,o),
(470.638,192,cs)
);
}
);
width = 869;
},
{
layerId = "F3B99A47-B03A-4C9D-AB53-5F3A31A2DF8F";
shapes = (
{
closed = 1;
nodes = (
(617.684,295,ls),
(640.584,420,o),
(623.6,500,o),
(496.6,500,cs),
(351.6,500,o),
(310.239,321,o),
(287.223,241,c),
(283.223,241,l),
(297.064,320,ls),
(317.913,439,o),
(278.6,500,o),
(193.6,500,cs),
(105.6,500,o),
(50.832,410,o),
(30.298,367,c),
(34.072,360,l),
(51.029,394,o),
(85.84,450,o),
(107.314,447,cs),
(120.964,445,o),
(122.511,431,o),
(114.452,385,cs),
(47,0,l),
(244,0,l),
(251.709,44,ls),
(301.29,327,o),
(364.314,447,o),
(409.314,447,cs),
(439.314,447,o),
(436.533,414,o),
(424.444,345,cs),
(405.45,248,ls),
(345.714,-53,o),
(509.553,-111,o),
(663.553,-111,cs),
(817.553,-111,o),
(939.248,-10,o),
(948.002,137,cs),
(951.916,205,o),
(913.078,263,o),
(844.078,263,cs),
(789.078,263,o),
(746.42,225,o),
(742.361,179,cs),
(737.652,135,o),
(768.644,95,o),
(823.469,94,cs),
(866.294,93,o),
(895.674,118,o),
(917.455,151,c),
(921.25,127,o),
(919.746,107,o),
(914.717,84,cs),
(894.774,-7,o),
(840.283,-84,o),
(714.283,-84,cs),
(621.283,-84,o),
(557.496,-20,o),
(592.032,160,cs)
);
}
);
width = 975;
}
);
},
{
color = (255, 153, 153, 255);
glyphname = o;
leftMetricsKey = a;
layers = (
{
anchors = (
{
name = top;
position = "{292, 577}";
},
{
name = bottom;
position = "{168, -84}";
}
);
hints = (
{
horizontal = 1;
place = (-6,245);
type = Stem;
},
{
horizontal = 1;
place = (250,218);
type = Stem;
},
{
place = (-43,194);
type = Stem;
},
{
place = (2,149);
type = Stem;
},
{
place = (2,208);
type = Stem;
},
{
place = (301,201);
type = Stem;
}
);
layerId = "A01EDA77-E91F-4F54-AC7E-74E4C922CA36";
shapes = (
{
closed = 1;
nodes = (
(23,56,o),
(98,-9,o),
(202,-9,cs),
(365,-9,o),
(454,153,o),
(454,300,cs),
(454,435,o),
(379,500,o),
(275,500,cs),
(112,500,o),
(23,338,o),
(23,191,cs)
);
},
{
closed = 1;
nodes = (
(99,275,o),
(143,491,o),
(274,491,cs),
(332,491,o),
(378,446,o),
(378,330,cs),
(378,216,o),
(334,0,o),
(203,0,cs),
(145,0,o),
(99,45,o),
(99,161,cs)
);
}
);
width = 474;
},
{
anchors = (
{
name = top;
position = "{379, 577}";
}
);
hints = (
{
horizontal = 1;
place = (-6,245);
type = Stem;
},
{
horizontal = 1;
place = (250,218);
type = Stem;
},
{
place = (5,212);
type = Stem;
},
{
place = (50,167);
type = Stem;
},
{
place = (50,226);
type = Stem;
},
{
place = (349,219);
type = Stem;
}
);
layerId = "F3B99A47-B03A-4C9D-AB53-5F3A31A2DF8F";
shapes = (
{
closed = 1;
nodes = (
(15,89,o),
(122,-9,o),
(276,-9,cs),
(432,-9,o),
(574,75,o),
(603,243,cs),
(633,411,o),
(521,500,o),
(365,500,cs),
(211,500,o),
(74,425,o),
(45,257,cs)
);
},
{
closed = 1;
nodes = (
(278,418,o),
(325,491,o),
(364,491,cs),
(403,491,o),
(424,418,o),
(394,246,cs),
(362,65,o),
(317,0,o),
(278,0,cs),
(239,0,o),
(216,65,o),
(248,246,cs)
);
}
);
width = 590;
}
);
leftKerningGroup = oporizq;
rightKerningGroup = o;
unicode = 111;
},
{
color = (255, 153, 153, 255);
glyphname = p;
rightMetricsKey = b;
layers = (
{
background = {
shapes = (
{
closed = 0;
nodes = (
(239,-9,ls),
(414,-9,o),
(508,156,o),
(508,307,cs),
(508,406,o),
(468,500,o),
(358,500,cs),
(269,500,o),
(213,416,o),
(191,354,cs),
(186,341,o),
(187,349,o),
(189,359,cs)
);
},
{
closed = 1;
nodes = (
(181,284,ls),
(196,368,o),
(251,486,o),
(350,486,cs),
(420,486,o),
(436,415,o),
(436,344,cs),
(436,230,o),
(394,-1,o),
(245,-1,cs),
(171,-1,o),
(138,42,o),
(156,144,cs)
);
}
);
};
guides = (
{
position = "{0, -240}";
}
);
hints = (
{
horizontal = 1;
place = (-300,21);
target = up;
type = BottomGhost;
},
{
horizontal = 1;
place = (446,20);
type = Stem;
},
{
place = (91,197);
type = Stem;
},
{
place = (416,201);
type = Stem;
}
);
layerId = "A01EDA77-E91F-4F54-AC7E-74E4C922CA36";
shapes = (
{
closed = 1;
nodes = (
(182,286,ls),
(194,358,o),
(251,486,o),
(346,486,cs),
(419,486,o),
(436,411,o),
(436,339,cs),
(436,223,o),
(391,11,o),
(245,11,cs),
(172,11,o),
(144,65,o),
(156,134,cs)
);
},
{
closed = 1;
nodes = (
(131,143,l),
(117,54,o),
(160,3,o),
(249,3,cs),
(413,3,o),
(509,171,o),
(509,318,cs),
(509,408,o),
(462,500,o),
(358,500,cs),
(273,500,o),
(214,411,o),
(191,344,c),
(190,344,o),
(171,344,o),
(171,344,c)
);
},
{
closed = 1;
nodes = (
(176,254,l),
(169,254,l),
(196,390,ls),
(210,460,o),
(188,500,o),
(141,500,cs),
(77,500,o),
(35,440,o),
(10,389,c),
(14,382,l),
(46,448,o),
(79,473,o),
(97,473,cs),
(128,473,o),
(137,437,o),
(127,385,cs),
(18,-240,l),
(90,-240,l)
);
}
);
width = 529;
},
{
guides = (
{
position = "{0, -240}";
}
);
hints = (
{
horizontal = 1;
place = (-300,21);
target = up;
type = BottomGhost;
},
{
horizontal = 1;
place = (446,20);
type = Stem;
},
{
place = (64,197);
type = Stem;
},
{
place = (389,201);
type = Stem;
}
);
layerId = "F3B99A47-B03A-4C9D-AB53-5F3A31A2DF8F";
shapes = (
{
closed = 1;
nodes = (
(297,285,ls),
(308,344,o),
(347,463,o),
(396,463,cs),
(427,463,o),
(441,415,o),
(420,268,cs),
(390,57,o),
(344,21,o),
(297,21,cs),
(270,21,o),
(257,46,o),
(269,126,cs)
);
},
{
closed = 1;
nodes = (
(241,121,l),
(227,41,o),
(264,1,o),
(351,1,cs),
(522,1,o),
(627,144,o),
(627,305,cs),
(627,420,o),
(558,500,o),
(459,500,cs),
(327,500,o),
(308,349,o),
(289,289,c),
(288,289,o),
(270,292,o),
(270,292,c)
);
},
{
closed = 1;
nodes = (
(289,241,l),
(283,241,l),
(297,320,ls),
(318,439,o),
(279,500,o),
(194,500,cs),
(106,500,o),
(51,410,o),
(30,367,c),
(34,360,l),
(51,394,o),
(86,450,o),
(107,447,cs),
(121,445,o),
(125,431,o),
(117,384,cs),
(8,-240,l),
(205,-240,l)
);
}
);
width = 611;
}
);
rightKerningGroup = o;
unicode = 112;
},
{
color = (255, 153, 153, 255);
glyphname = q;
leftMetricsKey = a;
layers = (
{
guides = (
{
position = "{0, -241}";
}
);
hints = (
{
horizontal = 1;
place = (-300,21);
target = up;
type = BottomGhost;
},
{
horizontal = 1;
place = (-6,43);
type = Stem;
},
{
horizontal = 1;
place = (463,-20);
target = down;
type = TopGhost;
},
{
place = (21,213);
type = Stem;
},
{
place = (332,209);
type = Stem;
},
{
place = (351,190);
type = Stem;
}
);
layerId = "A01EDA77-E91F-4F54-AC7E-74E4C922CA36";
shapes = (
{
closed = 1;
nodes = (
(274,-240,l),
(321,-227,o),
(359,-220,o),
(422,-220,c),
(424,-213,l),
(368,-213,o),
(348,-205,o),
(357,-153,cs),
(471,500,l),
(455,487,o),
(418,472,o),
(397,467,c)
);
},
{
closed = 1;
nodes = (
(378,340,l),
(401,441,o),
(359,500,o),
(281,500,cs),
(127,500,o),
(27,326,o),
(27,170,cs),
(27,62,o),
(74,-9,o),
(162,-9,cs),
(254,-9,o),
(335,84,o),
(362,231,c),
(356,231,l),
(329,80,o),
(249,15,o),
(191,15,cs),
(122,15,o),
(101,87,o),
(101,160,cs),
(101,295,o),
(160,488,o),
(294,488,cs),
(367,488,o),
(390,413,o),
(374,331,c)
);
}
);
width = 501;
},
{
guides = (
{
position = "{0, -241}";
}
);
hints = (
{
horizontal = 1;
place = (-300,21);
target = up;
type = BottomGhost;
},
{
horizontal = 1;
place = (-6,43);
type = Stem;
},
{
horizontal = 1;
place = (463,-20);
target = down;
type = TopGhost;
},
{
place = (41,213);
type = Stem;
},
{
place = (352,209);
type = Stem;
},
{
place = (371,190);
type = Stem;
}
);
layerId = "F3B99A47-B03A-4C9D-AB53-5F3A31A2DF8F";
shapes = (
{
closed = 1;
nodes = (
(293,-240,l),
(381,-226,o),
(478,-220,o),
(569,-220,c),
(571,-213,l),
(515,-213,o),
(495,-205,o),
(504,-153,cs),
(618,500,l),
(594,488,o),
(452,468,o),
(417,468,c)
);
},
{
closed = 1;
nodes = (
(414,419,l),
(427,490,o),
(379,500,o),
(336,500,cs),
(190,500,o),
(72,385,o),
(45,227,cs),
(21,88,o),
(80,-9,o),
(193,-9,cs),
(281,-9,o),
(351,51,o),
(379,213,c),
(372,213,l),
(352,94,o),
(313,71,o),
(288,71,cs),
(235,71,o),
(247,180,o),
(262,261,cs),
(277,349,o),
(307,482,o),
(372,482,cs),
(403,482,o),
(411,451,o),
(406,410,c)
);
}
);
width = 600;
}
);
leftKerningGroup = _kern1;
unicode = 113;
},
{
color = (154, 153, 255, 255);
glyphname = q.2;
layers = (
{
anchors = (
{
name = top;
position = "{391, 577}";
}
);
hints = (
{
horizontal = 1;
place = (-6,245);
type = Stem;
},
{
horizontal = 1;
place = (250,218);
type = Stem;
},
{
place = (17,194);
type = Stem;
},
{
place = (62,149);
type = Stem;
},
{
place = (62,208);
type = Stem;
},
{
place = (361,201);
type = Stem;
}
);
layerId = "A01EDA77-E91F-4F54-AC7E-74E4C922CA36";
shapes = (
{
closed = 1;
nodes = (
(32,64,o),
(109,-1,o),
(215,-1,cs),
(384,-1,o),
(484,156,o),
(484,311,cs),
(484,437,o),
(410,500,o),
(301,500,cs),
(130,500,o),
(32,345,o),
(32,189,cs)
);
},
{
closed = 1;
nodes = (
(363,491,o),
(411,447,o),
(411,340,cs),
(411,223,o),
(357,8,o),
(217,8,cs),
(154,8,o),
(105,53,o),
(105,163,cs),
(105,280,o),
(157,491,o),
(299,491,cs)
);
},
{
closed = 1;
nodes = (
(-23,-50,l),
(9,-22,o),
(78,1,o),
(144,1,cs),
(498,1,o),
(852,-433,o),
(1313,-433,cs),
(1673,-433,o),
(1983,-139,o),
(2005,202,cs),
(2026,524,o),
(1767,788,o),
(1430,788,cs),
(1281,788,o),
(1141,734,o),
(1029,644,c),
(1033,640,l),
(1142,728,o),
(1282,782,o),
(1430,782,cs),
(1763,782,o),
(2018,520,o),
(1999,202,cs),
(1979,-116,o),
(1690,-371,o),
(1357,-371,cs),
(888,-371,o),
(512,7,o),
(144,7,cs),
(76,7,o),
(6,-16,o),
(-27,-46,c)
);
}
);
width = 510;
},
{
anchors = (
{
name = top;
position = "{399, 577}";
}
);
hints = (
{
horizontal = 1;
place = (-6,245);
type = Stem;
},
{
horizontal = 1;
place = (250,218);
type = Stem;
},
{
place = (25,194);
type = Stem;
},
{
place = (70,149);
type = Stem;
},
{
place = (70,208);
type = Stem;
},
{
place = (369,201);
type = Stem;
}
);
layerId = "F3B99A47-B03A-4C9D-AB53-5F3A31A2DF8F";
shapes = (
{
closed = 1;
nodes = (
(40,68,o),
(140,-9,o),
(276,-9,cs),
(456,-9,o),
(608,107,o),
(608,295,cs),
(608,429,o),
(504,500,o),
(365,500,cs),
(182,500,o),
(40,391,o),
(40,202,cs)
);
},
{
closed = 1;
nodes = (
(390,491,o),
(408,458,o),
(408,385,cs),
(408,299,o),
(366,0,o),
(278,0,cs),
(252,0,o),
(233,29,o),
(233,103,cs),
(233,188,o),
(277,491,o),
(364,491,cs)
);
},
{
closed = 1;
nodes = (
(12,-50,l),
(44,-22,o),
(113,1,o),
(179,1,cs),
(525,1,o),
(872,-476,o),
(1323,-476,cs),
(1696,-476,o),
(2017,-162,o),
(2040,202,cs),
(2060,524,o),
(1802,788,o),
(1465,788,cs),
(1316,788,o),
(1176,734,o),
(1064,644,c),
(1068,640,l),
(1177,728,o),
(1317,782,o),
(1465,782,cs),
(1798,782,o),
(2053,520,o),
(2034,202,cs),
(2014,-116,o),
(1725,-371,o),
(1392,-371,cs),
(923,-371,o),
(547,7,o),
(179,7,cs),
(111,7,o),
(41,-16,o),
(8,-46,c)
);
}
);
width = 597;
}
);
rightKerningGroup = o;
},
{
color = (255, 153, 153, 255);
glyphname = r;
layers = (
{
anchors = (
{
name = top;
position = "{327, 577}";
},
{
name = bottom;
position = "{81, -75}";
}
);
hints = (
{
horizontal = 1;
place = (-6,21);
target = up;
type = BottomGhost;
},
{
horizontal = 1;
place = (255,80);
type = Stem;
},
{
horizontal = 1;
place = (446,21);
type = Stem;
},
{
place = (79,197);
type = Stem;
}
);
layerId = "A01EDA77-E91F-4F54-AC7E-74E4C922CA36";
leftMetricsKey = n;
shapes = (
{
closed = 1;
nodes = (
(303.6,500,o),
(237.942,462,o),
(179.428,265,c),
(175.428,265,l),
(198.328,390,ls),
(211.592,460,o),
(190.6,500,o),
(143.6,500,cs),
(79.6,500,o),
(38.088,440,o),
(13.153,389,c),
(16.926,382,l),
(49.49,448,o),
(81.87,473,o),
(99.87,473,cs),
(130.87,473,o),
(140.562,437,o),
(130.452,385,cs),
(59,0,l),
(133,0,l),
(173.617,209,ls),
(197.342,333,o),
(271.921,479,o),
(328.746,478,c),
(290.139,446,o),
(299.875,376,o),
(350.875,376,cs),
(416.875,376,o),
(439.6,500,o),
(346.6,500,cs)
);
}
);
width = 403;
},
{
anchors = (
{
name = top;
position = "{332, 577}";
}
);
hints = (
{
horizontal = 1;
place = (-6,21);
target = up;
type = BottomGhost;
},
{
horizontal = 1;
place = (255,80);
type = Stem;
},
{
horizontal = 1;
place = (446,21);
type = Stem;
},
{
place = (84,197);
type = Stem;
}
);
layerId = "F3B99A47-B03A-4C9D-AB53-5F3A31A2DF8F";
shapes = (
{
closed = 1;
nodes = (
(351.6,500,o),
(309.889,319,o),
(287.223,241,c),
(283.223,241,l),
(297.064,320,ls),
(317.913,439,o),
(278.6,500,o),
(193.6,500,cs),
(105.6,500,o),
(50.832,410,o),
(30.298,367,c),
(34.072,360,l),
(51.029,394,o),
(85.84,450,o),
(107.314,447,cs),
(120.964,445,o),
(122.511,431,o),
(114.452,385,cs),
(47,0,l),
(244,0,l),
(251.709,44,ls),
(301.29,327,o),
(364.314,447,o),
(409.314,447,c),
(373.781,404,o),
(371.086,303,o),
(455.086,303,cs),
(585.086,303,o),
(607.6,500,o),
(485.6,500,cs)
);
}
);
width = 508;
}
);
unicode = 114;
},
{
color = (154, 153, 255, 255);
glyphname = r.4;
layers = (
{
layerId = "A01EDA77-E91F-4F54-AC7E-74E4C922CA36";
leftMetricsKey = n;
shapes = (
{
closed = 1;
nodes = (
(182,265,l),
(175,265,l),
(198,390,ls),
(212,460,o),
(191,500,o),
(144,500,cs),
(80,500,o),
(38,440,o),
(13,389,c),
(17,382,l),
(49,448,o),
(82,473,o),
(100,473,cs),
(131,473,o),
(140,437,o),
(130,385,cs),
(62,0,l),
(136,0,l),
(174,209,l)
);
},
{
closed = 1;
nodes = (
(239,631,o),
(591,819,o),
(910,819,cs),
(1251,819,o),
(1479,543,o),
(1479,245,cs),
(1479,-89,o),
(1188,-407,o),
(824,-407,cs),
(669,-407,o),
(532,-348,o),
(433,-251,c),
(428,-255,l),
(527,-353,o),
(665,-413,o),
(823,-413,cs),
(1184,-413,o),
(1485,-105,o),
(1485,253,cs),
(1485,575,o),
(1255,859,o),
(878,859,cs),
(518,859,o),
(231,583,o),
(174,234,c),
(170,211,o),
(111,171,o),
(174,209,c)
);
}
);
width = 304;
},
{
layerId = "F3B99A47-B03A-4C9D-AB53-5F3A31A2DF8F";
shapes = (
{
closed = 1;
nodes = (
(286.223,241,l),
(278.223,241,l),
(292.064,320,ls),
(312.913,439,o),
(278.6,500,o),
(193.6,500,cs),
(105.6,500,o),
(50.832,410,o),
(30.298,367,c),
(34.072,360,l),
(51.029,394,o),
(85.84,450,o),
(107.314,447,cs),
(120.964,445,o),
(122.511,431,o),
(114.452,385,cs),
(47,0,l),
(245,0,l),
(279.288,190,l)
);
},
{
closed = 1;
nodes = (
(343.171,606,o),
(701.087,811,o),
(1022.087,811,cs),
(1379.087,811,o),
(1611.177,509,o),
(1585.514,197,cs),
(1557.173,-136,o),
(1265.694,-407,o),
(932.694,-407,cs),
(777.694,-407,o),
(641.03,-348,o),
(542.025,-251,c),
(537.324,-255,l),
(636.154,-353,o),
(773.642,-413,o),
(931.642,-413,cs),
(1268.642,-413,o),
(1563.472,-140,o),
(1591.514,197,cs),
(1620.834,547,o),
(1389.249,869,o),
(991.249,869,cs),
(630.249,869,o),
(336.689,569,o),
(278.668,215,c),
(274.638,192,o),
(215.63,152,o),
(279.288,190,c)
);
}
);
width = 345;
}
);
},
{
color = (154, 153, 255, 255);
glyphname = r.sube;
layers = (
{
layerId = "A01EDA77-E91F-4F54-AC7E-74E4C922CA36";
leftMetricsKey = n;
shapes = (
{
closed = 1;
nodes = (
(173.617,209,l),
(229.856,530,o),
(469.276,755,o),
(607.276,755,cs),
(629.276,755,o),
(655.225,749,o),
(667.772,735,c),
(628.071,731,o),
(605.939,696,o),
(606.034,668,cs),
(606.303,641,o),
(623.449,619,o),
(655.449,619,cs),
(688.449,619,o),
(715.829,644,o),
(715.136,680,cs),
(715.02,725,o),
(676.502,762,o),
(592.502,762,cs),
(331.502,762,o),
(207.554,397,o),
(176.15,252,c)
);
},
{
closed = 1;
nodes = (
(182.428,265,l),
(172.428,265,l),
(198.328,390,ls),
(212.592,460,o),
(190.6,500,o),
(143.6,500,cs),
(79.6,500,o),
(38.088,440,o),
(13.153,389,c),
(16.926,382,l),
(49.49,448,o),
(81.87,473,o),
(99.87,473,cs),
(130.87,473,o),
(139.562,437,o),
(130.452,385,cs),
(62,0,l),
(136,0,l),
(173.617,209,l)
);
}
);
width = 280;
},
{
layerId = "F3B99A47-B03A-4C9D-AB53-5F3A31A2DF8F";
shapes = (
{
closed = 1;
nodes = (
(279,190,l),
(336,515,o),
(556,789,o),
(703,789,cs),
(732,789,o),
(769,778,o),
(787,758,c),
(726,751,o),
(689,696,o),
(689,652,cs),
(689,611,o),
(717,577,o),
(766,577,cs),
(817,577,o),
(859,615,o),
(859,671,cs),
(859,740,o),
(799,798,o),
(690,798,cs),
(405,798,o),
(319,447,o),
(282,233,c)
);
},
{
closed = 1;
nodes = (
(286,241,l),
(276,241,l),
(290,320,ls),
(311,439,o),
(279,500,o),
(194,500,cs),
(106,500,o),
(51,410,o),
(30,367,c),
(34,360,l),
(51,394,o),
(86,450,o),
(107,447,cs),
(121,445,o),
(123,431,o),
(114,385,cs),
(47,0,l),
(245,0,l),
(279,190,l)
);
}
);
width = 339;
}
);
},
{
color = (255, 153, 153, 255);
glyphname = s;
layers = (
{
anchors = (
{
name = top;
position = "{255, 576}";
},
{
name = bottom;
position = "{131, -77}";
}
);
background = {
shapes = (
{
closed = 1;
nodes = (
(366,500,l),
(365,495,ls),
(363,484,o),
(352,479,o),
(338,479,cs),
(313,479,o),
(275,499,o),
(221,499,cs),
(147,499,o),
(64,450,o),
(64,370,cs),
(64,296,o),
(126,266,o),
(183,234,cs),
(234,206,o),
(284,177,o),
(284,112,cs),
(284,56,o),
(248,0,o),
(165,0,cs),
(130,0,o),
(84,11,o),
(71,55,c),
(88,68,o),
(102,88,o),
(106,111,cs),
(110,139,o),
(97,164,o),
(70,164,cs),
(32,164,o),
(12,126,o),
(12,90,cs),
(12,15,o),
(103,-7,o),
(161,-7,cs),
(260,-7,o),
(353,46,o),
(353,151,cs),
(353,225,o),
(287,262,o),
(226,297,cs),
(174,327,o),
(125,356,o),
(125,407,cs),
(125,469,o),
(171,491,o),
(224,491,cs),
(289,491,o),
(356,446,o),
(344,346,c),
(351,346,l),
(372,500,l)
);
}
);
};
guides = (
{
position = "{0, -77}";
}
);
hints = (
{
horizontal = 1;
place = (-6,190);
type = Stem;
},
{
place = (-41,136);
type = Stem;
},
{
place = (-26,160);
type = Stem;
},
{
place = (259,119);
type = Stem;
},
{
place = (259,163);
type = Stem;
}
);
layerId = "A01EDA77-E91F-4F54-AC7E-74E4C922CA36";
shapes = (
{
closed = 1;
nodes = (
(360,500,l),
(359,495,ls),
(357,484,o),
(346,479,o),
(333,479,cs),
(309,479,o),
(273,499,o),
(222,499,cs),
(152,499,o),
(74,451,o),
(74,368,cs),
(74,297,o),
(132,266,o),
(185,233,cs),
(233,203,o),
(280,176,o),
(280,112,cs),
(280,56,o),
(245,0,o),
(166,0,cs),
(133,0,o),
(89,11,o),
(77,55,c),
(93,68,o),
(106,88,o),
(110,111,cs),
(114,139,o),
(102,164,o),
(76,164,cs),
(40,164,o),
(21,126,o),
(21,90,cs),
(21,15,o),
(107,-7,o),
(162,-7,cs),
(258,-7,o),
(347,46,o),
(347,151,cs),
(347,225,o),
(284,260,o),
(226,297,cs),
(179,327,o),
(134,358,o),
(134,411,cs),
(134,470,o),
(176,491,o),
(224,491,cs),
(286,491,o),
(350,446,o),
(339,346,c),
(345,346,l),
(365,500,l)
);
}
);
width = 384;
},
{
anchors = (
{
name = top;
position = "{324, 577}";
},
{
name = bottom;
position = "{191, -77}";
}
);
guides = (
{
position = "{0, -77}";
}
);
hints = (
{
horizontal = 1;
place = (-6,190);
type = Stem;
},
{
place = (19,132);
type = Stem;
},
{
place = (34,156);
type = Stem;
},
{
place = (319,115);
type = Stem;
},
{
place = (319,159);
type = Stem;
}
);
layerId = "F3B99A47-B03A-4C9D-AB53-5F3A31A2DF8F";
shapes = (
{
closed = 1;
nodes = (
(454,511,l),
(452,502,ls),
(449,488,o),
(435,481,o),
(416,481,cs),
(389,481,o),
(351,501,o),
(274,501,cs),
(179,501,o),
(60,438,o),
(60,329,cs),
(60,265,o),
(102,227,o),
(180,189,cs),
(238,161,o),
(297,136,o),
(297,89,cs),
(297,24,o),
(249,-2,o),
(196,-2,cs),
(170,-2,o),
(112,6,o),
(103,37,c),
(128,60,o),
(151,86,o),
(156,118,cs),
(163,156,o),
(139,191,o),
(91,191,cs),
(53,191,o),
(19,156,o),
(17,112,cs),
(14,40,o),
(97,-10,o),
(202,-10,cs),
(338,-10,o),
(445,66,o),
(445,185,cs),
(445,270,o),
(383,311,o),
(324,343,cs),
(266,374,o),
(208,397,o),
(216,447,cs),
(220,472,o),
(239,493,o),
(291,493,cs),
(394,493,o),
(431,416,o),
(425,329,c),
(430,329,l),
(460,511,l)
);
}
);
width = 452;
}
);
unicode = 115;
},
{
color = (154, 153, 255, 255);
glyphname = s.4;
layers = (
{
background = {
shapes = (
{
closed = 1;
nodes = (
(349,500,l),
(348,495,ls),
(346,484,o),
(335,479,o),
(322,479,cs),
(298,479,o),
(262,499,o),
(211,499,cs),
(141,499,o),
(63,451,o),
(63,368,cs),
(63,297,o),
(121,266,o),
(174,233,cs),
(222,203,o),
(269,176,o),
(269,112,cs),
(269,56,o),
(234,0,o),
(155,0,cs),
(122,0,o),
(78,11,o),
(66,55,c),
(82,68,o),
(95,88,o),
(99,111,cs),
(103,139,o),
(91,164,o),
(65,164,cs),
(29,164,o),
(10,126,o),
(10,90,cs),
(10,15,o),
(96,-7,o),
(151,-7,cs),
(247,-7,o),
(336,46,o),
(336,151,cs),
(336,225,o),
(273,260,o),
(215,297,cs),
(168,327,o),
(123,358,o),
(123,411,cs),
(123,470,o),
(165,491,o),
(213,491,cs),
(275,491,o),
(339,446,o),
(328,346,c),
(334,346,l),
(354,500,l)
);
}
);
};
layerId = "A01EDA77-E91F-4F54-AC7E-74E4C922CA36";
shapes = (
{
closed = 1;
nodes = (
(357,506,l),
(353,488,o),
(341,481,o),
(327,481,cs),
(301,481,o),
(277,501,o),
(225,501,cs),
(150,501,o),
(60,453,o),
(60,356,cs),
(60,219,o),
(276,169,o),
(276,23,cs),
(276,-71,o),
(209,-135,o),
(128,-135,cs),
(87,-135,o),
(35,-120,o),
(15,-66,c),
(29,-52,o),
(43,-35,o),
(45,-10,cs),
(47,28,o),
(26,45,o),
(2,45,cs),
(-24,45,o),
(-51,26,o),
(-53,-12,cs),
(-58,-107,o),
(48,-142,o),
(122,-142,cs),
(228,-142,o),
(349,-70,o),
(349,52,cs),
(349,205,o),
(125,280,o),
(125,400,cs),
(125,469,o),
(171,493,o),
(217,493,cs),
(312,493,o),
(344,438,o),
(328,336,c),
(336,336,l),
(365,506,l)
);
}
);
width = 397;
},
{
layerId = "F3B99A47-B03A-4C9D-AB53-5F3A31A2DF8F";
shapes = (
{
closed = 1;
nodes = (
(480,510,l),
(479,493,o),
(470,480,o),
(444,480,cs),
(416,480,o),
(373,500,o),
(305,500,cs),
(198,500,o),
(70,441,o),
(70,310,cs),
(70,148,o),
(336,121,o),
(312,-26,cs),
(303,-83,o),
(252,-133,o),
(179,-133,cs),
(139,-133,o),
(88,-113,o),
(81,-87,c),
(109,-61,o),
(139,-26,o),
(139,17,cs),
(139,55,o),
(112,85,o),
(74,85,cs),
(20,85,o),
(-20,33,o),
(-20,-21,cs),
(-20,-100,o),
(67,-143,o),
(180,-143,cs),
(319,-143,o),
(482,-74,o),
(482,99,cs),
(482,281,o),
(230,321,o),
(230,428,cs),
(230,479,o),
(276,492,o),
(317,492,cs),
(417,492,o),
(460,408,o),
(452,337,c),
(458,337,l),
(487,510,l)
);
}
);
width = 478;
}
);
},
{
color = (255, 153, 153, 255);
glyphname = t;
layers = (
{
anchors = (
{
name = bottom;
position = "{71, -77}";
}
);
guides = (
{
position = "{0, -77}";
}
);
hints = (
{
horizontal = 1;
place = (-6,38);
type = Stem;
},
{
place = (-25,198);
type = Stem;
}
);
layerId = "A01EDA77-E91F-4F54-AC7E-74E4C922CA36";
shapes = (
{
closed = 1;
nodes = (
(55,480,l),
(275,480,l),
(276,488,l),
(56,488,l)
);
},
{
closed = 1;
nodes = (
(175,-9,o),
(217,51,o),
(242,102,c),
(238,109,l),
(207,47,o),
(175,23,o),
(147,23,cs),
(116,23,o),
(109,54,o),
(118,106,cs),
(215,659,l),
(147,659,l),
(47,101,ls),
(35,32,o),
(58,-9,o),
(111,-9,cs)
);
}
);
width = 256;
},
{
anchors = (
{
name = bottom;
position = "{146, -77}";
}
);
guides = (
{
position = "{0, -77}";
}
);
hints = (
{
horizontal = 1;
place = (-6,38);
type = Stem;
},
{
place = (50,198);
type = Stem;
}
);
layerId = "F3B99A47-B03A-4C9D-AB53-5F3A31A2DF8F";
shapes = (
{
closed = 1;
nodes = (
(49.818,467,l),
(378.818,467,l),
(381.271,481,l),
(52.271,481,l)
);
},
{
closed = 1;
nodes = (
(258.423,-9,o),
(320.469,94,o),
(343.229,144,c),
(339.455,151,l),
(317.396,105,o),
(281.636,55,o),
(256.636,55,cs),
(240.636,55,o),
(234.089,69,o),
(240.746,107,cs),
(331.325,624,l),
(137.325,624,l),
(55.156,155,ls),
(33.081,29,o),
(74.423,-9,o),
(160.423,-9,cs)
);
}
);
width = 314;
}
);
unicode = 116;
},
{
color = (154, 153, 255, 255);
glyphname = t.7;
layers = (
{
layerId = "A01EDA77-E91F-4F54-AC7E-74E4C922CA36";
shapes = (
{
closed = 1;
nodes = (
(175.423,-9,o),
(216.935,51,o),
(241.87,102,c),
(238.097,109,l),
(205.534,43,o),
(173.154,18,o),
(155.154,18,cs),
(116.154,18,o),
(107.935,51,o),
(117.571,106,cs),
(178.242,458,l),
(189.066,457,o),
(199.891,456,o),
(210.891,456,cs),
(442.891,456,o),
(625.026,628,o),
(625.241,829,cs),
(624.726,1003,o),
(489.078,1142,o),
(307.078,1142,cs),
(285.078,1142,o),
(259.728,1140,o),
(237.202,1137,c),
(236.151,1131,l),
(258.677,1134,o),
(283.027,1136,o),
(305.027,1136,cs),
(485.027,1136,o),
(618.375,1001,o),
(618.416,830,cs),
(618.376,630,o),
(436.519,471,o),
(212.519,471,cs),
(201.519,471,o),
(191.519,471,o),
(180.694,472,c),
(212.457,659,l),
(142.457,659,l),
(112.972,485,l),
(-220.085,576,o),
(-521.959,1079,o),
(-1002.959,1079,cs),
(-1414.959,1079,o),
(-1792.309,706,o),
(-1792.119,279,cs),
(-1791.768,-90,o),
(-1510.05,-377,o),
(-1134.05,-377,cs),
(-956.05,-377,o),
(-783.838,-313,o),
(-645.916,-205,c),
(-651.215,-201,l),
(-787.786,-307,o),
(-956.999,-371,o),
(-1134.999,-371,cs),
(-1507.999,-371,o),
(-1786.418,-88,o),
(-1786.294,278,cs),
(-1785.834,703,o),
(-1410.01,1073,o),
(-1003.01,1073,cs),
(-526.01,1073,o),
(-221.362,563,o),
(110.344,470,c),
(46.695,101,ls),
(34.606,32,o),
(58.423,-9,o),
(111.423,-9,cs)
);
}
);
width = 247;
},
{
layerId = "F3B99A47-B03A-4C9D-AB53-5F3A31A2DF8F";
shapes = (
{
closed = 1;
nodes = (
(258,-9,o),
(320,94,o),
(343,144,c),
(339,151,l),
(317,105,o),
(282,55,o),
(257,55,cs),
(241,55,o),
(234,69,o),
(241,107,cs),
(302,456,l),
(320,456,o),
(338,457,o),
(355,459,cs),
(560,484,o),
(714,645,o),
(714,829,cs),
(714,1003,o),
(578,1142,o),
(396,1142,cs),
(374,1142,o),
(349,1140,o),
(326,1137,c),
(325,1131,l),
(348,1134,o),
(372,1136,o),
(394,1136,cs),
(574,1136,o),
(707,1001,o),
(707,830,cs),
(707,646,o),
(553,496,o),
(353,474,cs),
(337,472,o),
(320,471,o),
(304,471,c),
(327,601,l),
(133,601,l),
(117,508,l),
(-217,639,o),
(-464,1079,o),
(-914,1079,cs),
(-1326,1079,o),
(-1703,706,o),
(-1703,279,cs),
(-1703,-90,o),
(-1421,-377,o),
(-1045,-377,cs),
(-867,-377,o),
(-695,-313,o),
(-557,-205,c),
(-562,-201,l),
(-699,-307,o),
(-868,-371,o),
(-1046,-371,cs),
(-1419,-371,o),
(-1697,-88,o),
(-1697,278,cs),
(-1697,703,o),
(-1321,1073,o),
(-914,1073,cs),
(-468,1073,o),
(-220,627,o),
(114,493,c),
(55,155,l),
(36,29,o),
(74,-9,o),
(160,-9,cs)
);
}
);
width = 315;
}
);
},
{
color = (154, 153, 255, 255);
glyphname = t.7.4;
layers = (
{
layerId = "A01EDA77-E91F-4F54-AC7E-74E4C922CA36";
shapes = (
{
closed = 1;
nodes = (
(55.096,480,l),
(280.096,480,l),
(281.498,488,l),
(56.498,488,l)
);
},
{
closed = 1;
nodes = (
(214.457,659,l),
(144.457,659,l),
(56.558,163,ls),
(-8.741,-204,o),
(293.467,-414,o),
(619.467,-414,cs),
(998.467,-414,o),
(1342.1,-125,o),
(1341.603,266,cs),
(1341.74,575,o),
(1104.138,817,o),
(787.138,817,cs),
(629.138,817,o),
(479.626,757,o),
(363.457,659,c),
(366.756,655,l),
(482.75,752,o),
(633.087,811,o),
(788.087,811,cs),
(1101.087,811,o),
(1335.214,572,o),
(1335.603,266,cs),
(1335.378,-112,o),
(1002.044,-405,o),
(630.044,-405,cs),
(350.044,-405,o),
(58.106,-222,o),
(122.878,142,cs)
);
}
);
width = 229;
},
{
layerId = "F3B99A47-B03A-4C9D-AB53-5F3A31A2DF8F";
shapes = (
{
closed = 1;
nodes = (
(49.818,467,l),
(378.818,467,l),
(381.271,481,l),
(52.271,481,l)
);
},
{
closed = 1;
nodes = (
(331.325,624,l),
(137.325,624,l),
(55.156,155,ls),
(-9.843,-216,o),
(353.16,-450,o),
(681.16,-450,cs),
(1090.16,-450,o),
(1365.771,-144,o),
(1362.916,205,cs),
(1363.301,504,o),
(1132.473,739,o),
(825.473,739,cs),
(672.473,739,o),
(548.238,692,o),
(430.667,586,c),
(434.791,581,l),
(552.362,687,o),
(675.422,733,o),
(825.422,733,cs),
(1128.422,733,o),
(1356.775,501,o),
(1356.916,205,cs),
(1357.998,-137,o),
(1090.613,-436,o),
(707.613,-436,cs),
(475.613,-436,o),
(159.454,-357,o),
(251.609,169,cs)
);
}
);
width = 321;
}
);
},
{
color = (154, 153, 255, 255);
glyphname = t.9;
layers = (
{
layerId = "A01EDA77-E91F-4F54-AC7E-74E4C922CA36";
shapes = (
{
closed = 1;
nodes = (
(48.096,480,l),
(283.096,480,l),
(284.498,488,l),
(49.498,488,l)
);
},
{
closed = 1;
nodes = (
(51.938,188,ls),
(21.102,12,o),
(97.706,-93,o),
(253.706,-93,cs),
(401.706,-93,o),
(494.555,26,o),
(495.024,120,cs),
(494.733,164,o),
(473.69,198,o),
(432.69,198,cs),
(397.69,198,o),
(370.134,172,o),
(370.054,143,cs),
(369.849,119,o),
(388.17,98,o),
(418.17,98,cs),
(443.17,98,o),
(465.622,112,o),
(475.951,131,c),
(477.55,123,o),
(479.148,115,o),
(479.396,105,cs),
(479.051,6,o),
(382.86,-75,o),
(286.86,-75,cs),
(183.86,-75,o),
(83.569,-31,o),
(121.412,185,cs),
(204.457,659,l),
(134.457,659,l)
);
}
);
width = 515;
},
{
layerId = "F3B99A47-B03A-4C9D-AB53-5F3A31A2DF8F";
shapes = (
{
closed = 1;
nodes = (
(41.468,465,l),
(370.468,465,l),
(373.271,481,l),
(44.271,481,l)
);
},
{
closed = 1;
nodes = (
(61.318,213,ls),
(23.518,-37,o),
(162.553,-111,o),
(312.553,-111,cs),
(466.553,-111,o),
(588.248,-10,o),
(597.002,137,cs),
(600.916,205,o),
(562.078,263,o),
(493.078,263,cs),
(438.078,263,o),
(395.42,225,o),
(391.361,179,cs),
(386.652,135,o),
(417.644,95,o),
(472.469,94,cs),
(515.294,93,o),
(544.674,118,o),
(566.455,151,c),
(570.25,127,o),
(568.746,107,o),
(563.717,84,cs),
(543.774,-7,o),
(489.283,-84,o),
(363.283,-84,cs),
(270.283,-84,o),
(218.278,13,o),
(241.032,160,cs),
(313.419,596,l),
(119.419,596,l)
);
}
);
width = 690;
}
);
},
{
color = (255, 153, 153, 255);
glyphname = u;
rightMetricsKey = a;
layers = (
{
anchors = (
{
name = top;
position = "{295, 577}";
}
);
hints = (
{
horizontal = 1;
place = (-6,46);
type = Stem;
},
{
horizontal = 1;
place = (-7,21);
target = up;
type = BottomGhost;
},
{
horizontal = 1;
place = (463,-20);
target = down;
type = TopGhost;
},
{
place = (23,197);
type = Stem;
},
{
place = (338,196);
type = Stem;
},
{
place = (338,249);
type = Stem;
}
);
layerId = "A01EDA77-E91F-4F54-AC7E-74E4C922CA36";
leftMetricsKey = i;
shapes = (
{
closed = 1;
nodes = (
(521.097,109,l),
(488.534,43,o),
(456.154,18,o),
(438.154,18,cs),
(407.154,18,o),
(406.461,54,o),
(415.571,106,cs),
(485.6,500,l),
(470.023,491,o),
(430.622,483,o),
(408.622,483,c),
(338.695,101,ls),
(325.606,32,o),
(347.423,-9,o),
(394.423,-9,cs),
(458.423,-9,o),
(499.935,51,o),
(524.87,102,c)
);
},
{
closed = 1;
nodes = (
(5.926,382,l),
(38.49,448,o),
(70.87,473,o),
(88.87,473,cs),
(119.87,473,o),
(121.562,437,o),
(111.452,385,cs),
(63.754,147,ls),
(39.906,28,o),
(83.423,-9,o),
(147.423,-9,cs,{name = hr01;}),
(270.423,-9,o),
(350.601,129,o),
(370.574,243,c),
(368.501,254,l),
(357.288,190,o),
(300.679,21,o),
(191.679,21,cs),
(139.679,21,o),
(119.337,59,o),
(130.674,118,cs),
(183.328,390,ls),
(196.592,460,o),
(179.6,500,o),
(132.6,500,cs),
(68.6,500,o),
(27.088,440,o),
(2.153,389,c)
);
}
);
width = 525;
},
{
anchors = (
{
name = top;
position = "{407, 577}";
}
);
hints = (
{
horizontal = 1;
place = (-6,46);
type = Stem;
},
{
horizontal = 1;
place = (-7,21);
target = up;
type = BottomGhost;
},
{
horizontal = 1;
place = (463,-20);
target = down;
type = TopGhost;
},
{
place = (69,197);
type = Stem;
},
{
place = (384,196);
type = Stem;
},
{
place = (384,249);
type = Stem;
}
);
layerId = "F3B99A47-B03A-4C9D-AB53-5F3A31A2DF8F";
leftMetricsKey = n;
shapes = (
{
closed = 1;
nodes = (
(656.951,131,l),
(639.994,97,o),
(605.183,41,o),
(583.709,44,cs),
(570.059,46,o),
(568.512,60,o),
(576.571,106,cs),
(644.6,500,l),
(600.322,487,o),
(500.87,473,o),
(437.818,467,c),
(388.237,184,l),
(364.234,47,o),
(402.423,-9,o),
(497.423,-9,cs),
(585.423,-9,o),
(640.191,81,o),
(660.725,124,c)
);
},
{
closed = 1;
nodes = (
(34.072,360,l),
(50.854,393,o),
(84.314,447,o),
(105.314,447,cs),
(119.314,447,o),
(127.511,431,o),
(117.452,385,cs),
(76.04,200,ls),
(44.986,57,o),
(79.949,-6,o),
(199.949,-6,cs,{name = hr01;}),
(270.949,-6,o),
(357.679,21,o),
(405.15,252,c),
(400.15,252,l),
(389.989,194,o),
(336.358,42,o),
(286.358,42,cs),
(259.358,42,o),
(242.388,65,o),
(253.674,118,cs),
(299.59,323,ls),
(326.964,445,o),
(282.6,500,o),
(203.6,500,cs),
(105.6,500,o),
(51.832,410,o),
(30.298,367,c)
);
}
);
width = 641;
}
);
unicode = 117;
},
{
color = (154, 153, 255, 255);
glyphname = u.5;
layers = (
{
layerId = "A01EDA77-E91F-4F54-AC7E-74E4C922CA36";
leftMetricsKey = i;
shapes = (
{
closed = 1;
nodes = (
(5.926,382,l),
(38.49,448,o),
(70.87,473,o),
(88.87,473,cs),
(119.87,473,o),
(121.562,437,o),
(111.452,385,cs),
(63.754,147,ls),
(39.906,28,o),
(83.423,-9,o),
(147.423,-9,cs,{name = hr01;}),
(270.423,-9,o),
(350.601,129,o),
(370.574,243,c),
(368.501,254,l),
(357.288,190,o),
(300.679,21,o),
(191.679,21,cs),
(139.679,21,o),
(119.337,59,o),
(130.674,118,cs),
(183.328,390,ls),
(196.592,460,o),
(179.6,500,o),
(132.6,500,cs),
(68.6,500,o),
(27.088,440,o),
(2.153,389,c)
);
},
{
closed = 1;
nodes = (
(739.523,-134,l),
(706.537,-191,o),
(625.281,-221,o),
(561.281,-221,cs),
(452.281,-221,o),
(372.771,-144,o),
(403.431,31,cs),
(486.6,500,l),
(471.023,491,o),
(431.622,483,o),
(409.622,483,c),
(334.738,67,ls),
(302.728,-110,o),
(383.704,-230,o),
(543.704,-230,cs),
(619.704,-230,o),
(706.61,-202,o),
(743.647,-139,c)
);
}
);
width = 523;
},
{
layerId = "F3B99A47-B03A-4C9D-AB53-5F3A31A2DF8F";
leftMetricsKey = n;
shapes = (
{
closed = 1;
nodes = (
(34.072,360,l),
(50.854,393,o),
(84.314,447,o),
(105.314,447,cs),
(119.314,447,o),
(127.511,431,o),
(117.452,385,cs),
(76.04,200,ls),
(44.986,57,o),
(79.949,-6,o),
(199.949,-6,cs,{name = hr01;}),
(270.949,-6,o),
(357.679,21,o),
(405.15,252,c),
(400.15,252,l),
(389.989,194,o),
(336.358,42,o),
(286.358,42,cs),
(259.358,42,o),
(242.388,65,o),
(253.674,118,cs),
(299.59,323,ls),
(326.964,445,o),
(282.6,500,o),
(203.6,500,cs),
(105.6,500,o),
(51.832,410,o),
(30.298,367,c)
);
},
{
closed = 1;
nodes = (
(912.523,-134,l),
(879.362,-192,o),
(798.106,-222,o),
(733.106,-222,cs),
(627.106,-222,o),
(528.895,-149,o),
(561.431,31,cs),
(644.6,500,l),
(600.322,487,o),
(500.87,473,o),
(437.818,467,c),
(388.237,184,l),
(341.693,-36,o),
(384.127,-239,o),
(687.127,-239,cs),
(775.127,-239,o),
(874.558,-208,o),
(916.647,-139,c)
);
}
);
width = 644;
}
);
},
{
color = (154, 153, 255, 255);
glyphname = u.4;
layers = (
{
layerId = "A01EDA77-E91F-4F54-AC7E-74E4C922CA36";
leftMetricsKey = i;
shapes = (
{
closed = 1;
nodes = (
(5.926,382,l),
(38.49,448,o),
(70.87,473,o),
(88.87,473,cs),
(119.87,473,o),
(121.562,437,o),
(111.452,385,cs),
(102.743,341,o),
(71.762,187,o),
(63.754,147,cs),
(39.906,28,o),
(83.423,-9,o),
(147.423,-9,cs,{name = hr01;}),
(270.423,-9,o),
(350.601,129,o),
(370.574,243,c),
(369.924,245,o),
(369.15,252,o),
(368.501,254,c),
(357.288,190,o),
(300.679,21,o),
(191.679,21,cs),
(139.679,21,o),
(119.337,59,o),
(130.674,118,cs),
(139.733,164,o),
(174.269,344,o),
(183.328,390,cs),
(196.592,460,o),
(179.6,500,o),
(132.6,500,cs),
(68.6,500,o),
(27.088,440,o),
(2.153,389,c)
);
},
{
closed = 1;
nodes = (
(485.6,500,l),
(470.023,491,o),
(430.622,483,o),
(408.622,483,c),
(403.366,453,o),
(370.304,270,o),
(353.134,172,cs),
(284.836,-195,o),
(594.467,-414,o),
(920.467,-414,cs),
(1299.467,-414,o),
(1644.1,-125,o),
(1643.603,266,cs),
(1643.74,575,o),
(1405.138,817,o),
(1088.138,817,cs),
(930.138,817,o),
(781.626,757,o),
(664.457,659,c),
(664.457,659,o),
(667.756,655,o),
(667.756,655,c),
(783.75,752,o),
(934.087,811,o),
(1089.087,811,cs),
(1402.087,811,o),
(1637.214,572,o),
(1637.603,266,cs),
(1637.378,-112,o),
(1303.044,-405,o),
(931.044,-405,cs),
(651.044,-405,o),
(361.106,-222,o),
(423.878,142,cs)
);
}
);
width = 523;
},
{
layerId = "F3B99A47-B03A-4C9D-AB53-5F3A31A2DF8F";
leftMetricsKey = n;
shapes = (
{
closed = 1;
nodes = (
(34.072,360,l),
(50.854,393,o),
(84.314,447,o),
(105.314,447,cs),
(119.314,447,o),
(127.511,431,o),
(117.452,385,cs),
(109.495,351,o),
(82.296,230,o),
(76.04,200,cs),
(44.986,57,o),
(79.949,-6,o),
(199.949,-6,cs,{name = hr01;}),
(270.949,-6,o),
(357.679,21,o),
(405.15,252,c),
(404.15,252,o),
(401.15,252,o),
(400.15,252,c),
(389.989,194,o),
(336.358,42,o),
(286.358,42,cs),
(259.358,42,o),
(242.388,65,o),
(253.674,118,cs),
(261.806,153,o),
(291.458,288,o),
(299.59,323,cs),
(326.964,445,o),
(282.6,500,o),
(203.6,500,cs),
(105.6,500,o),
(51.832,410,o),
(30.298,367,c)
);
},
{
closed = 1;
nodes = (
(644.6,500,l),
(600.322,487,o),
(500.87,473,o),
(437.818,467,c),
(430.635,426,o),
(400.15,252,o),
(388.237,184,cs),
(322.887,-189,o),
(644.847,-389,o),
(987.847,-389,cs),
(1335.847,-389,o),
(1634.582,-88,o),
(1634.676,255,cs),
(1635.061,554,o),
(1404.233,789,o),
(1097.233,789,cs),
(944.233,789,o),
(819.998,742,o),
(702.427,636,c),
(703.252,635,o),
(705.726,632,o),
(706.551,631,c),
(824.122,737,o),
(947.182,783,o),
(1097.182,783,cs),
(1400.182,783,o),
(1628.535,551,o),
(1628.676,255,cs),
(1629.108,-85,o),
(1330.898,-383,o),
(987.898,-383,cs),
(752.898,-383,o),
(507.871,-269,o),
(571.418,88,cs)
);
}
);
width = 635;
}
);
},
{
color = (154, 153, 255, 255);
glyphname = u.4.2;
layers = (
{
layerId = "A01EDA77-E91F-4F54-AC7E-74E4C922CA36";
shapes = (
{
closed = 1;
nodes = (
(350.134,172,ls),
(285.836,-195,o),
(591.467,-414,o),
(917.467,-414,cs),
(1296.467,-414,o),
(1641.1,-125,o),
(1640.603,266,cs),
(1640.74,575,o),
(1402.138,817,o),
(1085.138,817,cs),
(927.138,817,o),
(778.626,757,o),
(661.457,659,c),
(664.756,655,l),
(780.75,752,o),
(931.087,811,o),
(1086.087,811,cs),
(1399.087,811,o),
(1634.214,572,o),
(1634.603,266,cs),
(1634.378,-112,o),
(1300.044,-405,o),
(928.044,-405,cs),
(648.044,-405,o),
(358.106,-222,o),
(420.878,142,cs),
(482.6,500,l),
(467.023,491,o),
(427.622,483,o),
(405.622,483,c),
(364.15,252,l)
);
},
{
closed = 1;
nodes = (
(173.73,398,ls),
(236.874,747,o),
(11.995,976,o),
(-338.005,976,cs),
(-752.005,976,o),
(-1111.85,623,o),
(-1111.383,209,cs),
(-1111.878,-142,o),
(-842.234,-418,o),
(-483.234,-418,cs),
(-304.234,-418,o),
(-134.145,-349,o),
(-1.522,-237,c),
(-4.822,-233,l),
(-137.269,-344,o),
(-307.182,-412,o),
(-483.182,-412,cs),
(-838.182,-412,o),
(-1105.178,-138,o),
(-1105.383,209,cs),
(-1105.252,615,o),
(-751.582,967,o),
(-344.582,967,cs),
(-31.582,967,o),
(173.481,779,o),
(101.452,385,cs),
(57.754,147,ls),
(35.906,28,o),
(80.774,-7,o),
(165.774,-7,cs,{name = hr01;}),
(275.774,-7,o),
(346.25,127,o),
(366.223,241,c),
(364.15,252,l),
(352.938,188,o),
(307.03,23,o),
(195.03,23,cs),
(135.03,23,o),
(112.337,59,o),
(122.674,118,cs)
);
}
);
width = 518;
},
{
layerId = "F3B99A47-B03A-4C9D-AB53-5F3A31A2DF8F";
shapes = (
{
closed = 1;
nodes = (
(370,184,ls),
(304,-189,o),
(627,-389,o),
(970,-389,cs),
(1318,-389,o),
(1617,-88,o),
(1617,255,cs),
(1617,554,o),
(1386,789,o),
(1079,789,cs),
(926,789,o),
(802,742,o),
(684,636,c),
(689,631,l),
(806,737,o),
(929,783,o),
(1079,783,cs),
(1382,783,o),
(1611,551,o),
(1611,255,cs),
(1611,-85,o),
(1313,-383,o),
(970,-383,cs),
(735,-383,o),
(490,-269,o),
(553,88,cs),
(627,500,l),
(582,487,o),
(483,473,o),
(420,467,c),
(382,252,l)
);
},
{
closed = 1;
nodes = (
(291,398,ls),
(360,747,o),
(83,976,o),
(-328,976,cs),
(-742,976,o),
(-1102,623,o),
(-1102,209,cs),
(-1102,-142,o),
(-832,-418,o),
(-473,-418,cs),
(-294,-418,o),
(-124,-349,o),
(8,-237,c),
(5,-233,l),
(-127,-344,o),
(-297,-412,o),
(-473,-412,cs),
(-828,-412,o),
(-1096,-138,o),
(-1096,209,cs),
(-1096,615,o),
(-742,967,o),
(-335,967,cs),
(-35,967,o),
(175,792,o),
(103,428,cs),
(58,200,ls),
(27,57,o),
(62,-6,o),
(182,-6,cs,{name = hr01;}),
(253,-6,o),
(340,21,o),
(387,252,c),
(382,252,l),
(372,194,o),
(318,42,o),
(268,42,cs),
(241,42,o),
(225,65,o),
(236,118,cs)
);
}
);
width = 617;
}
);
},
{
color = (154, 153, 255, 255);
glyphname = u.005;
rightMetricsKey = a;
layers = (
{
layerId = "A01EDA77-E91F-4F54-AC7E-74E4C922CA36";
shapes = (
{
closed = 1;
nodes = (
(337.695,101,ls),
(325.606,32,o),
(345.423,-9,o),
(395.423,-9,cs),
(456.423,-9,o),
(497.935,51,o),
(522.87,102,c),
(519.097,109,l),
(486.534,43,o),
(454.154,18,o),
(432.154,18,cs),
(405.154,18,o),
(404.461,54,o),
(413.571,106,cs),
(482.6,500,l),
(467.023,491,o),
(427.622,483,o),
(405.622,483,c)
);
},
{
closed = 1;
nodes = (
(173.73,398,ls),
(236.874,747,o),
(11.995,976,o),
(-338.005,976,cs),
(-752.005,976,o),
(-1111.85,623,o),
(-1111.383,209,cs),
(-1111.878,-142,o),
(-842.234,-418,o),
(-483.234,-418,cs),
(-304.234,-418,o),
(-134.145,-349,o),
(-1.522,-237,c),
(-4.822,-233,l),
(-137.269,-344,o),
(-307.182,-412,o),
(-483.182,-412,cs),
(-838.182,-412,o),
(-1105.178,-138,o),
(-1105.383,209,cs),
(-1105.252,615,o),
(-751.582,967,o),
(-344.582,967,cs),
(-31.582,967,o),
(173.481,779,o),
(101.452,385,cs),
(57.754,147,ls),
(35.906,28,o),
(80.774,-7,o),
(165.774,-7,cs,{name = hr01;}),
(275.774,-7,o),
(346.25,127,o),
(366.223,241,c),
(364.15,252,l),
(352.938,188,o),
(307.03,23,o),
(195.03,23,cs),
(135.03,23,o),
(112.337,59,o),
(122.674,118,cs)
);
}
);
width = 523;
},
{
layerId = "F3B99A47-B03A-4C9D-AB53-5F3A31A2DF8F";
shapes = (
{
closed = 1;
nodes = (
(370,184,l),
(346,47,o),
(384,-9,o),
(479,-9,cs),
(567,-9,o),
(622,81,o),
(643,124,c),
(639,131,l),
(622,97,o),
(587,41,o),
(566,44,cs),
(552,46,o),
(551,60,o),
(559,106,cs),
(627,500,l),
(582,487,o),
(483,473,o),
(420,467,c)
);
},
{
closed = 1;
nodes = (
(291,398,ls),
(360,747,o),
(83,976,o),
(-328,976,cs),
(-742,976,o),
(-1102,623,o),
(-1102,209,cs),
(-1102,-142,o),
(-832,-418,o),
(-473,-418,cs),
(-294,-418,o),
(-124,-349,o),
(8,-237,c),
(5,-233,l),
(-127,-344,o),
(-297,-412,o),
(-473,-412,cs),
(-828,-412,o),
(-1096,-138,o),
(-1096,209,cs),
(-1096,615,o),
(-742,967,o),
(-335,967,cs),
(-35,967,o),
(175,792,o),
(103,428,cs),
(58,200,ls),
(27,57,o),
(62,-6,o),
(182,-6,cs,{name = hr01;}),
(253,-6,o),
(340,21,o),
(387,252,c),
(382,252,l),
(372,194,o),
(318,42,o),
(268,42,cs),
(241,42,o),
(225,65,o),
(236,118,cs)
);
}
);
width = 623;
}
);
},
{
color = (154, 153, 255, 255);
glyphname = u.9;
layers = (
{
layerId = "A01EDA77-E91F-4F54-AC7E-74E4C922CA36";
leftMetricsKey = i;
shapes = (
{
closed = 1;
nodes = (
(483.6,500,l),
(468.023,491,o),
(428.622,483,o),
(406.622,483,c),
(366.15,252,l),
(355.938,188,ls),
(328.102,12,o),
(404.706,-93,o),
(560.706,-93,cs),
(708.706,-93,o),
(802.555,26,o),
(802.024,120,cs),
(801.733,164,o),
(780.69,198,o),
(739.69,198,cs),
(704.69,198,o),
(677.134,172,o),
(677.054,143,cs),
(676.849,119,o),
(695.17,98,o),
(725.17,98,cs),
(750.17,98,o),
(773.622,112,o),
(782.951,131,c),
(785.55,123,o),
(786.148,115,o),
(786.396,105,cs),
(786.051,6,o),
(689.86,-75,o),
(593.86,-75,cs),
(490.86,-75,o),
(390.569,-31,o),
(428.412,185,cs)
);
},
{
closed = 1;
nodes = (
(5.926,382,l),
(38.49,448,o),
(70.87,473,o),
(88.87,473,cs),
(119.87,473,o),
(121.562,437,o),
(111.452,385,cs),
(63.754,147,ls),
(39.906,28,o),
(83.423,-9,o),
(147.423,-9,cs,{name = hr01;}),
(270.423,-9,o),
(350.601,129,o),
(370.574,243,c),
(368.501,254,l),
(357.288,190,o),
(300.679,21,o),
(191.679,21,cs),
(139.679,21,o),
(119.337,59,o),
(130.674,118,cs),
(183.328,390,ls),
(196.592,460,o),
(179.6,500,o),
(132.6,500,cs),
(68.6,500,o),
(27.088,440,o),
(2.153,389,c)
);
}
);
width = 822;
},
{
layerId = "F3B99A47-B03A-4C9D-AB53-5F3A31A2DF8F";
leftMetricsKey = n;
shapes = (
{
closed = 1;
nodes = (
(644.6,500,l),
(600.322,487,o),
(500.87,473,o),
(437.818,467,c),
(400.15,252,l),
(388.237,184,ls),
(348.992,-40,o),
(505.553,-111,o),
(657.553,-111,cs),
(811.553,-111,o),
(933.248,-10,o),
(942.002,137,cs),
(945.916,205,o),
(907.078,263,o),
(838.078,263,cs),
(783.078,263,o),
(740.42,225,o),
(736.361,179,cs),
(731.652,135,o),
(762.644,95,o),
(817.469,94,cs),
(860.294,93,o),
(889.674,118,o),
(911.455,151,c),
(915.25,127,o),
(913.746,107,o),
(908.717,84,cs),
(888.774,-7,o),
(834.283,-84,o),
(708.283,-84,cs),
(615.283,-84,o),
(552.547,-14,o),
(584.032,160,cs)
);
},
{
closed = 1;
nodes = (
(34.072,360,l),
(50.854,393,o),
(84.314,447,o),
(105.314,447,cs),
(119.314,447,o),
(127.511,431,o),
(117.452,385,cs),
(76.04,200,ls),
(43.986,57,o),
(79.949,-6,o),
(199.949,-6,cs,{name = hr01;}),
(270.949,-6,o),
(357.679,21,o),
(405.15,252,c),
(400.15,252,l),
(389.989,194,o),
(336.358,42,o),
(286.358,42,cs),
(259.358,42,o),
(241.388,65,o),
(253.674,118,cs),
(299.59,323,ls),
(326.964,445,o),
(282.6,500,o),
(203.6,500,cs),
(105.6,500,o),
(51.832,410,o),
(30.298,367,c)
);
}
);
width = 1001;
}
);
},
{
color = (255, 153, 153, 255);
glyphname = v;
layers = (
{
guides = (
{
position = "{0, 481}";
},
{
position = "{0, 473}";
}
);
hints = (
{
horizontal = 1;
place = (-15,21);
target = up;
type = BottomGhost;
},
{
horizontal = 1;
place = (477,-20);
target = down;
type = TopGhost;
},
{
place = (311,30);
type = Stem;
},
{
place = (311,76);
type = Stem;
},
{
place = (491,22);
type = Stem;
}
);
layerId = "A01EDA77-E91F-4F54-AC7E-74E4C922CA36";
leftMetricsKey = i;
shapes = (
{
closed = 1;
nodes = (
(183,390,ls),
(197,460,o),
(180,500,o),
(133,500,cs),
(69,500,o),
(27,440,o),
(2,389,c),
(6,382,l),
(38,448,o),
(71,473,o),
(89,473,cs),
(120,473,o),
(120,437,o),
(110,385,cs),
(57,122,ls),
(45,63,o),
(57,-9,o),
(132,-9,cs),
(301,-9,o),
(414,298,o),
(414,430,cs),
(414,474,o),
(395,500,o),
(362,500,cs),
(323,500,o),
(304,466,o),
(304,433,cs),
(304,401,o),
(321,369,o),
(357,369,cs),
(367,369,o),
(378,373,o),
(386,380,c),
(391,268,o),
(288,18,o),
(174,18,cs),
(118,18,o),
(122,89,o),
(130,127,cs)
);
}
);
width = 444;
},
{
guides = (
{
position = "{0, 481}";
},
{
position = "{0, 473}";
}
);
hints = (
{
horizontal = 1;
place = (-15,21);
target = up;
type = BottomGhost;
},
{
horizontal = 1;
place = (477,-20);
target = down;
type = TopGhost;
},
{
place = (331,30);
type = Stem;
},
{
place = (331,76);
type = Stem;
},
{
place = (511,22);
type = Stem;
}
);
layerId = "F3B99A47-B03A-4C9D-AB53-5F3A31A2DF8F";
shapes = (
{
closed = 1;
nodes = (
(300,323,ls),
(327,445,o),
(283,500,o),
(204,500,cs),
(106,500,o),
(52,410,o),
(30,367,c),
(34,360,l),
(51,393,o),
(84,447,o),
(105,447,cs),
(119,447,o),
(128,431,o),
(117,385,cs),
(74,200,ls),
(41,57,o),
(80,-6,o),
(200,-6,cs,{name = hr01;}),
(353,-6,o),
(487,279,o),
(487,413,cs),
(487,468,o),
(464,500,o),
(422,500,cs),
(374,500,o),
(350,458,o),
(350,417,cs),
(350,377,o),
(372,338,o),
(416,338,cs),
(429,338,o),
(442,342,o),
(452,351,c),
(463,273,o),
(353,44,o),
(276,44,cs),
(257,44,o),
(241,63,o),
(254,118,cs)
);
}
);
width = 486;
}
);
unicode = 118;
},
{
color = (154, 153, 255, 255);
glyphname = v.alt;
layers = (
{
guides = (
{
position = "{0, 481}";
},
{
position = "{0, 473}";
}
);
hints = (
{
horizontal = 1;
place = (-15,21);
target = up;
type = BottomGhost;
},
{
horizontal = 1;
place = (477,-20);
target = down;
type = TopGhost;
},
{
place = (292,30);
type = Stem;
},
{
place = (292,76);
type = Stem;
},
{
place = (472,22);
type = Stem;
}
);
layerId = "A01EDA77-E91F-4F54-AC7E-74E4C922CA36";
shapes = (
{
closed = 1;
nodes = (
(131,0,l),
(199,0,l),
(355,319,ls),
(431,474,o),
(463,473,o),
(518,473,c),
(519,481,l),
(321,481,l),
(320,473,l),
(382,473,o),
(412,459,o),
(343,316,cs),
(205,29,l),
(146,410,ls),
(139,458,o),
(172,473,o),
(198,473,c),
(199,481,l),
(14,481,l),
(13,473,l),
(43,473,o),
(63,454,o),
(68,419,cs)
);
}
);
width = 439;
},
{
guides = (
{
position = "{0, 481}";
},
{
position = "{0, 473}";
}
);
hints = (
{
horizontal = 1;
place = (-15,21);
target = up;
type = BottomGhost;
},
{
horizontal = 1;
place = (477,-20);
target = down;
type = TopGhost;
},
{
place = (291,30);
type = Stem;
},
{
place = (291,76);
type = Stem;
},
{
place = (471,22);
type = Stem;
}
);
layerId = "F3B99A47-B03A-4C9D-AB53-5F3A31A2DF8F";
shapes = (
{
closed = 1;
nodes = (
(145,0,l),
(287,0,l),
(418,237,ls),
(505,392,o),
(562,473,o),
(639,473,c),
(640,481,l),
(382,481,l),
(381,473,l),
(505,473,o),
(461,331,o),
(406,233,cs),
(334,104,l),
(294,410,l),
(289,454,o),
(303,473,o),
(329,473,c),
(330,481,l),
(13,481,l),
(12,473,l),
(50,473,o),
(70,454,o),
(75,419,cs)
);
}
);
width = 514;
}
);
},
{
color = (154, 153, 255, 255);
glyphname = v.4;
layers = (
{
guides = (
{
position = "{0, 481}";
},
{
position = "{0, 473}";
},
{
position = "{0, 481}";
},
{
position = "{0, 473}";
}
);
hints = (
{
horizontal = 1;
place = (-15,21);
target = up;
type = BottomGhost;
},
{
horizontal = 1;
place = (477,-20);
target = down;
type = TopGhost;
},
{
place = (303,30);
type = Stem;
},
{
place = (303,76);
type = Stem;
},
{
place = (483,22);
type = Stem;
}
);
layerId = "A01EDA77-E91F-4F54-AC7E-74E4C922CA36";
shapes = (
{
closed = 1;
nodes = (
(736,866,o),
(492,673,o),
(296,234,cs),
(211,44,l),
(156,410,ls),
(149,458,o),
(182,473,o),
(208,473,c),
(209,481,l),
(24,481,l),
(23,473,l),
(53,473,o),
(73,454,o),
(78,419,cs),
(141,0,l),
(199,0,l),
(306,232,ls),
(529,716,o),
(807,823,o),
(1051,823,cs),
(1442,823,o),
(1663,547,o),
(1663,258,cs),
(1663,-97,o),
(1347,-407,o),
(993,-407,cs),
(838,-407,o),
(702,-348,o),
(605,-251,c),
(600,-255,l),
(697,-353,o),
(833,-413,o),
(991,-413,cs),
(1359,-413,o),
(1672,-95,o),
(1672,271,cs),
(1672,583,o),
(1453,866,o),
(1060,866,cs)
);
}
);
width = 445;
},
{
guides = (
{
position = "{0, 481}";
},
{
position = "{0, 473}";
},
{
position = "{0, 481}";
},
{
position = "{0, 473}";
}
);
hints = (
{
horizontal = 1;
place = (-15,21);
target = up;
type = BottomGhost;
},
{
horizontal = 1;
place = (477,-20);
target = down;
type = TopGhost;
},
{
place = (331,30);
type = Stem;
},
{
place = (331,76);
type = Stem;
},
{
place = (511,22);
type = Stem;
}
);
layerId = "F3B99A47-B03A-4C9D-AB53-5F3A31A2DF8F";
shapes = (
{
closed = 1;
nodes = (
(821,869,o),
(594,611,o),
(379,226,cs),
(335,148,l),
(298,410,ls),
(294,454,o),
(314,473,o),
(350,473,c),
(351,481,l),
(17,481,l),
(16,473,l),
(54,473,o),
(74,454,o),
(79,419,cs),
(149,0,l),
(263,0,l),
(389,226,ls),
(622,646,o),
(896,811,o),
(1178,811,cs),
(1539,811,o),
(1768,540,o),
(1768,246,cs),
(1768,-105,o),
(1462,-407,o),
(1111,-407,cs),
(956,-407,o),
(819,-348,o),
(721,-251,c),
(715,-255,l),
(815,-353,o),
(953,-413,o),
(1111,-413,cs),
(1475,-413,o),
(1775,-103,o),
(1775,257,cs),
(1775,583,o),
(1547,869,o),
(1174,869,cs)
);
}
);
width = 481;
}
);
},
{
color = (154, 153, 255, 255);
glyphname = v.sube;
layers = (
{
layerId = "A01EDA77-E91F-4F54-AC7E-74E4C922CA36";
leftMetricsKey = v.4;
shapes = (
{
closed = 1;
nodes = (
(469,762,o),
(335,244,o),
(210,24,c),
(222,23,l),
(390,352,o),
(592,755,o),
(820,755,cs),
(842,755,o),
(868,749,o),
(881,735,c),
(841,731,o),
(819,696,o),
(819,668,cs),
(819,641,o),
(836,619,o),
(868,619,cs),
(901,619,o),
(928,644,o),
(928,680,cs),
(927,725,o),
(890,762,o),
(806,762,cs)
);
},
{
closed = 1;
nodes = (
(169,410,ls),
(163,458,o),
(184,473,o),
(221,473,c),
(222,481,l),
(24,481,l),
(23,473,l),
(73,473,o),
(88,442,o),
(93,407,cs),
(146,0,l),
(210,0,l),
(222,23,l),
(219,32,l)
);
}
);
width = 452;
},
{
layerId = "F3B99A47-B03A-4C9D-AB53-5F3A31A2DF8F";
shapes = (
{
closed = 1;
nodes = (
(603,798,o),
(484,390,o),
(320,101,c),
(327,96,l),
(495,398,o),
(707,789,o),
(933,789,cs),
(965,789,o),
(1001,778,o),
(1019,758,c),
(957,751,o),
(921,702,o),
(916,658,cs),
(912,614,o),
(939,577,o),
(990,577,cs),
(1041,577,o),
(1082,615,o),
(1087,672,cs),
(1094,744,o),
(1040,798,o),
(918,798,cs)
);
},
{
closed = 1;
nodes = (
(297,410,ls),
(291,456,o),
(313,473,o),
(349,473,c),
(350,481,l),
(16,481,l),
(15,473,l),
(53,473,o),
(73,454,o),
(78,419,cs),
(148,0,l),
(279,0,l),
(327,96,l),
(335,122,l)
);
}
);
width = 480;
}
);
},
{
color = (255, 153, 153, 255);
glyphname = w;
leftMetricsKey = u;
rightMetricsKey = v;
layers = (
{
hints = (
{
horizontal = 1;
place = (-8,21);
target = up;
type = BottomGhost;
},
{
horizontal = 1;
place = (477,-20);
target = down;
type = TopGhost;
},
{
place = (213,137);
type = Stem;
},
{
place = (524,137);
type = Stem;
},
{
place = (619,42);
type = Stem;
},
{
place = (798,20);
type = Stem;
}
);
layerId = "A01EDA77-E91F-4F54-AC7E-74E4C922CA36";
shapes = (
{
closed = 1;
nodes = (
(397,487,l),
(332,122,ls),
(322,63,o),
(332,-9,o),
(407,-9,cs),
(576,-9,o),
(689,298,o),
(689,430,cs),
(689,474,o),
(670,500,o),
(637,500,cs),
(598,500,o),
(579,466,o),
(579,433,cs),
(579,401,o),
(596,369,o),
(632,369,cs),
(642,369,o),
(653,373,o),
(661,380,c),
(666,268,o),
(563,18,o),
(449,18,cs),
(393,18,o),
(398,89,o),
(405,127,cs),
(469,487,l)
);
},
{
closed = 1;
nodes = (
(185,390,ls),
(198,460,o),
(181,500,o),
(134,500,cs),
(70,500,o),
(29,440,o),
(4,389,c),
(8,382,l),
(40,448,o),
(73,473,o),
(91,473,cs),
(122,473,o),
(123,437,o),
(113,385,cs),
(66,147,ls),
(43,28,o),
(102,-7,o),
(163,-7,cs,{name = hr01;}),
(282,-7,o),
(337,127,o),
(358,241,c),
(356,252,l),
(344,188,o),
(303,23,o),
(194,23,cs),
(143,23,o),
(122,59,o),
(133,118,cs)
);
}
);
width = 719;
},
{
hints = (
{
horizontal = 1;
place = (-8,21);
target = up;
type = BottomGhost;
},
{
horizontal = 1;
place = (477,-20);
target = down;
type = TopGhost;
},
{
place = (87,137);
type = Stem;
},
{
place = (398,137);
type = Stem;
},
{
place = (588,42);
type = Stem;
},
{
place = (789,20);
type = Stem;
}
);
layerId = "F3B99A47-B03A-4C9D-AB53-5F3A31A2DF8F";
shapes = (
{
closed = 1;
nodes = (
(441,487,l),
(390,200,ls),
(362,56,o),
(420,-6,o),
(527,-6,cs,{name = hr01;}),
(688,-6,o),
(803,279,o),
(803,413,cs),
(803,468,o),
(780,500,o),
(738,500,cs),
(690,500,o),
(666,458,o),
(666,417,cs),
(666,377,o),
(688,338,o),
(732,338,cs),
(745,338,o),
(758,342,o),
(768,351,c),
(778,273,o),
(689,44,o),
(603,44,cs),
(575,44,o),
(560,61,o),
(570,118,cs),
(636,487,l)
);
},
{
closed = 1;
nodes = (
(300,323,ls),
(327,445,o),
(283,500,o),
(204,500,cs),
(106,500,o),
(52,410,o),
(30,367,c),
(34,360,l),
(51,393,o),
(84,447,o),
(105,447,cs),
(119,447,o),
(128,431,o),
(117,385,cs),
(76,200,ls),
(45,57,o),
(80,-6,o),
(200,-6,cs,{name = hr01;}),
(271,-6,o),
(358,21,o),
(405,252,c),
(400,252,l),
(390,194,o),
(336,42,o),
(286,42,cs),
(259,42,o),
(242,65,o),
(254,118,cs)
);
}
);
width = 802;
}
);
unicode = 119;
},
{
color = (154, 153, 255, 255);
glyphname = w.alt;
rightMetricsKey = v.alt;
layers = (
{
hints = (
{
horizontal = 1;
place = (-8,21);
target = up;
type = BottomGhost;
},
{
horizontal = 1;
place = (477,-20);
target = down;
type = TopGhost;
},
{
place = (143,137);
type = Stem;
},
{
place = (454,137);
type = Stem;
},
{
place = (549,42);
type = Stem;
},
{
place = (728,20);
type = Stem;
}
);
layerId = "A01EDA77-E91F-4F54-AC7E-74E4C922CA36";
leftMetricsKey = v.alt;
shapes = (
{
closed = 1;
nodes = (
(814,481,l),
(616,481,l),
(615,473,l),
(677,473,o),
(709,455,o),
(638,316,cs),
(492,29,l),
(441,410,ls),
(435,458,o),
(465,473,o),
(491,473,c),
(492,481,l),
(309,481,l),
(308,473,l),
(338,473,o),
(359,454,o),
(363,419,cs),
(418,0,l),
(486,0,l),
(650,319,ls),
(728,470,o),
(758,473,o),
(813,473,c)
);
},
{
closed = 1;
nodes = (
(388,377,l),
(381,359,o),
(372,342,o),
(358,317,cs),
(197,29,l),
(146,410,ls),
(140,458,o),
(159,473,o),
(185,473,c),
(186,481,l),
(14,481,l),
(13,473,l),
(43,473,o),
(64,454,o),
(68,419,cs),
(123,0,l),
(191,0,l),
(370,319,ls),
(379,336,o),
(387,350,o),
(396,364,c)
);
}
);
width = 734;
},
{
hints = (
{
horizontal = 1;
place = (-8,21);
target = up;
type = BottomGhost;
},
{
horizontal = 1;
place = (477,-20);
target = down;
type = TopGhost;
},
{
place = (223,137);
type = Stem;
},
{
place = (534,137);
type = Stem;
},
{
place = (629,42);
type = Stem;
},
{
place = (808,20);
type = Stem;
}
);
layerId = "F3B99A47-B03A-4C9D-AB53-5F3A31A2DF8F";
shapes = (
{
closed = 1;
nodes = (
(956,481,l),
(698,481,l),
(697,473,l),
(821,473,o),
(771,339,o),
(723,238,cs),
(654,88,l),
(631,410,ls),
(629,455,o),
(650,473,o),
(676,473,c),
(677,481,l),
(366,481,l),
(365,473,l),
(393,473,o),
(415,455,o),
(418,419,cs),
(459,0,l),
(623,0,l),
(734,237,l),
(811,395,o),
(878,473,o),
(955,473,c)
);
},
{
closed = 1;
nodes = (
(452,318,l),
(443,291,o),
(430,264,o),
(418,238,cs),
(349,88,l),
(309,410,l),
(307,455,o),
(318,473,o),
(344,473,c),
(345,481,l),
(51,481,l),
(50,473,l),
(79,473,o),
(100,455,o),
(103,419,cs),
(154,0,l),
(318,0,l),
(429,237,l),
(441,258,o),
(450,278,o),
(460,296,c)
);
}
);
width = 830;
}
);
},
{
color = (154, 153, 255, 255);
glyphname = w.sube;
layers = (
{
layerId = "A01EDA77-E91F-4F54-AC7E-74E4C922CA36";
leftMetricsKey = v.4;
rightMetricsKey = v.sube;
shapes = (
{
closed = 1;
nodes = (
(156,410,ls),
(150,458,o),
(169,473,o),
(195,473,c),
(196,481,l),
(24,481,l),
(23,473,l),
(53,473,o),
(74,454,o),
(78,419,cs),
(133,0,l),
(201,0,l),
(380,319,ls),
(389,336,o),
(397,350,o),
(406,364,c),
(397,383,l),
(390,365,o),
(380,345,o),
(366,320,cs),
(205,35,l)
);
},
{
closed = 1;
nodes = (
(502,481,l),
(319,481,l),
(318,473,l),
(348,473,o),
(369,454,o),
(373,419,cs),
(428,0,l),
(501,0,l),
(511,23,l),
(503,35,l),
(451,410,ls),
(445,458,o),
(475,473,o),
(501,473,c)
);
},
{
closed = 1;
nodes = (
(758,762,o),
(624,244,o),
(499,24,c),
(511,23,l),
(679,352,o),
(881,755,o),
(1109,755,cs),
(1131,755,o),
(1157,749,o),
(1170,735,c),
(1130,731,o),
(1108,696,o),
(1108,668,cs),
(1108,641,o),
(1125,619,o),
(1157,619,cs),
(1190,619,o),
(1217,644,o),
(1217,680,cs),
(1216,725,o),
(1179,762,o),
(1095,762,cs)
);
}
);
width = 741;
},
{
layerId = "F3B99A47-B03A-4C9D-AB53-5F3A31A2DF8F";
leftMetricsKey = v.sube;
shapes = (
{
closed = 1;
nodes = (
(284,410,ls),
(279,456,o),
(308,473,o),
(338,473,c),
(339,481,l),
(16,481,l),
(15,473,l),
(53,473,o),
(73,454,o),
(78,419,cs),
(129,0,l),
(293,0,l),
(404,237,l),
(419,266,o),
(432,292,o),
(446,315,c),
(434,338,l),
(423,305,o),
(408,270,o),
(393,238,cs),
(324,88,l)
);
},
{
closed = 1;
nodes = (
(661,481,l),
(352,481,l),
(351,473,l),
(373,473,o),
(390,455,o),
(393,419,cs),
(434,0,l),
(598,0,l),
(636,81,l),
(629,88,l),
(606,410,ls),
(603,451,o),
(630,473,o),
(660,473,c)
);
},
{
closed = 1;
nodes = (
(920,798,o),
(789,370,o),
(625,81,c),
(636,81,l),
(804,383,o),
(1024,789,o),
(1250,789,cs),
(1282,789,o),
(1318,778,o),
(1336,758,c),
(1274,751,o),
(1237,702,o),
(1233,658,cs),
(1228,614,o),
(1256,577,o),
(1307,577,cs),
(1358,577,o),
(1399,615,o),
(1404,672,cs),
(1411,744,o),
(1357,798,o),
(1235,798,cs)
);
}
);
width = 786;
}
);
},
{
color = (255, 153, 153, 255);
glyphname = x;
layers = (
{
hints = (
{
horizontal = 1;
place = (0,21);
target = up;
type = BottomGhost;
},
{
horizontal = 1;
place = (456,-20);
target = down;
type = TopGhost;
}
);
layerId = "A01EDA77-E91F-4F54-AC7E-74E4C922CA36";
shapes = (
{
closed = 1;
nodes = (
(215,236,l),
(180,127,o),
(108,12,o),
(57,12,c),
(73,25,o),
(80,45,o),
(80,63,cs),
(80,88,o),
(66,111,o),
(38,111,cs),
(4,111,o),
(-18,77,o),
(-18,45,cs),
(-18,17,o),
(0,-9,o),
(40,-9,cs),
(84,-9,o),
(165,59,o),
(224,234,c)
);
},
{
closed = 1;
nodes = (
(251,209,l),
(273,333,o),
(366,479,o),
(426,479,c),
(410,466,o),
(403,446,o),
(403,428,cs),
(403,403,o),
(417,380,o),
(445,380,cs),
(479,380,o),
(501,414,o),
(501,446,cs),
(501,474,o),
(483,500,o),
(443,500,cs),
(399,500,o),
(311,442,o),
(256,265,c)
);
},
{
closed = 1;
nodes = (
(55,341,l),
(53,353,o),
(52,369,o),
(52,386,cs),
(52,425,o),
(60,467,o),
(96,467,cs),
(118,467,o),
(138,448,o),
(157,392,cs),
(239,148,ls),
(274,45,o),
(297,-9,o),
(349,-9,cs),
(422,-9,o),
(452,68,o),
(445,142,c),
(440,142,l),
(441,103,o),
(431,33,o),
(394,33,cs),
(372,33,o),
(352,58,o),
(336,106,cs),
(247,372,ls),
(226,435,o),
(203,500,o),
(129,500,cs),
(89,500,o),
(44,473,o),
(44,391,cs),
(44,376,o),
(46,360,o),
(49,341,c)
);
}
);
width = 480;
},
{
hints = (
{
horizontal = 1;
place = (0,21);
target = up;
type = BottomGhost;
},
{
horizontal = 1;
place = (456,-20);
target = down;
type = TopGhost;
}
);
layerId = "F3B99A47-B03A-4C9D-AB53-5F3A31A2DF8F";
shapes = (
{
closed = 1;
nodes = (
(222,224,l),
(189,109,o),
(161,44,o),
(132,44,c),
(146,61,o),
(155,88,o),
(155,114,cs),
(155,152,o),
(136,188,o),
(86,188,cs),
(14,188,o),
(-25,128,o),
(-25,74,cs),
(-25,30,o),
(0,-9,o),
(55,-9,cs),
(164,-9,o),
(205,124,o),
(229,216,c)
);
},
{
closed = 1;
nodes = (
(316,247,l),
(354,386,o),
(396,447,o),
(428,447,c),
(414,430,o),
(405,403,o),
(405,377,cs),
(405,339,o),
(424,303,o),
(474,303,cs),
(546,303,o),
(585,363,o),
(585,417,cs),
(585,461,o),
(560,500,o),
(505,500,cs),
(371,500,o),
(329,319,o),
(306,241,c)
);
},
{
closed = 1;
nodes = (
(69,331,l),
(65,355,o),
(63,374,o),
(63,388,cs),
(63,425,o),
(75,433,o),
(89,433,cs),
(102,433,o),
(117,408,o),
(127,382,cs),
(220,139,ls),
(261,33,o),
(303,-9,o),
(380,-9,cs),
(491,-9,o),
(532,76,o),
(515,153,c),
(510,153,l),
(518,97,o),
(494,47,o),
(479,47,cs),
(465,47,o),
(457,63,o),
(441,106,cs),
(342,375,ls),
(309,464,o),
(269,502,o),
(190,502,cs),
(129,502,o),
(56,478,o),
(56,386,cs),
(56,370,o),
(58,352,o),
(63,331,c)
);
}
);
width = 550;
}
);
unicode = 120;
},
{
color = (154, 153, 255, 255);
glyphname = x.alt;
layers = (
{
hints = (
{
horizontal = 1;
place = (0,21);
target = up;
type = BottomGhost;
},
{
horizontal = 1;
place = (456,-20);
target = down;
type = TopGhost;
}
);
layerId = "A01EDA77-E91F-4F54-AC7E-74E4C922CA36";
shapes = (
{
closed = 1;
nodes = (
(260,71,ls),
(279,28,o),
(255,8,o),
(204,8,c),
(203,0,l),
(452,0,l),
(453,8,l),
(416,8,o),
(369,25,o),
(352,62,cs),
(194,410,ls),
(178,445,o),
(203,473,o),
(244,473,c),
(245,481,l),
(24,481,l),
(23,473,l),
(45,473,o),
(87,469,o),
(109,419,cs)
);
},
{
closed = 1;
nodes = (
(232,237,l),
(281,292,ls),
(416,443,o),
(454,473,o),
(528,473,c),
(529,481,l),
(298,481,l),
(297,473,l),
(427,473,o),
(355,386,o),
(270,291,cs),
(226,242,l)
);
},
{
closed = 1;
nodes = (
(227,254,l),
(178,198,ls),
(70,74,o),
(11,8,o),
(-68,8,c),
(-69,0,l),
(179,0,l),
(180,8,l),
(33,8,o),
(95,95,o),
(185,194,cs),
(235,249,l)
);
}
);
width = 469;
},
{
hints = (
{
horizontal = 1;
place = (0,21);
target = up;
type = BottomGhost;
},
{
horizontal = 1;
place = (456,-20);
target = down;
type = TopGhost;
}
);
layerId = "F3B99A47-B03A-4C9D-AB53-5F3A31A2DF8F";
shapes = (
{
closed = 1;
nodes = (
(271,71,ls),
(291,28,o),
(278,8,o),
(253,8,c),
(252,0,l),
(546,0,l),
(547,8,l),
(526,8,o),
(509,28,o),
(493,62,cs),
(328,410,ls),
(307,454,o),
(319,473,o),
(344,473,c),
(345,481,l),
(41,481,l),
(40,473,l),
(72,473,o),
(98,452,o),
(113,419,cs)
);
},
{
closed = 1;
nodes = (
(337,222,l),
(348,237,ls),
(468,400,o),
(560,473,o),
(634,473,c),
(635,481,l),
(386,481,l),
(385,473,l),
(504,473,o),
(422,332,o),
(337,236,cs),
(329,227,l)
);
},
{
closed = 1;
nodes = (
(246,259,l),
(234,244,ls),
(109,87,o),
(26,8,o),
(-48,8,c),
(-49,0,l),
(199,0,l),
(200,8,l),
(81,8,o),
(156,144,o),
(246,245,cs),
(254,254,l)
);
}
);
width = 535;
}
);
},
{
color = (154, 153, 255, 255);
glyphname = x.002332;
layers = (
{
guides = (
{
position = "{0, 473}";
}
);
hints = (
{
horizontal = 1;
place = (0,21);
target = up;
type = BottomGhost;
},
{
horizontal = 1;
place = (456,-20);
target = down;
type = TopGhost;
}
);
layerId = "A01EDA77-E91F-4F54-AC7E-74E4C922CA36";
shapes = (
{
closed = 1;
nodes = (
(205,237,l),
(248,292,ls),
(367,445,o),
(406,473,o),
(480,473,c),
(481,481,l),
(250,481,l),
(249,473,l),
(379,473,o),
(315,386,o),
(238,291,cs),
(198,242,l)
);
},
{
closed = 1;
nodes = (
(206,256,l),
(161,198,ls),
(63,72,o),
(11,8,o),
(-68,8,c),
(-68,0,l),
(180,0,l),
(180,8,l),
(33,8,o),
(89,92,o),
(170,194,cs),
(215,251,l)
);
},
{
closed = 1;
nodes = (
(-224,-233,l),
(-299,-276,o),
(-393,-296,o),
(-481,-296,cs),
(-774,-296,o),
(-994,-72,o),
(-964,232,cs),
(-938,504,o),
(-719,769,o),
(-412,769,cs),
(-111,769,o),
(50,514,o),
(236,120,cs),
(459,-353,o),
(708,-522,o),
(1059,-522,cs),
(1523,-522,o),
(1954,-228,o),
(1954,270,cs),
(1954,661,o),
(1664,931,o),
(1275,931,cs),
(1101,931,o),
(935,869,o),
(802,765,c),
(805,760,l),
(938,863,o),
(1104,925,o),
(1277,925,cs),
(1660,925,o),
(1948,658,o),
(1948,273,cs),
(1948,-192,o),
(1553,-492,o),
(1143,-492,cs),
(808,-492,o),
(516,-292,o),
(309,137,cs),
(129,509,o),
(-23,792,o),
(-369,792,cs),
(-721,792,o),
(-945,498,o),
(-970,232,cs),
(-999,-75,o),
(-782,-302,o),
(-482,-302,cs),
(-395,-302,o),
(-303,-283,o),
(-222,-239,c)
);
}
);
width = 411;
},
{
guides = (
{
position = "{0, 473}";
}
);
hints = (
{
horizontal = 1;
place = (0,21);
target = up;
type = BottomGhost;
},
{
horizontal = 1;
place = (456,-20);
target = down;
type = TopGhost;
}
);
layerId = "F3B99A47-B03A-4C9D-AB53-5F3A31A2DF8F";
shapes = (
{
closed = 1;
nodes = (
(326,234,l),
(338,249,ls),
(466,404,o),
(545,473,o),
(619,473,c),
(620,481,l),
(372,481,l),
(371,473,l),
(490,473,o),
(412,342,o),
(325,248,cs),
(317,239,l)
);
},
{
closed = 1;
nodes = (
(241,259,l),
(229,244,ls),
(101,89,o),
(21,8,o),
(-53,8,c),
(-54,0,l),
(195,0,l),
(195,8,l),
(76,8,o),
(150,145,o),
(241,245,cs),
(249,254,l)
);
},
{
closed = 1;
nodes = (
(-163,-233,l),
(-238,-276,o),
(-332,-296,o),
(-420,-296,cs),
(-713,-296,o),
(-931,-72,o),
(-901,232,cs),
(-874,502,o),
(-622,760,o),
(-373,760,cs),
(15,760,o),
(116,376,o),
(258,78,cs),
(453,-364,o),
(707,-555,o),
(1165,-555,cs),
(1637,-555,o),
(1993,-228,o),
(2028,194,cs),
(2061,593,o),
(1779,899,o),
(1393,899,cs),
(1225,899,o),
(1064,837,o),
(936,736,c),
(938,733,l),
(1067,834,o),
(1226,894,o),
(1392,894,cs),
(1772,894,o),
(2056,591,o),
(2023,194,cs),
(1993,-171,o),
(1707,-514,o),
(1266,-514,cs),
(770,-514,o),
(581,-156,o),
(402,236,cs),
(270,527,o),
(152,792,o),
(-268,792,cs),
(-629,792,o),
(-881,501,o),
(-907,232,cs),
(-937,-75,o),
(-721,-302,o),
(-421,-302,cs),
(-334,-302,o),
(-242,-283,o),
(-162,-239,c)
);
}
);
width = 511;
}
);
},
{
color = (255, 153, 153, 255);
glyphname = y;
rightMetricsKey = v;
layers = (
{
anchors = (
{
name = top;
position = "{262, 576}";
}
);
hints = (
{
horizontal = 1;
place = (-323,21);
target = up;
type = BottomGhost;
},
{
horizontal = 1;
place = (477,-20);
target = down;
type = TopGhost;
},
{
place = (60,20);
type = Stem;
},
{
place = (194,76);
type = Stem;
},
{
place = (206,76);
type = Stem;
},
{
place = (386,22);
type = Stem;
}
);
layerId = "A01EDA77-E91F-4F54-AC7E-74E4C922CA36";
shapes = (
{
closed = 1;
nodes = (
(428,483,o),
(409,508,o),
(376,508,cs),
(339,508,o),
(320,475,o),
(320,443,cs),
(319,411,o),
(338,381,o),
(372,381,cs),
(383,381,o),
(392,384,o),
(401,392,c),
(407,241,o),
(148,-200,o),
(-88,-200,cs),
(-100,-200,o),
(-120,-195,o),
(-124,-190,c),
(-100,-177,o),
(-84,-152,o),
(-81,-128,cs),
(-77,-93,o),
(-101,-74,o),
(-126,-74,cs),
(-153,-74,o),
(-181,-94,o),
(-186,-133,cs),
(-193,-187,o),
(-138,-211,o),
(-92,-211,cs),
(157,-211,o),
(430,252,o),
(428,440,cs)
);
},
{
closed = 1;
nodes = (
(-19,408,l),
(3,440,o),
(32,468,o),
(72,468,cs),
(148,468,o),
(172,322,o),
(172,189,cs),
(172,110,o),
(163,35,o),
(151,0,c),
(218,0,l),
(237,42,o),
(250,127,o),
(250,214,cs),
(250,353,o),
(217,500,o),
(118,500,cs),
(54,500,o),
(6,454,o),
(-23,414,c)
);
}
);
width = 434;
},
{
anchors = (
{
name = top;
position = "{349, 577}";
}
);
hints = (
{
horizontal = 1;
place = (-323,21);
target = up;
type = BottomGhost;
},
{
horizontal = 1;
place = (477,-20);
target = down;
type = TopGhost;
},
{
place = (122,20);
type = Stem;
},
{
place = (256,76);
type = Stem;
},
{
place = (268,76);
type = Stem;
},
{
place = (448,22);
type = Stem;
}
);
layerId = "F3B99A47-B03A-4C9D-AB53-5F3A31A2DF8F";
shapes = (
{
closed = 1;
nodes = (
(514,468,o),
(491,500,o),
(449,500,cs),
(401,500,o),
(377,458,o),
(377,417,cs),
(377,377,o),
(399,338,o),
(443,338,cs),
(456,338,o),
(469,342,o),
(479,351,c),
(494,233,o),
(213,-230,o),
(-1,-230,cs),
(-19,-230,o),
(-33,-222,o),
(-40,-215,c),
(-3,-195,o),
(20,-157,o),
(25,-121,cs),
(32,-69,o),
(-4,-42,o),
(-42,-42,cs),
(-82,-42,o),
(-125,-71,o),
(-133,-129,cs),
(-143,-209,o),
(-75,-246,o),
(-7,-246,cs),
(220,-246,o),
(514,239,o),
(514,413,cs)
);
},
{
closed = 1;
nodes = (
(0,360,l),
(15,384,o),
(37,416,o),
(67,416,cs),
(133,416,o),
(155,267,o),
(155,137,cs),
(155,72,o),
(150,12,o),
(141,-23,c),
(300,-23,l),
(327,44,o),
(351,154,o),
(351,255,cs),
(351,384,o),
(313,500,o),
(195,500,cs),
(94,500,o),
(24,414,o),
(-4,367,c)
);
}
);
width = 513;
}
);
unicode = 121;
},
{
color = (154, 153, 255, 255);
glyphname = y.alt;
layers = (
{
anchors = (
{
name = top;
position = "{369, 577}";
}
);
hints = (
{
horizontal = 1;
place = (-323,21);
target = up;
type = BottomGhost;
},
{
horizontal = 1;
place = (477,-20);
target = down;
type = TopGhost;
},
{
place = (142,20);
type = Stem;
},
{
place = (276,76);
type = Stem;
},
{
place = (288,76);
type = Stem;
},
{
place = (468,22);
type = Stem;
}
);
layerId = "A01EDA77-E91F-4F54-AC7E-74E4C922CA36";
shapes = (
{
closed = 1;
nodes = (
(187.03,23,l),
(128.832,410,ls),
(121.242,458,o),
(142.87,473,o),
(179.87,473,c),
(181.271,481,l),
(-16.729,481,l),
(-18.13,473,l),
(31.87,473,o),
(47.438,442,o),
(52.306,407,cs),
(113,0,l),
(173,0,l)
);
},
{
closed = 1;
nodes = (
(109.48,-100,ls),
(49.033,-211,o),
(-0.245,-224,o),
(-32.245,-224,cs),
(-51.245,-224,o),
(-61.369,-219,o),
(-65.493,-214,c),
(-39.04,-200,o),
(-21.31,-173,o),
(-16.93,-148,cs),
(-10.447,-111,o),
(-34.118,-92,o),
(-61.118,-92,cs),
(-89.118,-92,o),
(-120.622,-112,o),
(-127.806,-153,cs),
(-137.617,-209,o),
(-91.347,-236,o),
(-40.347,-236,cs),
(28.653,-236,o),
(72.887,-189,o),
(115.553,-111,cs),
(348.889,319,ls),
(430.344,470,o),
(459.87,473,o),
(514.87,473,c),
(516.271,481,l),
(318.271,481,l),
(316.87,473,l),
(378.87,473,o),
(414.592,460,o),
(338.064,320,cs)
);
}
);
width = 431;
},
{
anchors = (
{
name = top;
position = "{379, 577}";
}
);
hints = (
{
horizontal = 1;
place = (-323,21);
target = up;
type = BottomGhost;
},
{
horizontal = 1;
place = (477,-20);
target = down;
type = TopGhost;
},
{
place = (152,20);
type = Stem;
},
{
place = (286,76);
type = Stem;
},
{
place = (298,76);
type = Stem;
},
{
place = (478,22);
type = Stem;
}
);
layerId = "F3B99A47-B03A-4C9D-AB53-5F3A31A2DF8F";
shapes = (
{
closed = 1;
nodes = (
(325.17,98,l),
(284.832,410,ls),
(278.541,454,o),
(292.87,473,o),
(318.87,473,c),
(320.271,481,l),
(21.271,481,l),
(19.87,473,l),
(41.87,473,o),
(56.541,454,o),
(62.409,419,cs),
(132,0,l),
(271,0,l)
);
},
{
closed = 1;
nodes = (
(207.48,-100,ls),
(146.208,-210,o),
(87.456,-220,o),
(48.456,-220,cs),
(30.456,-220,o),
(16.858,-212,o),
(11.084,-205,c),
(48.588,-185,o),
(73.246,-147,o),
(79.553,-111,cs),
(88.663,-59,o),
(55.394,-32,o),
(17.394,-32,cs),
(-22.606,-32,o),
(-67.687,-61,o),
(-77.849,-119,cs),
(-91.865,-199,o),
(-26.347,-236,o),
(41.653,-236,cs),
(124.653,-236,o),
(174.062,-188,o),
(216.553,-111,c),
(410.522,237,ls),
(496.678,392,o),
(553.87,473,o),
(630.87,473,c),
(632.271,481,l),
(374.271,481,l),
(372.87,473,l),
(496.87,473,o),
(452.042,337,o),
(396.698,238,cs)
);
}
);
width = 502;
}
);
},
{
color = (154, 153, 255, 255);
glyphname = y.4;
layers = (
{
layerId = "A01EDA77-E91F-4F54-AC7E-74E4C922CA36";
shapes = (
{
closed = 1;
nodes = (
(241,22,l),
(65,-307,o),
(-205,-379,o),
(-413,-379,cs),
(-837,-379,o),
(-1071,-82,o),
(-1042,231,cs),
(-1013,549,o),
(-710,815,o),
(-377,815,cs),
(-224,815,o),
(-98,758,o),
(-9,665,c),
(-4,669,l),
(-94,763,o),
(-220,822,o),
(-378,822,cs),
(-717,822,o),
(-1015,552,o),
(-1047,225,cs),
(-1079,-107,o),
(-819,-433,o),
(-406,-433,cs),
(-94,-433,o),
(109,-252,o),
(231,-13,cs),
(401,319,ls),
(480,473,o),
(512,473,o),
(567,473,c),
(568,481,l),
(370,481,l),
(369,473,l),
(431,473,o),
(461,463,o),
(390,320,cs)
);
},
{
closed = 1;
nodes = (
(-5,408,l),
(17,440,o),
(46,468,o),
(86,468,cs),
(162,468,o),
(186,322,o),
(186,189,cs),
(186,110,o),
(177,35,o),
(165,0,c),
(232,0,l),
(251,42,o),
(264,127,o),
(264,214,cs),
(264,353,o),
(231,500,o),
(132,500,cs),
(68,500,o),
(20,454,o),
(-9,414,c)
);
}
);
width = 466;
},
{
layerId = "F3B99A47-B03A-4C9D-AB53-5F3A31A2DF8F";
shapes = (
{
closed = 1;
nodes = (
(317,22,ls),
(146,-296,o),
(-119,-369,o),
(-327,-369,cs),
(-728,-369,o),
(-959,-113,o),
(-959,171,cs),
(-959,517,o),
(-651,815,o),
(-294,815,cs),
(-141,815,o),
(-14,758,o),
(76,665,c),
(80,669,l),
(-10,763,o),
(-136,821,o),
(-294,821,cs),
(-656,821,o),
(-965,521,o),
(-965,171,cs),
(-965,-147,o),
(-711,-442,o),
(-321,-442,cs),
(-8,-442,o),
(175,-256,o),
(308,-13,cs),
(445,237,ls),
(531,393,o),
(591,473,o),
(668,473,c),
(669,481,l),
(411,481,l),
(410,473,l),
(534,473,o),
(489,340,o),
(433,238,cs)
);
},
{
closed = 1;
nodes = (
(0,360,l),
(15,384,o),
(37,416,o),
(67,416,cs),
(133,416,o),
(155,267,o),
(155,137,cs),
(155,72,o),
(150,12,o),
(141,-23,c),
(300,-23,l),
(327,44,o),
(351,154,o),
(351,255,cs),
(351,384,o),
(313,500,o),
(195,500,cs),
(94,500,o),
(24,414,o),
(-4,367,c)
);
}
);
width = 532;
}
);
},
{
color = (154, 153, 255, 255);
glyphname = y.44;
layers = (
{
anchors = (
{
name = top;
position = "{334, 577}";
}
);
hints = (
{
horizontal = 1;
place = (-323,21);
target = up;
type = BottomGhost;
},
{
horizontal = 1;
place = (477,-20);
target = down;
type = TopGhost;
},
{
place = (107,20);
type = Stem;
},
{
place = (241,76);
type = Stem;
},
{
place = (253,76);
type = Stem;
},
{
place = (433,22);
type = Stem;
}
);
layerId = "A01EDA77-E91F-4F54-AC7E-74E4C922CA36";
shapes = (
{
closed = 1;
nodes = (
(91,-236,o),
(132,-189,o),
(173,-111,cs),
(358,232,ls),
(604,700,o),
(848,811,o),
(1130,811,cs),
(1511,811,o),
(1743,509,o),
(1713,197,cs),
(1682,-136,o),
(1386,-407,o),
(1053,-407,cs),
(898,-407,o),
(761,-348,o),
(663,-251,c),
(657,-255,l),
(756,-353,o),
(893,-413,o),
(1051,-413,cs),
(1388,-413,o),
(1688,-140,o),
(1719,197,cs),
(1751,539,o),
(1524,854,o),
(1132,854,cs),
(776,854,o),
(568,659,o),
(348,234,cs),
(168,-100,ls),
(107,-211,o),
(60,-224,o),
(28,-224,cs),
(9,-224,o),
(0,-219,o),
(-4,-214,c),
(21,-200,o),
(38,-173,o),
(41,-148,cs),
(45,-111,o),
(21,-92,o),
(-6,-92,cs),
(-34,-92,o),
(-65,-112,o),
(-70,-153,cs),
(-77,-209,o),
(-29,-236,o),
(22,-236,cs)
);
},
{
closed = 1;
nodes = (
(-10,408,l),
(12,440,o),
(41,468,o),
(81,468,cs),
(157,468,o),
(181,322,o),
(181,189,cs),
(181,110,o),
(172,35,o),
(160,0,c),
(227,0,l),
(246,42,o),
(259,127,o),
(259,214,cs),
(259,353,o),
(226,500,o),
(127,500,cs),
(63,500,o),
(15,454,o),
(-14,414,c)
);
}
);
width = 434;
},
{
anchors = (
{
name = top;
position = "{424, 577}";
}
);
hints = (
{
horizontal = 1;
place = (-323,21);
target = up;
type = BottomGhost;
},
{
horizontal = 1;
place = (477,-20);
target = down;
type = TopGhost;
},
{
place = (197,20);
type = Stem;
},
{
place = (331,76);
type = Stem;
},
{
place = (343,76);
type = Stem;
},
{
place = (523,22);
type = Stem;
}
);
layerId = "F3B99A47-B03A-4C9D-AB53-5F3A31A2DF8F";
shapes = (
{
closed = 1;
nodes = (
(166,-248,o),
(211,-196,o),
(256,-111,cs),
(445,226,ls),
(678,646,o),
(963,811,o),
(1245,811,cs),
(1626,811,o),
(1854,509,o),
(1823,197,cs),
(1789,-136,o),
(1492,-407,o),
(1159,-407,cs),
(1004,-407,o),
(868,-348,o),
(771,-251,c),
(765,-255,l),
(863,-353,o),
(1000,-413,o),
(1158,-413,cs),
(1495,-413,o),
(1795,-140,o),
(1829,197,cs),
(1864,547,o),
(1637,869,o),
(1241,869,cs),
(888,869,o),
(648,613,o),
(432,229,cs),
(248,-100,ls),
(181,-221,o),
(124,-232,o),
(82,-232,cs),
(63,-232,o),
(52,-226,o),
(44,-217,c),
(82,-196,o),
(107,-153,o),
(107,-110,cs),
(107,-67,o),
(74,-44,o),
(39,-44,cs),
(-17,-44,o),
(-52,-92,o),
(-52,-145,cs),
(-52,-215,o),
(13,-248,o),
(77,-248,cs)
);
},
{
closed = 1;
nodes = (
(0,360,l),
(15,384,o),
(37,416,o),
(67,416,cs),
(133,416,o),
(155,267,o),
(155,137,cs),
(155,72,o),
(150,12,o),
(141,-23,c),
(300,-23,l),
(327,44,o),
(351,154,o),
(351,255,cs),
(351,384,o),
(313,500,o),
(195,500,cs),
(94,500,o),
(24,414,o),
(-4,367,c)
);
}
);
width = 520;
}
);
},
{
color = (154, 153, 255, 255);
glyphname = y.1.sube;
layers = (
{
layerId = "A01EDA77-E91F-4F54-AC7E-74E4C922CA36";
shapes = (
{
closed = 1;
nodes = (
(-11,408,l),
(11,440,o),
(40,468,o),
(80,468,cs),
(156,468,o),
(180,322,o),
(180,189,cs),
(180,110,o),
(171,35,o),
(159,0,c),
(226,0,l),
(245,42,o),
(258,127,o),
(258,214,cs),
(258,353,o),
(225,500,o),
(126,500,cs),
(62,500,o),
(14,454,o),
(-15,414,c)
);
},
{
closed = 1;
nodes = (
(83,-236,o),
(130,-188,o),
(172,-111,cs),
(241,17,l),
(409,346,o),
(616,755,o),
(844,755,cs),
(866,755,o),
(892,749,o),
(905,735,c),
(865,731,o),
(843,696,o),
(843,668,cs),
(843,641,o),
(860,619,o),
(892,619,cs),
(925,619,o),
(952,644,o),
(952,680,c),
(951,725,o),
(914,762,o),
(830,762,cs),
(493,762,o),
(359,244,o),
(234,24,cs),
(165,-100,ls),
(103,-210,o),
(53,-224,o),
(21,-224,cs),
(2,-224,o),
(-7,-219,o),
(-11,-214,c),
(15,-200,o),
(33,-173,o),
(37,-148,cs),
(43,-111,o),
(20,-92,o),
(-7,-92,cs),
(-35,-92,o),
(-67,-112,o),
(-74,-153,cs),
(-84,-209,o),
(-37,-236,o),
(14,-236,cs)
);
}
);
width = 461;
},
{
layerId = "F3B99A47-B03A-4C9D-AB53-5F3A31A2DF8F";
shapes = (
{
closed = 1;
nodes = (
(0,360,l),
(15,384,o),
(37,416,o),
(67,416,cs),
(133,416,o),
(155,267,o),
(155,137,cs),
(155,72,o),
(150,12,o),
(141,-23,c),
(300,-23,l),
(327,44,o),
(351,154,o),
(351,255,cs),
(351,384,o),
(313,500,o),
(195,500,cs),
(94,500,o),
(24,414,o),
(-4,367,c)
);
},
{
closed = 1;
nodes = (
(166,-248,o),
(211,-196,o),
(256,-111,cs),
(372,96,ls),
(540,398,o),
(753,789,o),
(979,789,cs),
(1011,789,o),
(1047,778,o),
(1064,758,c),
(1009,752,o),
(961,705,o),
(961,648,cs),
(961,608,o),
(988,577,o),
(1035,577,cs),
(1095,577,o),
(1134,627,o),
(1134,684,cs),
(1134,750,o),
(1078,798,o),
(963,798,cs),
(648,798,o),
(529,390,o),
(365,101,cs),
(248,-100,ls),
(181,-221,o),
(124,-232,o),
(82,-232,cs),
(63,-232,o),
(52,-226,o),
(44,-217,c),
(82,-196,o),
(107,-153,o),
(107,-110,cs),
(107,-67,o),
(74,-44,o),
(39,-44,cs),
(-17,-44,o),
(-52,-92,o),
(-52,-145,cs),
(-52,-215,o),
(13,-248,o),
(77,-248,cs)
);
}
);
width = 525;
}
);
},
{
color = (255, 153, 153, 255);
glyphname = z;
layers = (
{
anchors = (
{
name = top;
position = "{282, 577}";
}
);
background = {
shapes = (
{
closed = 1;
nodes = (
(-13,-13,l),
(0,50,o),
(2,82,o),
(39,82,cs),
(96,82,o),
(166,-4,o),
(269,-4,cs),
(342,-4,o),
(396,43,o),
(417,148,c),
(413,149,l),
(404,107,o),
(378,59,o),
(319,59,cs),
(250,59,o),
(158,121,o),
(83,121,cs),
(1,121,o),
(-9,50,o),
(-19,-13,c)
);
},
{
closed = 1;
nodes = (
(449,504,l),
(434,432,o),
(422,417,o),
(391,417,cs),
(319,417,o),
(274,500,o),
(173,500,cs),
(91,500,o),
(32,446,o),
(22,329,c),
(28,325,l),
(45,407,o),
(78,430,o),
(125,430,cs),
(190,430,o),
(251,386,o),
(326,386,cs),
(373,386,o),
(425,400,o),
(437,435,cs),
(447,461,o),
(452,477,o),
(457,504,c)
);
},
{
closed = 1;
nodes = (
(10,72,l),
(35,180,o),
(147,211,o),
(239,254,cs),
(330,297,o),
(402,329,o),
(437,435,c),
(434,443,l),
(392,329,o),
(330,307,o),
(236,262,cs),
(150,221,o),
(31,192,o),
(0,65,c)
);
}
);
};
guides = (
{
position = "{0, 140}";
}
);
hints = (
{
horizontal = 1;
place = (225,225);
type = Stem;
},
{
place = (261,209);
type = Stem;
},
{
place = (322,148);
type = Stem;
}
);
layerId = "A01EDA77-E91F-4F54-AC7E-74E4C922CA36";
shapes = (
{
closed = 1;
nodes = (
(13.722,-13,l),
(26.76,50,o),
(28.366,82,o),
(62.366,82,cs),
(113.366,82,o),
(177.299,-4,o),
(271.299,-4,cs),
(337.299,-4,o),
(384.534,43,o),
(404.93,148,c),
(401.105,149,l),
(392.746,107,o),
(369.337,59,o),
(315.337,59,cs),
(253.337,59,o),
(170.199,121,o),
(102.199,121,cs),
(28.199,121,o),
(17.76,50,o),
(8.722,-13,c)
);
},
{
closed = 1;
nodes = (
(434.301,504,l),
(419.686,432,o),
(409.058,417,o),
(382.058,417,cs),
(315.058,417,o),
(274.6,500,o),
(182.6,500,cs),
(108.6,500,o),
(55.139,446,o),
(45.641,329,c),
(51.94,325,l),
(68.306,407,o),
(97.336,430,o),
(139.336,430,cs),
(199.336,430,o),
(253.627,386,o),
(321.627,386,cs),
(364.627,386,o),
(411.08,400,o),
(422.212,435,cs),
(430.767,461,o),
(436.57,477,o),
(441.301,504,c)
);
},
{
closed = 1;
nodes = (
(34.614,72,l),
(57.536,180,o),
(159.967,211,o),
(242.501,254,cs),
(326.034,297,o),
(390.641,329,o),
(422.212,435,c),
(419.614,443,l),
(381.641,329,o),
(325.786,307,o),
(240.902,262,cs),
(162.719,221,o),
(54.638,192,o),
(27.388,65,c)
);
}
);
width = 447;
},
{
anchors = (
{
name = top;
position = "{366, 577}";
}
);
guides = (
{
position = "{0, 140}";
}
);
hints = (
{
horizontal = 1;
place = (225,225);
type = Stem;
},
{
place = (298,209);
type = Stem;
},
{
place = (359,148);
type = Stem;
}
);
layerId = "F3B99A47-B03A-4C9D-AB53-5F3A31A2DF8F";
shapes = (
{
closed = 1;
nodes = (
(-8.679,-21,l),
(6.008,40,o),
(24.862,62,o),
(48.038,63,cs),
(115.738,67,o),
(189.299,-4,o),
(297.299,-4,cs),
(396.299,-4,o),
(477.439,71,o),
(497.223,241,c),
(491.223,241,l),
(486.339,196,o),
(454.062,183,o),
(408.062,183,cs),
(354.062,183,o),
(283.741,204,o),
(211.741,204,c),
(67.741,204,o),
(9.323,116,o),
(-13.679,-21,c)
);
},
{
closed = 1;
nodes = (
(559.352,510,l),
(541.84,450,o),
(521.161,429,o),
(498.161,429,cs),
(429.161,429,o),
(360.352,510,o),
(249.352,510,cs),
(144.352,510,o),
(67.964,445,o),
(48.355,276,c),
(54.355,276,l),
(61.538,317,o),
(88.641,329,o),
(127.641,329,cs),
(185.641,329,o),
(271.735,301,o),
(354.735,301,cs),
(440.735,301,o),
(500.918,342,o),
(537.635,426,cs),
(547.84,450,o),
(556.57,477,o),
(564.352,510,c)
);
},
{
closed = 1;
nodes = (
(18.614,72,l),
(56.762,187,o),
(184.369,219,o),
(289.501,254,cs),
(394.633,289,o),
(484.735,301,o),
(537.635,426,c),
(531.635,426,l),
(480.487,311,o),
(394.859,296,o),
(286.902,262,cs),
(188.471,231,o),
(56.04,200,o),
(12.79,73,c)
);
}
);
width = 510;
}
);
unicode = 122;
},
{
color = (154, 153, 255, 255);
glyphname = z.baja;
layers = (
{
anchors = (
{
name = top;
position = "{290, 577}";
}
);
layerId = "A01EDA77-E91F-4F54-AC7E-74E4C922CA36";
shapes = (
{
closed = 1;
nodes = (
(68,321,l),
(78,362,o),
(116,473,o),
(269,473,cs),
(319,473,l),
(49,73,ls),
(25,37,o),
(0,18,o),
(-17,5,c),
(-18,-2,l),
(4,7,o),
(16,7,o),
(38,7,c),
(83,8,l),
(405,481,l),
(91,481,l),
(64,321,l)
);
},
{
closed = 1;
nodes = (
(739,-77,o),
(738,-65,o),
(734,-60,c),
(729,-63,l),
(733,-66,o),
(734,-78,o),
(732,-89,cs),
(721,-151,o),
(644,-180,o),
(600,-180,cs),
(394,-180,o),
(266,12,o),
(55,12,cs),
(44,12,l),
(38,7,l),
(231,7,o),
(314,-221,o),
(544,-221,cs),
(627,-221,o),
(722,-172,o),
(737,-88,cs)
);
}
);
width = 408;
},
{
layerId = "F3B99A47-B03A-4C9D-AB53-5F3A31A2DF8F";
shapes = (
{
closed = 1;
nodes = (
(84,278,l),
(102,326,o),
(164,474,o),
(321,474,cs),
(347,474,l),
(51,66,ls),
(26,31,o),
(3,12,o),
(-14,-1,c),
(-15,-9,l),
(11,-2,o),
(40,1,o),
(70,1,c),
(218,1,l),
(565,481,l),
(113,481,l),
(78,278,l)
);
},
{
closed = 1;
nodes = (
(856,-83,o),
(854,-71,o),
(851,-66,c),
(846,-69,l),
(849,-72,o),
(851,-84,o),
(849,-95,cs),
(838,-152,o),
(761,-179,o),
(716,-179,cs),
(511,-179,o),
(382,6,o),
(172,6,cs),
(161,6,l),
(155,1,l),
(344,1,o),
(423,-234,o),
(647,-234,cs),
(737,-234,o),
(838,-183,o),
(854,-94,cs)
);
}
);
width = 506;
}
);
},
{
color = (154, 153, 255, 255);
glyphname = z.4;
layers = (
{
anchors = (
{
name = top;
position = "{285, 577}";
}
);
layerId = "A01EDA77-E91F-4F54-AC7E-74E4C922CA36";
shapes = (
{
closed = 1;
nodes = (
(-18,-2,l),
(4,7,o),
(16,7,o),
(38,7,cs),
(83,8,l),
(405,481,l),
(91,481,l),
(64,321,l),
(68,321,l),
(78,362,o),
(116,473,o),
(269,473,cs),
(319,473,l),
(49,73,ls),
(25,37,o),
(0,18,o),
(-17,5,c)
);
},
{
closed = 1;
nodes = (
(40,7,l),
(412,7,o),
(697,-383,o),
(1096,-383,cs),
(1430,-383,o),
(1727,-122,o),
(1761,202,cs),
(1795,524,o),
(1550,788,o),
(1213,788,cs),
(1064,788,o),
(920,734,o),
(804,644,c),
(809,640,l),
(922,728,o),
(1064,782,o),
(1212,782,cs),
(1545,782,o),
(1789,520,o),
(1755,202,cs),
(1723,-92,o),
(1464,-335,o),
(1145,-335,cs),
(735,-335,o),
(435,12,o),
(46,12,c)
);
}
);
width = 409;
},
{
layerId = "F3B99A47-B03A-4C9D-AB53-5F3A31A2DF8F";
shapes = (
{
closed = 1;
nodes = (
(-15,-9,l),
(11,-2,o),
(40,1,o),
(70,1,c),
(218,1,l),
(565,481,l),
(113,481,l),
(78,277,l),
(84,277,l),
(101,325,o),
(163,474,o),
(321,474,cs),
(347,474,l),
(51,66,ls),
(26,31,o),
(3,12,o),
(-14,-1,c)
);
},
{
closed = 1;
nodes = (
(155,1,l),
(426,1,o),
(705,-382,o),
(1094,-382,cs),
(1430,-382,o),
(1726,-121,o),
(1756,202,cs),
(1787,524,o),
(1537,788,o),
(1200,788,cs),
(1051,788,o),
(909,734,o),
(794,644,c),
(798,640,l),
(910,728,o),
(1052,782,o),
(1200,782,cs),
(1533,782,o),
(1780,520,o),
(1750,202,cs),
(1723,-75,o),
(1457,-304,o),
(1160,-304,cs),
(755,-304,o),
(454,6,o),
(161,6,c)
);
}
);
width = 485;
}
);
},
{
color = (153, 255, 154, 255);
glyphname = zero;
layers = (
{
hints = (
{
horizontal = 1;
place = (-14,21);
target = up;
type = BottomGhost;
},
{
horizontal = 1;
place = (387,167);
type = Stem;
},
{
horizontal = 1;
place = (722,-20);
target = down;
type = TopGhost;
},
{
place = (-43,248);
type = Stem;
},
{
place = (438,243);
type = Stem;
}
);
layerId = "A01EDA77-E91F-4F54-AC7E-74E4C922CA36";
shapes = (
{
closed = 1;
nodes = (
(694,586,o),
(553,685,o),
(420,685,cs),
(412,685,ls),
(279,685,o),
(104,586,o),
(61,339,cs),
(17,91,o),
(158,-9,o),
(291,-9,cs),
(299,-9,ls),
(432,-9,o),
(607,91,o),
(651,339,cs)
);
},
{
closed = 1;
nodes = (
(532,156,o),
(460,0,o),
(298,0,cs),
(294,0,ls),
(132,0,o),
(114,156,o),
(147,339,cs),
(178,521,o),
(250,676,o),
(412,676,cs),
(416,676,ls),
(578,676,o),
(596,521,o),
(565,339,cs)
);
}
);
width = 651;
},
{
hints = (
{
horizontal = 1;
place = (-14,21);
target = up;
type = BottomGhost;
},
{
horizontal = 1;
place = (387,167);
type = Stem;
},
{
horizontal = 1;
place = (722,-20);
target = down;
type = TopGhost;
},
{
place = (6,248);
type = Stem;
},
{
place = (487,243);
type = Stem;
}
);
layerId = "F3B99A47-B03A-4C9D-AB53-5F3A31A2DF8F";
shapes = (
{
closed = 1;
nodes = (
(823,586,o),
(655,685,o),
(499,685,cs),
(491,685,ls),
(335,685,o),
(133,586,o),
(90,339,cs),
(46,91,o),
(214,-9,o),
(370,-9,cs),
(378,-9,ls),
(534,-9,o),
(736,91,o),
(780,339,cs)
);
},
{
closed = 1;
nodes = (
(520,156,o),
(467,0,o),
(377,0,cs),
(373,0,ls),
(283,0,o),
(284,156,o),
(317,339,cs),
(348,521,o),
(401,676,o),
(491,676,cs),
(495,676,ls),
(585,676,o),
(584,521,o),
(553,339,cs)
);
}
);
width = 750;
}
);
unicode = 48;
},
{
color = (153, 255, 154, 255);
glyphname = one;
layers = (
{
hints = (
{
horizontal = 1;
place = (0,21);
target = up;
type = BottomGhost;
},
{
place = (47,217);
type = Stem;
}
);
layerId = "A01EDA77-E91F-4F54-AC7E-74E4C922CA36";
shapes = (
{
closed = 1;
nodes = (
(118,653,l),
(117,645,l),
(169,645,o),
(200,639,o),
(188,564,cs),
(106,95,ls),
(96,37,o),
(68,8,o),
(1,8,c),
(0,0,l),
(251,0,l),
(252,8,l),
(185,8,o),
(169,37,o),
(179,95,cs),
(280,676,l)
);
}
);
width = 311;
},
{
hints = (
{
horizontal = 1;
place = (0,21);
target = up;
type = BottomGhost;
},
{
place = (87,217);
type = Stem;
}
);
layerId = "F3B99A47-B03A-4C9D-AB53-5F3A31A2DF8F";
shapes = (
{
closed = 1;
nodes = (
(91,634,l),
(90,626,l),
(172,626,o),
(196,595,o),
(186,539,cs),
(109,95,ls),
(99,37,o),
(65,8,o),
(-19,8,c),
(-20,0,l),
(411,0,l),
(412,8,l),
(328,8,o),
(306,37,o),
(316,95,cs),
(417,676,l)
);
}
);
width = 391;
}
);
unicode = 49;
},
{
color = (153, 255, 154, 255);
glyphname = two;
layers = (
{
hints = (
{
horizontal = 1;
place = (-5,217);
type = Stem;
},
{
horizontal = 1;
place = (-9,21);
target = up;
type = BottomGhost;
},
{
horizontal = 1;
place = (87,138);
type = Stem;
},
{
horizontal = 1;
place = (400,164);
type = Stem;
},
{
horizontal = 1;
place = (722,-20);
target = down;
type = TopGhost;
},
{
place = (-39,153);
type = Stem;
},
{
place = (309,225);
type = Stem;
},
{
place = (309,238);
type = Stem;
}
);
layerId = "A01EDA77-E91F-4F54-AC7E-74E4C922CA36";
shapes = (
{
closed = 1;
nodes = (
(97,467,o),
(133,439,o),
(175,439,cs),
(217,439,o),
(245,469,o),
(248,500,cs),
(251,530,o),
(230,560,o),
(188,560,cs),
(169,560,o),
(145,550,o),
(132,536,c),
(144,595,o),
(210,675,o),
(302,675,cs),
(380,675,o),
(424,634,o),
(424,569,cs),
(424,444,o),
(323,370,o),
(211,285,cs),
(113,210,o),
(24,126,o),
(2,-8,c,{name = hr01;}),
(11,-8,l),
(13,9,ls),
(17,41,o),
(46,59,o),
(79,59,cs),
(147,59,o),
(144,-6,o),
(274,-6,cs),
(411,-6,o),
(448,97,o),
(461,169,c),
(453,169,l),
(441,95,o),
(416,68,o),
(342,68,cs),
(251,68,o),
(221,103,o),
(132,103,cs),
(78,103,o),
(49,83,o),
(28,50,cs),
(24,44,o),
(28,59,o),
(31,65,cs),
(151,318,o),
(506,309,o),
(506,551,cs),
(506,642,o),
(424,685,o),
(325,685,cs),
(220,685,o),
(114,614,o),
(103,517,cs)
);
}
);
width = 489;
},
{
hints = (
{
horizontal = 1;
place = (-5,217);
type = Stem;
},
{
horizontal = 1;
place = (-9,21);
target = up;
type = BottomGhost;
},
{
horizontal = 1;
place = (87,138);
type = Stem;
},
{
horizontal = 1;
place = (400,164);
type = Stem;
},
{
horizontal = 1;
place = (722,-20);
target = down;
type = TopGhost;
},
{
place = (0,153);
type = Stem;
},
{
place = (348,225);
type = Stem;
},
{
place = (348,238);
type = Stem;
}
);
layerId = "F3B99A47-B03A-4C9D-AB53-5F3A31A2DF8F";
shapes = (
{
closed = 1;
nodes = (
(108,427,o),
(152,394,o),
(211,395,cs),
(274,396,o),
(310,441,o),
(315,486,cs),
(321,543,o),
(279,570,o),
(233,569,cs),
(209,569,o),
(176,558,o),
(157,543,c),
(171,599,o),
(247,670,o),
(336,670,cs),
(394,670,o),
(426,637,o),
(426,588,cs),
(426,494,o),
(370,400,o),
(282,343,cs),
(164,265,o),
(36,172,o),
(5,-9,c,{name = hr01;}),
(14,-9,l),
(16,8,ls),
(24,51,o),
(58,78,o),
(98,78,cs),
(173,78,o),
(216,-9,o),
(345,-9,cs),
(548,-9,o),
(594,182,o),
(612,281,c),
(604,281,l),
(591,213,o),
(534,197,o),
(459,197,cs),
(401,197,o),
(330,209,o),
(262,209,cs),
(171,209,o),
(102,163,o),
(55,107,cs),
(53,104,o),
(51,104,o),
(51,107,c),
(190,385,o),
(641,278,o),
(641,539,cs),
(641,649,o),
(497,685,o),
(386,685,cs),
(259,685,o),
(108,618,o),
(108,488,cs)
);
}
);
width = 596;
}
);
unicode = 50;
},
{
color = (153, 255, 154, 255);
glyphname = three;
layers = (
{
hints = (
{
horizontal = 1;
place = (164,167);
type = Stem;
},
{
horizontal = 1;
place = (164,249);
type = Stem;
},
{
horizontal = 1;
place = (398,167);
type = Stem;
},
{
horizontal = 1;
place = (423,142);
type = Stem;
},
{
horizontal = 1;
place = (723,-20);
target = down;
type = TopGhost;
},
{
place = (-5,162);
type = Stem;
},
{
place = (32,246);
type = Stem;
},
{
place = (369,209);
type = Stem;
}
);
layerId = "A01EDA77-E91F-4F54-AC7E-74E4C922CA36";
shapes = (
{
closed = 1;
nodes = (
(201,350,l),
(328,350,o),
(389,301,o),
(389,218,cs),
(389,89,o),
(302,10,o),
(183,10,cs),
(68,10,o),
(35,83,o),
(35,131,c),
(50,120,o),
(67,111,o),
(86,111,cs),
(121,111,o),
(154,136,o),
(154,173,cs),
(154,200,o),
(133,224,o),
(93,224,cs),
(41,224,o),
(16,185,o),
(16,137,cs),
(16,45,o),
(105,-9,o),
(213,-9,cs),
(335,-9,o),
(470,61,o),
(470,200,cs),
(470,313,o),
(336,356,o),
(225,356,cs),
(202,356,l)
);
},
{
closed = 1;
nodes = (
(211,351,l),
(245,350,l),
(357,375,o),
(506,412,o),
(506,558,cs),
(506,647,o),
(425,685,o),
(338,685,cs),
(231,685,o),
(116,631,o),
(116,527,cs),
(116,486,o),
(146,464,o),
(183,464,cs),
(222,464,o),
(249,492,o),
(252,521,cs),
(255,549,o),
(234,577,o),
(195,577,cs),
(177,577,o),
(151,567,o),
(142,555,c),
(142,610,o),
(222,674,o),
(304,674,cs),
(402,674,o),
(433,619,o),
(433,565,cs),
(433,448,o),
(327,356,o),
(213,356,c)
);
}
);
width = 496;
},
{
hints = (
{
horizontal = 1;
place = (164,167);
type = Stem;
},
{
horizontal = 1;
place = (164,249);
type = Stem;
},
{
horizontal = 1;
place = (398,167);
type = Stem;
},
{
horizontal = 1;
place = (423,142);
type = Stem;
},
{
horizontal = 1;
place = (723,-20);
target = down;
type = TopGhost;
},
{
place = (31,162);
type = Stem;
},
{
place = (68,246);
type = Stem;
},
{
place = (405,209);
type = Stem;
}
);
layerId = "F3B99A47-B03A-4C9D-AB53-5F3A31A2DF8F";
shapes = (
{
closed = 1;
nodes = (
(271,350,l),
(346,350,o),
(382,307,o),
(382,234,cs),
(382,140,o),
(336,10,o),
(224,10,cs),
(134,10,o),
(86,73,o),
(99,125,c),
(118,114,o),
(140,105,o),
(164,105,cs),
(229,105,o),
(266,148,o),
(271,190,cs),
(275,232,o),
(247,274,o),
(180,274,cs),
(116,274,o),
(61,235,o),
(53,166,cs),
(38,41,o),
(162,-9,o),
(277,-9,cs),
(400,-9,o),
(609,38,o),
(609,198,cs),
(609,326,o),
(435,356,o),
(296,356,cs),
(273,356,l)
);
},
{
closed = 1;
nodes = (
(281,351,l),
(308,351,l),
(417,387,o),
(649,403,o),
(649,552,cs),
(649,653,o),
(511,685,o),
(404,685,cs),
(298,685,o),
(133,626,o),
(133,511,cs),
(133,451,o),
(176,419,o),
(234,420,cs),
(298,422,o),
(333,464,o),
(338,507,cs),
(344,562,o),
(301,588,o),
(255,587,cs),
(231,587,o),
(208,577,o),
(188,567,c),
(203,610,o),
(268,669,o),
(350,669,cs),
(435,669,o),
(449,597,o),
(439,539,cs),
(423,445,o),
(364,356,o),
(283,356,c)
);
}
);
width = 607;
}
);
unicode = 51;
},
{
color = (153, 255, 154, 255);
glyphname = four;
layers = (
{
guides = (
{
position = "{0, 156}";
},
{
position = "{0, 165}";
}
);
hints = (
{
horizontal = 1;
place = (0,230);
type = Stem;
},
{
horizontal = 1;
place = (221,23);
type = Stem;
},
{
horizontal = 1;
place = (721,-20);
target = down;
type = TopGhost;
},
{
place = (164,213);
type = Stem;
},
{
horizontal = 1;
place = (0,21);
target = up;
type = BottomGhost;
},
{
place = (157,217);
type = Stem;
}
);
layerId = "A01EDA77-E91F-4F54-AC7E-74E4C922CA36";
shapes = (
{
closed = 1;
nodes = (
(-15,140,l),
(244,140,l),
(236,95,ls),
(226,37,o),
(193,8,o),
(112,8,c),
(111,0,l,{name = hr01;}),
(402,0,l),
(403,8,l),
(322,8,o),
(301,37,o),
(311,95,cs),
(319,140,l),
(456,140,l),
(482,169,l),
(324,169,l),
(415,689,l),
(409,689,l),
(-10,165,l)
);
},
{
closed = 1;
nodes = (
(10,169,l),
(317,558,l),
(314,541,l),
(249,169,l)
);
}
);
width = 479;
},
{
guides = (
{
position = "{0, 156}";
},
{
position = "{0, 165}";
}
);
hints = (
{
horizontal = 1;
place = (0,230);
type = Stem;
},
{
horizontal = 1;
place = (221,23);
type = Stem;
},
{
horizontal = 1;
place = (721,-20);
target = down;
type = TopGhost;
},
{
place = (246,213);
type = Stem;
}
);
layerId = "F3B99A47-B03A-4C9D-AB53-5F3A31A2DF8F";
shapes = (
{
closed = 1;
nodes = (
(24,140,l),
(271,140,l),
(263,95,ls),
(253,37,o),
(219,8,o),
(135,8,c),
(134,0,l,{name = hr01;}),
(565,0,l),
(566,8,l),
(482,8,o),
(460,37,o),
(470,95,cs),
(478,140,l),
(574,140,l),
(597,183,l),
(485,183,l),
(571,676,l),
(497,676,l),
(29,165,l)
);
},
{
closed = 1;
nodes = (
(62,183,l),
(327,466,l),
(323,446,l),
(278,183,l)
);
}
);
width = 605;
}
);
unicode = 52;
},
{
color = (153, 255, 154, 255);
glyphname = five;
layers = (
{
background = {
shapes = (
{
closed = 1;
nodes = (
(461,564,o),
(539,608,o),
(559,676,c),
(480,648,o),
(308,630,o),
(227,676,c),
(220,676,l),
(136,367,l),
(146,375,l),
(211,606,ls),
(214,616,o),
(203,615,o),
(207,606,cs),
(220,572,o),
(314,564,o),
(349,564,cs)
);
},
{
closed = 1;
nodes = (
(136,367,l),
(185,387,o),
(216,397,o),
(256,397,cs),
(379,397,o),
(436,314,o),
(436,223,cs),
(436,116,o),
(355,-2,o),
(210,-2,cs),
(95,-2,o),
(38,72,o),
(47,136,c),
(61,125,o),
(78,115,o),
(100,115,cs),
(130,115,o),
(166,134,o),
(173,172,cs),
(179,204,o),
(161,235,o),
(116,235,cs),
(73,235,o),
(34,206,o),
(24,147,cs),
(4,33,o),
(125,-14,o),
(231,-14,cs),
(382,-14,o),
(522,79,o),
(522,229,cs),
(522,362,o),
(411,409,o),
(289,409,cs),
(227,409,o),
(185,397,o),
(139,376,c)
);
}
);
};
hints = (
{
horizontal = 1;
place = (-8,21);
target = up;
type = BottomGhost;
},
{
horizontal = 1;
place = (164,167);
type = Stem;
},
{
horizontal = 1;
place = (426,211);
type = Stem;
},
{
horizontal = 1;
place = (519,118);
type = Stem;
},
{
horizontal = 1;
place = (544,183);
type = Stem;
},
{
place = (-33,163);
type = Stem;
},
{
place = (526,67);
type = Stem;
}
);
layerId = "A01EDA77-E91F-4F54-AC7E-74E4C922CA36";
shapes = (
{
closed = 1;
nodes = (
(445,564,o),
(519,608,o),
(539,676,c),
(460,648,o),
(304,630,o),
(223,676,c),
(216,676,l),
(132,367,l),
(142,375,l),
(207,606,ls),
(210,616,o),
(200,615,o),
(203,606,cs),
(215,572,o),
(305,564,o),
(338,564,cs)
);
},
{
closed = 1;
nodes = (
(132,367,l),
(177,387,o),
(205,397,o),
(241,397,cs),
(353,397,o),
(405,313,o),
(405,222,cs),
(405,115,o),
(333,-2,o),
(206,-2,cs),
(91,-2,o),
(34,72,o),
(46,138,c),
(60,127,o),
(76,118,o),
(98,118,cs),
(127,118,o),
(162,136,o),
(169,173,cs),
(175,205,o),
(157,235,o),
(113,235,cs),
(53,235,o),
(22,180,o),
(22,128,cs),
(22,28,o),
(129,-14,o),
(227,-14,cs),
(364,-14,o),
(491,78,o),
(491,228,cs),
(491,361,o),
(381,409,o),
(270,409,cs),
(218,409,o),
(179,397,o),
(135,376,c)
);
}
);
width = 524;
},
{
hints = (
{
horizontal = 1;
place = (-8,21);
target = up;
type = BottomGhost;
},
{
horizontal = 1;
place = (164,167);
type = Stem;
},
{
horizontal = 1;
place = (426,211);
type = Stem;
},
{
horizontal = 1;
place = (519,118);
type = Stem;
},
{
horizontal = 1;
place = (544,183);
type = Stem;
},
{
place = (11,163);
type = Stem;
},
{
place = (570,67);
type = Stem;
}
);
layerId = "F3B99A47-B03A-4C9D-AB53-5F3A31A2DF8F";
shapes = (
{
closed = 1;
nodes = (
(513,478,o),
(655,571,o),
(653,676,c),
(558,650,o),
(396,632,o),
(266,676,c),
(258,676,l),
(164,360,l),
(176,368,l),
(230,552,ls),
(232,559,o),
(206,502,o),
(213,500,cs),
(258,485,o),
(304,478,o),
(349,478,cs)
);
},
{
closed = 1;
nodes = (
(164,360,l),
(195,369,o),
(221,376,o),
(255,376,cs),
(350,376,o),
(390,322,o),
(390,243,cs),
(390,141,o),
(338,10,o),
(218,10,cs),
(132,10,o),
(83,73,o),
(96,125,c),
(116,114,o),
(136,105,o),
(162,105,cs),
(207,105,o),
(258,132,o),
(264,187,cs),
(268,230,o),
(240,274,o),
(174,274,cs),
(112,274,o),
(57,237,o),
(50,164,cs),
(39,45,o),
(151,-9,o),
(284,-9,cs),
(421,-9,o),
(619,50,o),
(619,219,cs),
(619,348,o),
(465,394,o),
(334,394,cs),
(267,394,o),
(203,382,o),
(170,369,c)
);
}
);
width = 613;
}
);
unicode = 53;
},
{
color = (153, 255, 154, 255);
glyphname = six;
layers = (
{
background = {
shapes = (
{
closed = 1;
nodes = (
(121,279,l),
(158,341,o),
(244,399,o),
(334,399,cs),
(427,399,o),
(472,345,o),
(472,259,cs),
(472,136,o),
(391,-1,o),
(256,0,cs),
(154,0,o),
(111,78,o),
(111,179,cs),
(111,410,o),
(296,664,o),
(538,678,c),
(539,685,l),
(295,685,o),
(30,452,o),
(30,201,cs),
(30,71,o),
(113,-9,o),
(248,-9,cs),
(390,-10,o),
(556,86,o),
(556,245,cs),
(556,351,o),
(466,413,o),
(357,413,cs),
(250,413,o),
(162,355,o),
(123,293,c)
);
}
);
};
hints = (
{
horizontal = 1;
place = (-13,21);
target = up;
type = BottomGhost;
},
{
horizontal = 1;
place = (394,36);
type = Stem;
},
{
horizontal = 1;
place = (458,110);
type = Stem;
},
{
horizontal = 1;
place = (717,-20);
target = down;
type = TopGhost;
},
{
place = (323,227);
type = Stem;
},
{
place = (367,237);
type = Stem;
}
);
layerId = "A01EDA77-E91F-4F54-AC7E-74E4C922CA36";
shapes = (
{
closed = 1;
nodes = (
(111,237,l),
(145,324,o),
(229,393,o),
(306,393,cs),
(394,393,o),
(431,321,o),
(431,243,cs),
(431,130,o),
(354,0,o),
(238,0,cs),
(145,0,o),
(107,78,o),
(110,189,cs),
(117,410,o),
(287,663,o),
(502,677,c),
(503,684,l),
(285,684,o),
(38,468,o),
(31,226,cs),
(27,85,o),
(106,-9,o),
(236,-9,cs),
(416,-9,o),
(510,120,o),
(510,235,cs),
(510,325,o),
(453,408,o),
(334,408,cs),
(260,408,o),
(159,364,o),
(113,251,c)
);
}
);
width = 526;
},
{
hints = (
{
horizontal = 1;
place = (-13,21);
target = up;
type = BottomGhost;
},
{
horizontal = 1;
place = (394,36);
type = Stem;
},
{
horizontal = 1;
place = (458,110);
type = Stem;
},
{
horizontal = 1;
place = (717,-20);
target = down;
type = TopGhost;
},
{
place = (398,227);
type = Stem;
},
{
place = (442,237);
type = Stem;
}
);
layerId = "F3B99A47-B03A-4C9D-AB53-5F3A31A2DF8F";
shapes = (
{
closed = 1;
nodes = (
(329,355,l),
(349,369,o),
(377,378,o),
(403,378,cs),
(443,378,o),
(466,347,o),
(441,203,cs),
(419,81,o),
(385,2,o),
(337,2,cs),
(284,2,o),
(280,106,o),
(301,226,cs),
(347,492,o),
(514,652,o),
(635,678,c),
(636,685,l),
(379,685,o),
(77,510,o),
(76,223,cs),
(76,63,o),
(183,-9,o),
(330,-9,cs),
(487,-9,o),
(673,69,o),
(673,252,cs),
(673,353,o),
(590,414,o),
(488,414,cs),
(419,414,o),
(364,388,o),
(329,362,c)
);
}
);
width = 654;
}
);
unicode = 54;
},
{
color = (153, 255, 154, 255);
glyphname = seven;
layers = (
{
hints = (
{
horizontal = 1;
place = (-15,21);
target = up;
type = BottomGhost;
},
{
horizontal = 1;
place = (510,120);
type = Stem;
},
{
horizontal = 1;
place = (535,188);
type = Stem;
},
{
place = (-5,249);
type = Stem;
}
);
layerId = "A01EDA77-E91F-4F54-AC7E-74E4C922CA36";
shapes = (
{
closed = 1;
nodes = (
(49,444,l),
(57,444,l),
(70,521,o),
(80,607,o),
(188,607,cs),
(256,607,o),
(306,558,o),
(382,558,cs),
(445,558,o),
(478,581,o),
(504,618,cs),
(508,624,o),
(504,607,o),
(502,602,cs),
(403,347,o),
(112,270,o),
(95,35,cs),
(93,10,o),
(108,-9,o),
(134,-9,cs),
(162,-9,o),
(186,11,o),
(192,45,cs),
(243,347,o),
(488,414,o),
(530,676,c,{name = hr01;}),
(522,676,l),
(520,659,ls),
(516,627,o),
(483,609,o),
(447,609,cs),
(385,609,o),
(337,681,o),
(246,681,cs),
(150,681,o),
(105,623,o),
(82,564,cs),
(81,561,o),
(77,559,o),
(78,564,cs),
(94,658,l),
(86,658,l)
);
}
);
width = 450;
},
{
hints = (
{
horizontal = 1;
place = (-15,21);
target = up;
type = BottomGhost;
},
{
horizontal = 1;
place = (510,120);
type = Stem;
},
{
horizontal = 1;
place = (535,188);
type = Stem;
},
{
place = (109,249);
type = Stem;
}
);
layerId = "F3B99A47-B03A-4C9D-AB53-5F3A31A2DF8F";
shapes = (
{
closed = 1;
nodes = (
(88,387,l),
(96,387,l),
(109,466,o),
(151,494,o),
(228,496,cs),
(286,497,o),
(340,465,o),
(434,471,cs),
(517,476,o),
(603,520,o),
(651,578,cs),
(655,582,o),
(664,582,o),
(661,577,cs),
(534,376,o),
(194,357,o),
(129,138,cs),
(103,52,o),
(148,-11,o),
(237,-11,cs),
(317,-11,o),
(365,49,o),
(378,139,cs),
(414,362,o),
(665,450,o),
(704,676,c),
(695,676,l),
(693,661,ls),
(685,620,o),
(644,591,o),
(604,591,cs),
(521,591,o),
(474,684,o),
(361,684,cs),
(237,684,o),
(167,605,o),
(128,521,cs),
(124,510,o),
(116,504,o),
(119,519,cs),
(142,651,l),
(134,651,l)
);
}
);
width = 596;
}
);
unicode = 55;
},
{
color = (153, 255, 154, 255);
glyphname = eight;
layers = (
{
background = {
shapes = (
{
closed = 1;
nodes = (
(46,653,l),
(45,645,l),
(97,645,o),
(129,639,o),
(116,564,cs),
(34,95,ls),
(24,37,o),
(-4,8,o),
(-71,8,c),
(-72,0,l),
(179,0,l),
(180,8,l),
(113,8,o),
(97,37,o),
(107,95,cs),
(208,676,l)
);
},
{
closed = 1;
nodes = (
(432,653,l),
(431,645,l),
(483,645,o),
(515,639,o),
(502,564,cs),
(420,95,ls),
(410,37,o),
(382,8,o),
(315,8,c),
(314,0,l),
(565,0,l),
(566,8,l),
(499,8,o),
(483,37,o),
(493,95,cs),
(594,676,l)
);
},
{
closed = 1;
nodes = (
(356,-36,o),
(480,45,o),
(480,183,cs),
(480,295,o),
(387,343,o),
(304,406,cs),
(244,452,o),
(190,496,o),
(190,562,cs),
(190,641,o),
(275,675,o),
(336,675,cs),
(404,675,o),
(487,640,o),
(468,511,cs),
(465,491,l),
(471,491,l,{name = hr01;}),
(504,689,l),
(496,689,l),
(494,677,o),
(482,659,o),
(458,659,cs),
(432,659,o),
(403,684,o),
(336,684,cs),
(206,684,o),
(135,592,o),
(135,515,cs),
(135,445,o),
(161,407,o),
(268,330,cs),
(337,280,o),
(408,236,o),
(408,141,cs),
(408,40,o),
(328,-28,o),
(213,-28,cs),
(142,-28,o),
(20,21,o),
(42,115,c),
(49,99,o),
(70,92,o),
(85,92,cs),
(125,92,o),
(149,119,o),
(151,146,cs),
(154,175,o),
(136,204,o),
(94,204,cs),
(45,204,o),
(13,163,o),
(13,115,cs),
(13,34,o),
(83,-38,o),
(212,-37,cs)
);
}
);
};
hints = (
{
horizontal = 1;
place = (-19,21);
target = up;
type = BottomGhost;
},
{
horizontal = 1;
place = (715,-20);
target = down;
type = TopGhost;
},
{
place = (-62,85);
type = Stem;
},
{
place = (-21,44);
type = Stem;
},
{
place = (-21,206);
type = Stem;
},
{
place = (324,232);
type = Stem;
},
{
place = (410,65);
type = Stem;
}
);
layerId = "A01EDA77-E91F-4F54-AC7E-74E4C922CA36";
shapes = (
{
closed = 1;
nodes = (
(271,370,o),
(268,374,o),
(267,375,c),
(171,346,o),
(20,268,o),
(22,148,cs),
(23,60,o),
(107,-9,o),
(234,-9,cs),
(354,-9,o),
(485,66,o),
(485,195,cs),
(485,297,o),
(395,357,o),
(321,410,cs),
(245,464,o),
(202,502,o),
(202,564,cs),
(202,639,o),
(259,677,o),
(325,677,cs),
(390,677,o),
(434,643,o),
(434,575,cs),
(434,495,o),
(372,419,o),
(298,405,c),
(300,404,o),
(308,399,o),
(310,398,c),
(385,425,o),
(491,464,o),
(491,553,cs),
(491,641,o),
(406,685,o),
(329,685,cs),
(244,685,o),
(139,635,o),
(139,521,cs),
(139,442,o),
(192,393,o),
(283,329,cs),
(345,285,o),
(409,242,o),
(409,158,cs),
(409,59,o),
(323,-2,o),
(230,-2,cs),
(151,-2,o),
(95,32,o),
(94,121,cs),
(92,242,o),
(191,346,o),
(272,369,c)
);
}
);
width = 499;
},
{
hints = (
{
horizontal = 1;
place = (-19,21);
target = up;
type = BottomGhost;
},
{
horizontal = 1;
place = (715,-20);
target = down;
type = TopGhost;
},
{
place = (3,85);
type = Stem;
},
{
place = (44,44);
type = Stem;
},
{
place = (44,206);
type = Stem;
},
{
place = (389,232);
type = Stem;
},
{
place = (475,65);
type = Stem;
}
);
layerId = "F3B99A47-B03A-4C9D-AB53-5F3A31A2DF8F";
shapes = (
{
closed = 1;
nodes = (
(248,290,o),
(248,295,o),
(248,296,c),
(161,297,o),
(49,238,o),
(49,138,cs),
(49,41,o),
(161,-11,o),
(276,-11,cs),
(426,-11,o),
(608,76,o),
(608,249,cs),
(608,335,o),
(562,388,o),
(446,448,cs),
(381,481,o),
(313,525,o),
(315,592,cs),
(316,643,o),
(358,676,o),
(425,676,cs),
(495,676,o),
(540,639,o),
(540,578,cs),
(540,518,o),
(499,457,o),
(441,439,c),
(442,438,o),
(444,436,o),
(444,435,c),
(510,439,o),
(603,486,o),
(603,563,cs),
(603,627,o),
(538,685,o),
(420,685,cs),
(285,685,o),
(126,605,o),
(126,451,cs),
(126,338,o),
(217,284,o),
(278,253,cs),
(380,201,o),
(421,155,o),
(421,101,cs),
(421,26,o),
(346,-1,o),
(284,-1,cs),
(191,-1,o),
(137,57,o),
(137,126,cs),
(137,191,o),
(187,266,o),
(248,289,c)
);
}
);
width = 604;
}
);
unicode = 56;
},
